<svg width="215" height="253" viewBox="0 0 215 253" fill="none" xmlns="http://www.w3.org/2000/svg">
<path d="M11.8629 141.928C11.6996 139.446 11.5737 136.96 11.4734 134.481" stroke="black" stroke-width="4.05" stroke-miterlimit="10"/>
<path d="M129.911 231.225H70.6652" stroke="#CCDDE2" stroke-width="4.05" stroke-miterlimit="10"/>
<path d="M147.207 53.7232C147.207 53.7232 164.667 43.8628 179.479 63.101C184.319 69.3882 187.622 77.7312 187.855 86.3391C187.961 90.5393 187.395 94.7248 186.187 98.6709C184.958 102.699 182.752 105.365 181.056 108.952C178.456 114.484 183.892 115.463 186.81 118.143C188.749 119.94 190.589 121.885 192.317 123.968C196.211 128.619 199.638 133.799 202.527 139.401C208.249 150.56 211.695 163.174 212.584 176.221C213.464 189.085 212.79 203.054 207.274 214.482C204.619 219.985 200.622 225.383 195.705 227.949C189.175 231.355 181.84 231.227 174.861 231.227H160.012" stroke="#CCDDE2" stroke-width="4.05" stroke-miterlimit="10"/>
<path d="M74.4273 182.271C73.8418 187.252 72.9696 192.968 72.0063 198.689L70.8705 199.077C67.2353 200.298 63.3751 200.162 59.806 198.689L61.294 192.642L52.2353 161.122C52.2353 161.122 59.1599 158.444 64.8461 156.455L65.4991 156.422C68.6058 157.206 75.008 160.148 75.2086 171.169C75.2226 171.699 75.2086 172.257 75.2086 172.865C76.1112 176.421 75.752 179.557 74.4273 182.271Z" fill="#3FBDF1"/>
<path d="M53.1052 62.29C53.0159 62.018 52.8412 61.7991 52.6185 61.6797C52.3955 61.56 52.1425 61.55 51.9134 61.6512C51.7851 61.6976 51.6664 61.7765 51.5659 61.8828C51.2067 62.2314 51.1251 62.8423 51.1134 63.4225C51.0808 64.7474 51.0178 66.0752 50.9362 67.3945C50.9362 67.4838 50.9245 67.5842 50.9245 67.6735C50.8732 68.7362 50.9105 70.0249 50.5327 70.951C50.5084 71.0215 50.4672 71.0818 50.4137 71.1239C50.2878 71.1936 50.1549 71.043 50.0732 70.9063C49.84 70.4991 49.6068 70.1002 49.3735 69.6846C49.1893 69.3527 48.9817 68.9928 48.6598 68.8868C48.1817 68.7278 47.7269 69.2327 47.4634 69.746C46.6121 71.4196 46.5304 74.1615 47.8482 75.5645C49.166 76.9676 46.2156 79.7263 44.1025 80.8866C43.7487 81.1246 43.3781 81.3243 42.9946 81.4836C42.976 81.4836 43.7573 81.6928 43.7387 81.7011C42.0944 82.3856 40.3815 82.8068 38.6449 82.9535C36.5831 83.1181 34.5727 82.8085 33.1103 81.7374C33.1733 81.4585 33.6724 79.5059 33.7027 79.227C33.81 78.2535 33.887 77.2884 33.9359 76.3093C34.0246 74.4711 34.0176 72.6301 33.9593 70.7975C33.747 64.2035 34.7289 58.6638 37.0053 57.8187C37.1851 57.7542 37.3574 57.6633 37.5184 57.5481C38.5446 56.8703 39.0927 55.4394 38.6216 54.0893C38.5889 53.9973 38.5516 53.908 38.5189 53.8104C38.4821 53.7141 38.4401 53.621 38.393 53.5314C42.8384 51.8801 45.8564 53.0266 48.9071 55.0237C49.4876 55.5785 50.0333 56.1836 50.5397 56.834C51.7338 58.3844 52.612 60.244 53.1052 62.2677V62.29Z" fill="#3FBDF1"/>
<path d="M159.965 125.689H144.805V82.3533C144.805 82.3533 142.006 120.007 134.337 141.34H87.3856C92.9202 137.133 97.3586 130.779 100.314 123.94C101.48 121.234 103.346 117.217 106.448 118.272C107.185 118.52 108.269 118.679 108.817 117.873C109.006 117.564 109.114 117.193 109.125 116.81C109.391 112.86 105.967 109.536 103.145 108.487C100.323 107.438 97.0251 107.929 94.779 110.381C93.1604 112.152 92.1459 114.503 90.961 116.682C90.2499 117.973 89.407 119.153 88.4515 120.194C89.6689 111.351 90.7535 102.9 90.9097 99.7895C93.8788 96.9862 96.0595 92.4145 96.8338 88.3699C97.6851 83.9516 98.4361 79.6308 99.7585 75.4942L110.583 75.5389C110.99 75.5389 111.381 75.3453 111.67 75.0005C111.958 74.6558 112.12 74.1883 112.12 73.7007V52.2003C112.121 51.7172 111.961 51.2536 111.676 50.9105C111.392 50.5677 111.005 50.3736 110.601 50.3705L103.231 50.2952C105.91 49.6258 108.626 49.1923 111.357 48.9982C111.413 48.9982 111.464 48.9982 111.513 48.9982C113.312 48.8559 116.463 48.7945 118.277 48.7722C116.115 50.1669 114.779 53.1292 115.012 55.7456C115.053 56.3029 115.172 56.848 115.364 57.3579C117.211 62.2113 122.076 63.6451 126.093 62.2336C130.561 60.6744 133.845 55.7596 133.649 50.1055C136.448 50.5965 139.219 51.2193 141.962 51.9744C146.13 53.1208 150.195 54.6661 153.49 58.0357C156.364 60.9617 158.799 64.7301 159.925 68.9895C164.763 87.2012 163.275 107.524 159.965 125.689Z" fill="#2E2E2E"/>
<path d="M91.031 99.7902C90.6905 106.446 89.8136 113.095 88.862 119.728" stroke="black" stroke-width="4.05" stroke-miterlimit="10"/>
<path d="M99.8798 75.4945C98.555 79.6312 97.8064 83.9519 96.9551 88.3702C96.1737 92.4008 93.9977 96.9865 91.031 99.7898C88.5401 102.141 85.4894 103.249 82.2242 101.765C77.8441 99.7675 76.3071 93.9935 75.7706 88.903C75.0735 82.5642 75.0311 76.147 75.6447 69.7959C76.2628 71.4388 78.7887 76.4374 86.6229 75.1236C86.8333 75.3116 87.0861 75.4195 87.3483 75.4332L99.8798 75.4945Z" fill="#2E2E2E"/>
<path d="M95.4811 61.1941C97.3049 60.6363 98.4151 62.7339 98.1446 64.3294C97.7038 66.9318 94.5738 67.9555 92.7103 68.0029C91.2176 68.0392 87.5792 67.5678 86.0958 67.3614" stroke="black" stroke-width="4.05" stroke-miterlimit="10"/>
<path d="M85.4824 62.4825C87.7387 63.2624 90.1282 63.3096 92.4048 62.6192C94.3196 62.0307 96.5819 60.9456 97.5848 58.7671C98.1702 57.5008 97.7038 55.4813 96.4816 55.035C95.0706 54.5245 93.7645 56.2037 92.4864 56.6277C91.6619 56.8963 90.8202 57.0829 89.9698 57.1856C89.7366 57.2162 89.5174 57.2385 89.2911 57.2609C88.1009 57.3749 86.9045 57.3646 85.7157 57.2302C85.5893 57.2302 85.4659 57.1825 85.3635 57.0941C85.2609 57.0054 85.1841 56.8804 85.1445 56.7367C85.1046 56.5934 85.1037 56.4383 85.1419 56.2941C85.1799 56.1499 85.255 56.0235 85.3565 55.9331L85.5711 55.7462" stroke="black" stroke-width="4.05" stroke-miterlimit="10"/>
<path d="M99.8798 75.4943C98.555 79.6309 97.8064 83.9516 96.9551 88.37C95.5184 95.7869 89.3914 105.028 82.2242 101.759C77.8441 99.7617 76.3071 93.9877 75.7706 88.8972C74.931 81.0144 75.001 72.9169 76.2371 65.1012C77.2633 58.6633 79.0849 51.9019 84.3232 48.736L86.7815 47.266C87.3679 46.9118 88.0468 46.846 88.673 47.0825C89.2995 47.3193 89.8233 47.8398 90.133 48.5324C90.3217 48.9631 90.4218 49.4412 90.4246 49.9271C90.4269 49.9982 90.4223 50.0693 90.4106 50.1391" stroke="black" stroke-width="4.05" stroke-miterlimit="10"/>
<path d="M149.81 136.002C151.077 135.955 152.344 135.993 153.607 136.116C154.638 136.216 155.706 136.275 156.688 136.735C157.497 137.12 158.342 138.038 158.3 139.159C158.223 141.357 155.816 141.34 154.496 141.34" stroke="black" stroke-width="4.05" stroke-miterlimit="10"/>
<path opacity="0.54" d="M127.159 133.906L138.134 100.275C138.27 99.6233 138.28 98.943 138.163 98.2861C138.046 97.6289 137.805 97.0127 137.459 96.4839C137.112 95.955 136.67 95.5277 136.164 95.2342C135.659 94.9411 135.104 94.7893 134.543 94.7913H90.9564C89.9794 94.7938 89.0317 95.1893 88.2653 95.9137C87.499 96.6381 86.9583 97.6495 86.7302 98.7856L74.7001 132.409C74.5698 133.058 74.5639 133.733 74.6833 134.386C74.803 135.038 75.0446 135.649 75.39 136.173C75.7354 136.698 76.176 137.122 76.6782 137.413C77.1803 137.704 77.7314 137.856 78.2896 137.856H122.93C123.902 137.855 124.846 137.466 125.612 136.751C126.378 136.035 126.923 135.034 127.159 133.906Z" fill="white"/>
<path d="M127.159 133.906L138.134 100.275C138.27 99.6233 138.28 98.943 138.163 98.2861C138.046 97.6289 137.805 97.0127 137.459 96.4839C137.112 95.955 136.67 95.5277 136.164 95.2342C135.659 94.9411 135.104 94.7893 134.543 94.7913H90.9564C89.9794 94.7938 89.0317 95.1893 88.2653 95.9137C87.499 96.6381 86.9583 97.6495 86.7302 98.7856L74.7001 132.409C74.5698 133.058 74.5639 133.733 74.6833 134.386C74.803 135.038 75.0446 135.649 75.39 136.173C75.7354 136.698 76.176 137.122 76.6782 137.413C77.1803 137.704 77.7314 137.856 78.2896 137.856H122.93C123.902 137.855 124.846 137.466 125.612 136.751C126.378 136.035 126.923 135.034 127.159 133.906Z" fill="#3FBDF1"/>
<path d="M127.159 133.906L138.134 100.275C138.27 99.6233 138.28 98.943 138.163 98.2861C138.046 97.6289 137.805 97.0127 137.459 96.4839C137.112 95.955 136.67 95.5277 136.164 95.2342C135.659 94.9411 135.104 94.7893 134.543 94.7913H90.9564C89.9794 94.7938 89.0317 95.1893 88.2653 95.9137C87.4989 96.6381 86.9583 97.6495 86.7302 98.7856L74.7001 132.409C74.5698 133.058 74.5639 133.733 74.6833 134.386C74.803 135.038 75.0446 135.649 75.39 136.173C75.7354 136.698 76.176 137.122 76.6782 137.413C77.1803 137.704 77.7314 137.856 78.2896 137.856H122.93C123.902 137.855 124.846 137.466 125.612 136.751C126.378 136.035 126.923 135.034 127.159 133.906Z" stroke="black" stroke-width="4.05" stroke-linecap="square" stroke-linejoin="round"/>
<path d="M125.552 132.545L135.679 101.519C135.804 100.919 135.813 100.292 135.706 99.6864C135.599 99.0808 135.377 98.5126 135.058 98.0247C134.74 97.5372 134.333 97.1425 133.867 96.8713C133.402 96.5999 132.891 96.4591 132.374 96.4594H92.1529C91.25 96.4591 90.3731 96.8222 89.664 97.4909C88.9548 98.1595 88.4545 99.0939 88.2439 100.144L77.1677 131.165C77.0483 131.763 77.0439 132.386 77.1547 132.987C77.2652 133.588 77.4884 134.151 77.807 134.634C78.1256 135.117 78.5317 135.508 78.9946 135.776C79.4574 136.045 79.9651 136.185 80.4796 136.185H121.652C122.549 136.186 123.419 135.828 124.126 135.169C124.833 134.509 125.334 133.585 125.552 132.545Z" fill="#3FBDF1"/>
<path d="M95.0543 102.178C95.5884 101.221 96.4536 100.783 97.0041 101.227C97.5545 101.67 97.5545 102.786 97.0227 103.737C96.9388 103.883 96.8452 104.022 96.7429 104.15L100.694 114.127C101.324 113.625 102.016 113.5 102.515 113.896C102.675 114.036 102.808 114.215 102.904 114.422C103 114.629 103.056 114.859 103.07 115.095L105.771 114.007L108.132 113.056L108.901 112.755C108.999 112.408 109.134 112.078 109.302 111.773C110.051 110.426 111.276 109.821 112.038 110.434C112.801 111.048 112.81 112.596 112.083 113.932L116.584 121.282C117.566 120.32 118.72 120.021 119.52 120.657C120.609 121.525 120.626 123.787 119.558 125.706C119.513 125.784 119.464 125.845 119.42 125.918L122.415 130.816L122.443 130.864C122.596 131.14 122.651 131.478 122.596 131.802C122.541 132.127 122.38 132.413 122.149 132.596C121.918 132.779 121.635 132.845 121.364 132.779C121.092 132.713 120.853 132.521 120.7 132.244L118.042 127.444C117.2 128.027 116.304 128.138 115.649 127.617C114.608 126.78 114.557 124.693 115.485 122.833L111.178 115.056C110.541 115.572 109.839 115.703 109.335 115.304C109.055 115.067 108.864 114.707 108.803 114.303L108.481 114.409L106.081 115.193L103.007 116.186C102.912 116.626 102.754 117.044 102.541 117.422C101.792 118.766 100.568 119.374 99.8052 118.761C99.0425 118.147 99.0309 116.571 99.7795 115.224C99.8894 115.026 100.013 114.839 100.148 114.666L96.386 104.501C95.9335 104.872 95.4321 104.967 95.0729 104.68C94.5318 104.25 94.5225 103.123 95.0543 102.178Z" fill="#D7E8F0"/>
<path d="M123.674 102.713H129.505C129.771 102.712 130.032 102.619 130.255 102.445C130.478 102.27 130.654 102.022 130.762 101.731C130.794 101.643 130.811 101.548 130.813 101.452C130.813 101.261 130.749 101.079 130.636 100.945C130.523 100.81 130.371 100.735 130.212 100.735H124.015C124.306 101.318 124.159 102.135 123.674 102.713Z" fill="#D7E8F0"/>
<path d="M119.905 101.999C119.906 102.188 119.969 102.37 120.081 102.504C120.194 102.637 120.346 102.713 120.504 102.713H123.674C124.159 102.135 124.306 101.318 124.015 100.729H121.216C120.95 100.729 120.689 100.822 120.466 100.996C120.243 101.169 120.066 101.417 119.959 101.709C119.924 101.8 119.906 101.899 119.905 101.999Z" fill="#3FBDF1"/>
<path d="M121.363 102.713C121.38 102.752 121.399 102.788 121.421 102.822C121.836 103.503 122.739 103.567 123.439 102.956C123.522 102.883 123.599 102.802 123.672 102.713C124.157 102.136 124.304 101.319 124.012 100.73C123.997 100.692 123.978 100.655 123.956 100.621C123.544 99.938 122.641 99.8794 121.941 100.485C121.858 100.559 121.781 100.641 121.708 100.73C121.223 101.31 121.076 102.122 121.363 102.713Z" fill="white"/>
<path d="M118.45 106.376C118.451 106.566 118.515 106.747 118.628 106.881C118.74 107.015 118.893 107.09 119.051 107.09H125.169C124.873 106.498 125.02 105.695 125.505 105.106H119.751C119.484 105.107 119.223 105.2 119 105.374C118.776 105.548 118.6 105.796 118.492 106.088C118.462 106.18 118.448 106.277 118.45 106.376Z" fill="#3FBDF1"/>
<path d="M125.16 107.089H128.038C128.304 107.089 128.564 106.997 128.787 106.824C129.01 106.651 129.187 106.404 129.295 106.113C129.328 106.025 129.346 105.93 129.349 105.834C129.349 105.74 129.334 105.646 129.304 105.559C129.274 105.472 129.229 105.393 129.174 105.326C129.118 105.26 129.052 105.207 128.979 105.171C128.906 105.135 128.828 105.117 128.749 105.117H125.496C125.011 105.686 124.864 106.498 125.16 107.089Z" fill="#D7E8F0"/>
<path d="M125.16 107.09C125.173 107.128 125.191 107.165 125.211 107.198C125.624 107.882 126.527 107.943 127.226 107.335C127.309 107.26 127.387 107.178 127.459 107.09C127.94 106.509 128.087 105.695 127.8 105.106C127.783 105.069 127.764 105.032 127.744 104.998C127.327 104.317 126.424 104.256 125.724 104.867C125.641 104.939 125.563 105.019 125.491 105.106C125.011 105.687 124.864 106.498 125.16 107.09Z" fill="white"/>
<path d="M123.114 111.435H126.776C127.043 111.435 127.303 111.342 127.527 111.168C127.75 110.995 127.927 110.748 128.036 110.456C128.067 110.368 128.085 110.273 128.087 110.177C128.087 109.986 128.023 109.803 127.911 109.668C127.798 109.532 127.645 109.456 127.485 109.455H123.462C123.751 110.044 123.602 110.855 123.114 111.435Z" fill="#3FBDF1"/>
<path d="M117.186 110.724C117.186 110.818 117.202 110.911 117.232 110.997C117.262 111.084 117.306 111.162 117.362 111.228C117.418 111.294 117.484 111.347 117.556 111.382C117.629 111.418 117.707 111.436 117.785 111.435H123.114C123.595 110.855 123.744 110.041 123.455 109.449H118.496C118.229 109.449 117.968 109.542 117.745 109.717C117.521 109.892 117.346 110.141 117.239 110.434C117.205 110.525 117.187 110.624 117.186 110.724Z" fill="#D7E8F0"/>
<path d="M120.81 111.435C120.827 111.474 120.846 111.51 120.868 111.544C121.281 112.228 122.181 112.286 122.883 111.678C122.966 111.604 123.044 111.524 123.117 111.435C123.597 110.855 123.746 110.041 123.457 109.449C123.442 109.411 123.423 109.374 123.401 109.341C122.984 108.663 122.083 108.604 121.381 109.209C121.299 109.283 121.221 109.363 121.148 109.449C120.668 110.03 120.518 110.847 120.81 111.435Z" fill="white"/>
<path d="M99.4437 131.931H103.108C103.374 131.93 103.634 131.838 103.857 131.664C104.081 131.49 104.257 131.243 104.365 130.952C104.397 130.864 104.414 130.769 104.416 130.673C104.416 130.482 104.353 130.299 104.24 130.164C104.127 130.029 103.974 129.953 103.814 129.953H99.7912C100.073 130.539 99.9241 131.351 99.4437 131.931Z" fill="#3FBDF1"/>
<path d="M84.904 131.22C84.9043 131.314 84.9201 131.406 84.9504 131.493C84.9805 131.58 85.0248 131.658 85.0806 131.724C85.1361 131.79 85.2021 131.842 85.2746 131.878C85.3474 131.914 85.4251 131.932 85.5034 131.931H99.4437C99.9241 131.351 100.073 130.537 99.7842 129.948H86.2148C85.9482 129.948 85.6872 130.04 85.4638 130.215C85.2406 130.389 85.0647 130.638 84.9577 130.93C84.9243 131.021 84.9061 131.12 84.904 131.22Z" fill="#D7E8F0"/>
<path d="M97.1324 131.932C97.1494 131.97 97.1688 132.006 97.1907 132.04C97.6035 132.724 98.5038 132.782 99.2058 132.177C99.2881 132.102 99.366 132.02 99.439 131.932C99.9195 131.351 100.069 130.537 99.7795 129.948C99.7644 129.91 99.7455 129.873 99.7236 129.84C99.3061 129.159 98.4058 129.1 97.7038 129.706C97.6208 129.779 97.5429 129.86 97.4706 129.948C96.9924 130.526 96.8408 131.343 97.1324 131.932Z" fill="white"/>
<path d="M7.24025 142.674C7.24025 142.674 -0.456398 184.255 19.3426 192.941C39.1416 201.627 92.624 193.468 70.397 163.466C48.17 133.463 7.24025 142.674 7.24025 142.674Z" fill="#2E2E2E"/>
<path d="M103.308 50.2955C105.999 49.6241 108.727 49.189 111.471 48.9929C111.53 48.9929 111.579 48.9929 111.63 48.9929C113.433 48.8506 116.591 48.7893 118.394 48.767" stroke="black" stroke-width="4.05" stroke-miterlimit="10"/>
<path d="M89.97 57.1775C89.9513 57.1911 89.9396 57.2075 89.9208 57.2212" stroke="black" stroke-width="4.05" stroke-miterlimit="10"/>
<path d="M120.654 39.6957C119.278 40.5604 117.696 39.9746 117.09 38.5018" stroke="black" stroke-width="4.05" stroke-miterlimit="10"/>
<path d="M112.666 18.678C112.604 19.9578 112.878 21.2286 113.451 22.312C114.023 23.3956 114.865 24.2375 115.859 24.7197C116.069 24.2587 116.37 23.8662 116.735 23.5761C118.282 22.3795 118.007 25.5761 122.205 24.7337C128.024 23.5594 129.507 25.9833 129.507 25.9833C129.636 26.1953 129.274 27.5788 129.223 27.8327C128.989 29.3194 128.756 30.7977 128.544 32.2956C128.407 33.203 128.269 34.1048 128.129 35.0013C128.235 34.8786 128.347 34.7639 128.465 34.6582C129.421 32.873 130.823 30.8703 132.35 32.5048C132.657 32.8451 132.892 33.2677 133.036 33.7377C133.736 36.0111 132.397 37.4727 130.832 38.3485C130.419 38.6473 129.98 38.8913 129.524 39.0766C129.601 39.6512 129.92 41.9412 129.92 41.9468C129.953 42.1811 133.838 39.3164 134.163 38.9678C134.748 38.0414 135.2 37.0043 135.499 35.8995C136.707 31.3417 136.502 25.4506 134.069 21.7017C133.465 20.7728 133.869 20.2372 134.044 19.3335C134.052 19.2847 134.048 19.2342 134.032 19.1885C134.016 19.1424 133.989 19.1034 133.955 19.076C133.92 19.0487 133.879 19.0345 133.838 19.035C133.796 19.0359 133.756 19.0512 133.722 19.0797C132.411 20.0643 130.039 19.0574 130.039 19.0574C122.342 13.5288 118.398 16.9486 116.512 17.1215C115.746 17.1843 114.987 16.9257 114.364 16.3907C114.254 16.6496 114.087 16.8677 113.882 17.022C113.677 17.1762 113.44 17.2607 113.197 17.2666L113.123 17.7464C113.066 18.1109 112.904 18.4403 112.666 18.678Z" fill="#3FBDF1"/>
<path d="M115.863 24.7308C114.87 24.2488 114.028 23.407 113.455 22.3233C112.883 21.2396 112.608 19.9688 112.67 18.689C112.693 18.1976 112.752 17.7094 112.847 17.2302L112.915 17.2469C113.007 17.2718 113.101 17.2801 113.195 17.2721C113.438 17.2665 113.674 17.182 113.88 17.0277C114.085 16.8735 114.252 16.655 114.361 16.3962C114.426 16.2523 114.47 16.0969 114.494 15.936L114.853 13.6013C114.853 13.6013 116.019 15.4897 117.885 15.3139C119.751 15.1382 123.695 11.7185 131.413 17.2497C131.413 17.2497 133.265 18.067 134.575 17.0824C134.609 17.0542 134.65 17.0386 134.691 17.038C134.733 17.0375 134.774 17.0517 134.808 17.079C134.843 17.1064 134.87 17.1454 134.886 17.1912C134.902 17.2372 134.906 17.2877 134.897 17.3362C134.722 18.2372 134.839 18.9652 135.443 19.894C137.876 23.6429 138.081 29.5341 136.873 34.0919C136.344 35.9808 135.404 37.6673 134.151 38.9788C133.827 39.3275 129.941 42.1921 129.908 41.9578C129.908 41.9578 129.589 39.6622 129.512 39.0876L129.493 38.9565L129.603 38.9174C130.018 38.7638 130.425 38.5774 130.82 38.3596C132.385 37.4837 133.731 36.0221 133.024 33.7488C132.88 33.279 132.645 32.8565 132.339 32.5159C130.811 30.8813 129.409 32.8841 128.453 34.6693C128.268 35.0082 128.116 35.3713 128.001 35.7515C128.038 35.5061 128.075 35.2662 128.115 35.0207C128.255 34.1225 128.393 33.2207 128.53 32.315C128.763 30.8255 128.98 29.3472 129.209 27.8521C129.251 27.5982 129.622 26.2147 129.493 26.0027C129.493 26.0027 128.01 23.5788 122.191 24.7531C117.993 25.5899 118.268 22.3989 116.721 23.5955C116.356 23.8856 116.055 24.2784 115.845 24.7392C115.779 24.8895 115.722 25.044 115.672 25.2022C115.664 25.222 115.657 25.2426 115.651 25.2636C115.546 25.6094 115.45 25.9581 115.357 26.2984C114.485 29.6149 113.909 33.1965 114.217 36.6804C114.592 40.9035 117.165 45.8685 121.258 45.4473C122.546 45.2669 123.802 44.8451 124.98 44.1977" stroke="black" stroke-width="4.05" stroke-miterlimit="10"/>
<path d="M116.31 33.7315C116.71 33.7178 117.024 33.2375 117.01 32.6584C116.996 32.0793 116.661 31.621 116.26 31.6347C115.86 31.6481 115.546 32.1284 115.56 32.7075C115.574 33.2866 115.909 33.7448 116.31 33.7315Z" fill="black"/>
<path d="M121.791 35.4932C122.191 35.4795 122.504 34.9992 122.491 34.4204C122.477 33.8413 122.142 33.3827 121.741 33.3964C121.341 33.4101 121.027 33.8904 121.041 34.4692C121.054 35.0483 121.39 35.5068 121.791 35.4932Z" fill="black"/>
<path d="M119.425 35.8796C119.425 35.8796 117.305 36.4375 117.519 35.1377C117.584 34.7304 118.116 30.7305 118.116 30.7305C118.116 30.7305 117.127 28.3484 114.541 28.9034" stroke="black" stroke-width="4.05" stroke-miterlimit="10"/>
<path d="M120.376 30.3745C120.376 30.3745 123.737 29.6911 125.025 32.9017" stroke="black" stroke-width="4.05" stroke-miterlimit="10"/>
<path d="M118.431 48.7329C115.784 50.4065 114.37 54.4344 115.478 57.3492C117.326 62.2055 122.188 63.6336 126.207 62.2306C130.676 60.6686 133.96 55.7426 133.764 50.0941" stroke="black" stroke-width="4.05" stroke-miterlimit="10"/>
<path d="M134.459 141.338C142.134 120.005 144.922 82.3511 144.922 82.3511V134.886C144.921 135.733 145.061 136.572 145.332 137.355C145.603 138.138 146 138.849 146.501 139.449C147.002 140.048 147.597 140.523 148.251 140.847C148.906 141.171 149.608 141.338 150.316 141.338H167.342C167.98 141.35 168.6 141.079 169.082 140.578C169.563 140.077 169.873 139.381 169.952 138.624C169.986 138.206 169.947 137.785 169.837 137.387C169.726 136.989 169.548 136.623 169.312 136.312C169.076 136.002 168.788 135.754 168.468 135.585C168.147 135.416 167.8 135.328 167.449 135.329H160.476C160.198 135.328 159.923 135.251 159.674 135.104C159.425 134.957 159.206 134.744 159.036 134.481C158.866 134.218 158.749 133.912 158.692 133.586C158.636 133.26 158.643 132.924 158.713 132.601C162.911 112.797 165.507 89.5504 160.042 68.9789C158.913 64.7335 156.48 60.9512 153.607 58.0279C150.309 54.6584 146.244 53.1131 142.078 51.9695C139.331 51.2163 136.559 50.5932 133.764 50.1006C133.755 50.1039 133.746 50.1039 133.738 50.1006C133.719 50.1006 133.701 50.1006 133.689 50.1006H133.67H133.645H133.607" stroke="black" stroke-width="4.05" stroke-miterlimit="10"/>
<path d="M132.005 40.6221L131.697 47.2858C131.668 47.9372 131.839 48.5787 132.178 49.0894C132.517 49.6002 133.001 49.9449 133.537 50.0585H133.607C133.62 50.0545 133.633 50.0545 133.645 50.0585H133.656H133.689" stroke="black" stroke-width="4.05" stroke-miterlimit="10"/>
<path d="M133.738 50.0891H133.689H133.67H133.656H133.645H133.607H133.537C133.001 49.9756 132.517 49.6308 132.178 49.1201C131.839 48.6091 131.668 47.9675 131.697 47.3165L132.005 40.6527" stroke="black" stroke-width="4.05" stroke-miterlimit="10"/>
<path d="M118.872 45.0323C118.72 44.9597 118.872 52.4743 115.124 55.7378" stroke="black" stroke-width="4.05" stroke-miterlimit="10"/>
<path d="M68.6921 141.339H56.6853" stroke="black" stroke-width="4.05" stroke-miterlimit="10"/>
<path d="M185.991 141.339H87.3856" stroke="black" stroke-width="4.05" stroke-miterlimit="10"/>
<path d="M33.9616 70.7883C34.0772 73.6016 33.993 76.4217 33.7097 79.2177C33.3458 82.5036 30.8059 86.6793 30.2555 89.9289C29.4695 94.6038 30.659 99.435 32.2916 103.775C34.2648 109.022 37.3737 114.299 37.0705 120.308C36.9152 122.924 36.2643 125.465 35.1667 127.736C34.0693 130.007 32.554 131.95 30.736 133.418C28.2457 135.41 25.401 136.681 22.4283 137.128C22.0131 137.186 21.5909 137.234 21.1688 137.247C20.9356 137.247 20.7023 137.217 20.4691 137.194C12.5625 136.394 4.45308 129.181 4.47174 119.139C4.47174 112.723 8.54861 107.703 9.23664 101.477C9.65879 97.6693 8.72589 93.714 9.58884 90.0181C10.9882 84.1158 16.3969 80.8969 18.7665 75.4633C20.5111 71.4522 20.7956 66.7716 22.1764 62.5653C24.0982 56.7076 27.1675 50.0132 31.3657 49.4553C32.5839 49.6205 33.7614 50.0799 34.8268 50.8054C37.4297 52.479 38.0921 52.585 38.6215 54.0773C39.1626 55.6365 38.3556 57.3018 37.0076 57.8011C34.7312 58.663 33.7493 64.1943 33.9616 70.7883Z" fill="#3FBDF1"/>
<path d="M36.2495 51.7131C43.0832 49.3449 47.426 52.8288 50.5326 56.8455C53.6393 60.8622 53.4947 65.4227 53.4947 65.4227" stroke="black" stroke-width="4.05" stroke-miterlimit="10"/>
<path d="M57.4457 130.272C57.3426 136.657 56.6662 143.01 55.4282 149.223" stroke="black" stroke-width="4.05" stroke-miterlimit="10"/>
<path d="M74.4273 182.27C71.9247 187.42 65.9889 191.076 58.7261 193.353C45.8377 197.392 28.7745 197.076 19.3473 192.937C-0.463442 184.254 7.23787 142.673 7.23787 142.673C7.23787 142.673 41.502 134.96 64.3493 156.62C66.5319 158.683 68.558 160.973 70.404 163.462C72.9299 166.879 74.4809 170.006 75.2133 172.862C76.1112 176.421 75.752 179.556 74.4273 182.27Z" stroke="black" stroke-width="4.05" stroke-miterlimit="10"/>
<path d="M61.294 192.651C61.294 192.651 49.2895 232.502 69.4571 242.681C89.6246 252.859 -4.60331 254.215 16.1963 242.681C36.9959 231.147 25.0405 195.086 25.0405 195.086" stroke="black" stroke-width="4.05" stroke-miterlimit="10"/>
<path d="M85.7133 57.2217C85.4638 56.3096 85.5664 53.1381 85.648 51.3474C85.6636 51.0093 85.7889 50.6916 85.9969 50.462C86.205 50.2324 86.4797 50.1086 86.7629 50.1172L110.723 50.3683C111.127 50.3728 111.513 50.5677 111.797 50.9108C112.082 51.2542 112.241 51.7178 112.241 52.2009V73.704C112.241 73.9453 112.201 74.1844 112.124 74.4072C112.046 74.6301 111.933 74.8326 111.79 75.0028C111.647 75.1732 111.477 75.3079 111.29 75.3994C111.104 75.4912 110.904 75.5378 110.702 75.5366L87.3529 75.4334C87.0148 75.4167 86.695 75.2443 86.4606 74.9523C86.2262 74.6599 86.0956 74.2706 86.0958 73.8658V72.2257C87.7564 73.1517 90.8957 73.4363 90.8957 73.4363C92.0129 73.4 93.7785 73.2382 94.7464 72.5743C95.6327 71.9663 96.7522 71.0932 96.9038 69.771C96.9623 69.2598 96.8492 68.7415 96.5891 68.3295C96.3291 67.9175 95.9433 67.6456 95.5161 67.573C95.2593 67.5117 94.9936 67.534 94.7464 67.6372" stroke="black" stroke-width="4.05" stroke-miterlimit="10"/>
<path d="M109.097 116.811C109.086 117.194 108.978 117.565 108.787 117.873C108.239 118.68 107.154 118.521 106.417 118.272C103.318 117.218 101.456 121.235 100.286 123.94C97.3283 130.78 92.8922 137.134 87.3576 141.34C86.9984 141.619 86.6323 141.881 86.2614 142.138C80.8528 145.87 73.8442 145.176 68.6128 141.301L75.3019 121.65L75.9643 122.283C80.0038 126.097 84.9763 123.957 88.4188 120.194C89.3744 119.153 90.2175 117.973 90.9284 116.682C92.1132 114.504 93.1278 112.153 94.7487 110.381C96.9924 107.929 100.276 107.45 103.112 108.487C105.949 109.525 109.354 112.861 109.097 116.811Z" fill="white"/>
<path d="M109.069 115.419C109.069 115.419 108.309 110.604 101.454 114.361" stroke="black" stroke-width="4.05" stroke-miterlimit="10"/>
<path d="M105.256 109.64C105.256 109.64 100.983 108.005 98.604 111.91" stroke="black" stroke-width="4.05" stroke-miterlimit="10"/>
<path d="M19.0044 137.204C20.1451 137.326 21.2936 137.303 22.4306 137.137C25.4027 136.684 28.2457 135.411 30.736 133.419C32.554 131.951 34.0691 130.008 35.1667 127.737C36.264 125.466 36.9152 122.926 37.0705 120.309C37.3737 114.298 34.2718 109.02 32.2916 103.774C30.659 99.4305 29.4695 94.5994 30.2578 89.93C30.8059 86.6776 33.3412 82.5045 33.7073 79.2158C33.9921 76.4198 34.0779 73.6 33.9639 70.7864C33.7517 64.1895 34.7312 58.653 37.0076 57.8106C38.3556 57.3113 39.165 55.6432 38.6215 54.0868C38.1014 52.5917 37.432 52.5024 34.8269 50.8093C28.0351 46.391 23.3122 54.6279 20.7047 62.5692C19.3216 66.7784 19.0417 71.4533 17.2948 75.4644C14.9252 80.9009 9.50486 84.1114 8.11947 90.0248C7.25418 93.7179 8.1871 97.676 7.76729 101.478C7.08159 107.701 3.01169 112.719 3.00003 119.14C2.98137 129.179 11.1002 136.398 19.0044 137.204Z" stroke="black" stroke-width="4.05" stroke-miterlimit="10"/>
<path d="M74.4272 182.271C73.8418 187.253 72.9695 192.969 72.0086 198.69C69.2845 214.904 65.8187 231.216 65.8187 231.216" stroke="black" stroke-width="4.05" stroke-miterlimit="10"/>
<path d="M75.2039 172.862C75.2156 172.254 75.2226 171.696 75.2039 171.166C74.9963 159.73 68.1207 156.996 65.1633 156.341C64.722 156.238 64.2756 156.17 63.8269 156.137" stroke="black" stroke-width="4.05" stroke-miterlimit="10"/>
<path d="M66.8449 226.271C67.2255 225.992 67.6614 225.839 68.1076 225.829C68.5538 225.819 68.9943 225.952 69.3836 226.213C69.7729 226.474 70.0968 226.854 70.3221 227.315C70.5474 227.776 70.6659 228.3 70.6652 228.834C70.6652 228.873 70.6652 228.921 70.6652 228.976C70.6279 230.354 70.3245 231.702 69.7787 232.916C69.2327 234.13 68.4593 235.176 67.5189 235.972L64.277 238.731" stroke="black" stroke-width="4.05" stroke-miterlimit="10"/>
<path d="M30.0176 93.6167C30.4701 93.3964 30.9319 93.2011 31.3983 93.0198C32.3802 90.8497 32.2286 86.0994 32.1354 84.3728L33.1173 81.7257C35.8274 83.7173 39.4145 82.9697 42.7427 81.5834C43.2101 81.3882 43.6647 81.1514 44.1025 80.8749C46.2155 79.7146 49.1776 76.9698 47.8482 75.5529C46.5187 74.1359 46.612 71.4079 47.4633 69.7343C47.7222 69.221 48.1817 68.7161 48.6598 68.8751C48.9817 68.9811 49.1893 69.341 49.3735 69.6729C49.6067 70.0885 49.84 70.4874 50.0732 70.8946C50.1548 71.0313 50.2878 71.1736 50.4137 71.1122C50.4671 71.0704 50.5084 71.0101 50.5327 70.9393C50.9432 69.9295 50.8662 68.4818 50.9362 67.3745C51.0178 66.0551 51.0808 64.7274 51.1134 63.4024C51.1321 62.6716 51.258 61.8878 51.9134 61.6312C52.0456 61.5704 52.1879 61.5461 52.3292 61.5606C52.4704 61.5751 52.607 61.6278 52.7288 61.7149C52.8503 61.8022 52.9538 61.9213 53.031 62.0632C53.1085 62.2055 53.1577 62.3667 53.1752 62.5349C53.6521 65.7407 53.7221 69.014 53.3828 72.2447C53.0609 75.6282 52.4801 79.2181 50.6656 81.946C49.6319 83.5198 48.2468 84.7111 46.6704 85.3825C45.145 86.0157 45.194 88.2165 45.194 90.1468V93.3517C49.8843 94.4898 54.29 95.8621 57.9331 99.7672C60.3424 102.402 62.6094 105.216 64.7201 108.194C71.3649 117.519 72.8016 119.268 76.0016 122.283C80.0411 126.096 85.016 123.957 88.4561 120.194C89.41 119.152 90.2516 117.973 90.961 116.682C92.1459 114.503 93.1604 112.152 94.779 110.381C97.0251 107.929 100.309 107.449 103.145 108.487C105.981 109.524 109.391 112.86 109.12 116.81C109.109 117.193 109.002 117.564 108.813 117.873C108.264 118.679 107.18 118.52 106.443 118.272C103.341 117.217 101.482 121.234 100.309 123.94C97.3539 130.779 92.9155 137.133 87.3809 141.34C87.0218 141.619 86.6579 141.881 86.2847 142.138C80.1018 146.405 71.8127 144.882 66.495 139.446L53.6673 126.422" stroke="black" stroke-width="4.05" stroke-miterlimit="10"/>
<path d="M31.3983 93.0203C31.3983 93.0203 37.5253 90.7554 45.194 93.3606" stroke="black" stroke-width="4.05" stroke-miterlimit="10"/>
<path d="M86.0958 72.2257C86.0958 72.2257 86.1425 81.7095 88.034 85.3608" stroke="black" stroke-width="4.05" stroke-miterlimit="10"/>
<path d="M92.3115 28.8176C90.8561 31.7882 90.9237 33.897 91.3016 37.3195C91.3328 37.611 91.2946 37.907 91.191 38.1736C91.0877 38.4403 90.9235 38.6665 90.7171 38.8263C90.5109 38.9862 90.2711 39.0729 90.0253 39.0768C89.7797 39.0804 89.5381 39.0012 89.3284 38.8481C80.9321 33.0685 73.0745 37.6403 63.0502 34.8091C59.3698 33.7743 54.7822 31.6348 51.6359 28.19C50.5921 26.3359 50.035 24.1515 50.0359 21.9167C50.0359 12.5472 60.7389 4.94897 73.9351 4.94897C82.3945 4.94897 89.8252 8.07026 94.0747 12.7731C94.0747 12.7731 94.0747 12.7731 94.0864 12.7899C95.1525 14.623 95.7344 16.7968 95.7563 19.0297C95.7563 22.4021 93.6665 26.0282 92.3115 28.8176Z" fill="#D7E8F0"/>
<path d="M95.719 19.0355V19.2726C95.67 22.5557 94.2963 25.6072 92.666 28.2487C91.5744 30.0172 90.28 31.9781 90.5879 34.1454C90.7232 35.0994 91.1686 35.9669 91.2876 36.9348C91.4065 37.9027 90.9727 39.0882 90.1634 39.1384C89.6503 39.1691 89.2118 38.7311 88.806 38.3546C86.3967 36.1231 83.2667 35.2863 80.2231 35.1412C77.1794 34.9962 74.1404 35.4732 71.0944 35.5764C66.705 35.727 62.2456 35.0715 58.1897 33.066C54.5443 31.2473 51.2207 28.2906 49.033 24.3548C46.8849 20.4748 48.156 14.8458 50.4464 11.4735C52.5968 8.31038 55.7081 6.28531 58.901 4.85995C67.4863 1.02459 77.2867 1.11663 85.7553 5.31461C88.2696 6.54751 90.6952 8.17649 92.5843 10.5251C94.4269 12.8152 95.7026 15.8668 95.719 19.0355Z" stroke="black" stroke-width="4.05" stroke-miterlimit="10"/>
<path d="M60.487 22.7677C62.3083 22.7677 63.7849 21.002 63.7849 18.8235C63.7849 16.6453 62.3083 14.8794 60.487 14.8794C58.6657 14.8794 57.1891 16.6453 57.1891 18.8235C57.1891 21.002 58.6657 22.7677 60.487 22.7677Z" fill="white"/>
<path d="M71.1503 22.7677C72.9717 22.7677 74.4482 21.002 74.4482 18.8235C74.4482 16.6453 72.9717 14.8794 71.1503 14.8794C69.329 14.8794 67.8524 16.6453 67.8524 18.8235C67.8524 21.002 69.329 22.7677 71.1503 22.7677Z" fill="white"/>
<path d="M82.0213 22.7677C83.8426 22.7677 85.3192 21.002 85.3192 18.8235C85.3192 16.6453 83.8426 14.8794 82.0213 14.8794C80.2 14.8794 78.7234 16.6453 78.7234 18.8235C78.7234 21.002 80.2 22.7677 82.0213 22.7677Z" fill="white"/>
<g opacity="0.54">
<path opacity="0.54" d="M145.393 184.185L144.052 207.337C143.438 208.734 142.672 210.028 141.773 211.183C141.675 211.142 141.577 211.097 141.481 211.044C141.302 210.971 141.124 210.885 140.957 210.801C138.239 209.376 136.175 206.72 135.574 203.711C135.03 201.075 135.52 198.227 134.47 195.75C133.19 192.698 129.708 190.785 129.281 187.343C128.88 184.121 131.305 181.167 130.914 178.01C130.447 174.439 126.797 172.322 126.114 168.835C125.687 166.668 126.069 164.18 125.908 161.948C125.731 159.452 125.381 156.978 124.861 154.551C130.265 154.083 135.765 157.645 137.516 162.746C138.946 166.93 138.085 171.803 140.315 175.608C141.533 177.669 143.559 179.212 144.609 181.368C144.933 182.041 145.169 182.769 145.309 183.527C145.309 183.58 145.309 183.633 145.325 183.675C145.325 183.761 145.344 183.823 145.353 183.887C145.376 184.079 145.393 184.185 145.393 184.185Z" fill="#3FBDF1"/>
<path opacity="0.54" d="M145.402 184.164C145.402 184.164 145.386 184.069 145.367 183.886C145.383 183.959 145.395 184.033 145.402 184.108C145.405 184.117 145.407 184.126 145.407 184.136C145.407 184.145 145.405 184.155 145.402 184.164Z" fill="#3FBDF1"/>
</g>
<path d="M163.256 175.131C162.556 178.138 158.724 179.965 158.262 183.047C157.854 185.78 160.378 188.33 159.96 191.105C159.515 194.082 155.888 195.727 154.556 198.358C153.472 200.494 153.978 202.952 153.418 205.225C152.77 207.808 150.619 210.115 147.783 211.336C147.606 211.412 147.438 211.484 147.259 211.548C147.161 211.582 147.053 211.624 146.955 211.654C146.022 210.731 144.938 209.105 144.059 207.35L145.393 184.185C146.433 183.13 147.622 182.165 148.45 180.994C149.348 179.73 149.766 178.35 150.032 176.902H150.06V176.743C150.449 174.458 150.484 172.065 151.382 169.898C153.204 165.488 158.92 162.414 164.546 162.818C164.015 164.902 163.652 167.04 163.461 169.206C163.3 171.122 163.697 173.27 163.256 175.131Z" fill="#3FBDF1"/>
<path d="M150.069 176.723V176.881H150.041L150.069 176.723Z" fill="#3FBDF1"/>
<path d="M150.069 176.723L150.041 176.882C149.775 178.33 149.358 179.71 148.46 180.974C147.632 182.146 146.442 183.111 145.402 184.165C145.406 184.151 145.406 184.135 145.402 184.12C145.395 184.045 145.383 183.971 145.367 183.897C145.367 183.833 145.348 183.772 145.339 183.685C145.339 183.643 145.339 183.59 145.323 183.537C145.183 182.779 144.947 182.051 144.623 181.378C143.573 179.222 141.547 177.68 140.329 175.618C140.329 175.618 140.88 164.754 145.528 161.449C149.936 158.324 150.069 174.916 150.069 176.723Z" fill="#3FBDF1"/>
<path d="M150.069 176.723V176.881H150.041L150.069 176.723Z" fill="#3FBDF1"/>
<path d="M145.393 184.119V184.183C145.393 184.183 145.376 184.089 145.358 183.906C145.373 183.976 145.385 184.047 145.393 184.119Z" fill="#3FBDF1"/>
<path d="M144.977 184.184C146.013 183.13 147.217 182.151 148.047 180.982C150.379 177.693 149.479 173.49 150.974 169.883C152.793 165.479 158.514 162.408 164.137 162.809C163.604 164.892 163.24 167.031 163.051 169.197C162.883 171.127 163.284 173.272 162.843 175.141C162.127 178.148 158.309 179.972 157.845 183.055C157.432 185.785 159.963 188.335 159.545 191.107C159.1 194.086 155.475 195.732 154.141 198.36C153.052 200.499 153.563 202.951 152.998 205.23C152.315 207.977 149.936 210.404 146.836 211.551C146.738 211.59 146.631 211.632 146.531 211.662C145.598 210.739 144.513 209.113 143.632 207.355" stroke="black" stroke-width="4.05" stroke-miterlimit="10"/>
<path d="M160.704 166.26C152.32 177.052 148.376 199.804 146.841 211.553C146.715 212.543 146.608 213.45 146.505 214.267" stroke="black" stroke-width="4.05" stroke-miterlimit="10"/>
<path d="M161.479 220.884L157.633 248.105C157.541 248.851 157.232 249.533 156.76 250.032C156.288 250.531 155.683 250.814 155.053 250.83H134.883C134.247 250.813 133.637 250.524 133.163 250.016C132.689 249.509 132.383 248.815 132.299 248.061L128.742 220.881L161.479 220.884Z" stroke="black" stroke-width="4.05" stroke-miterlimit="10"/>
<path d="M165.143 217.844C165.108 218.652 164.82 219.414 164.335 219.977C163.851 220.541 163.206 220.865 162.531 220.885H127.753C127.085 220.865 126.447 220.548 125.964 219.995C125.482 219.441 125.19 218.692 125.146 217.894C124.999 215.942 126.207 214.268 127.753 214.268H162.531C164.063 214.271 165.266 215.92 165.143 217.844Z" stroke="black" stroke-width="4.05" stroke-miterlimit="10"/>
<path d="M141.36 211.177C142.853 209.406 144.681 205.456 145.491 202.232C146.158 199.573 144.985 196.837 144.714 194.109C144.294 189.839 146.067 185.247 144.199 181.376C143.156 179.217 141.129 177.683 139.912 175.616C137.67 171.808 138.531 166.938 137.099 162.762C135.347 157.655 129.85 154.093 124.448 154.567C124.965 156.995 125.315 159.469 125.496 161.965C125.657 164.196 125.262 166.684 125.696 168.849C126.38 172.335 130.046 174.447 130.496 178.02C130.893 181.178 128.465 184.134 128.864 187.35C129.293 190.798 132.77 192.703 134.055 195.76C135.1 198.24 134.61 201.085 135.151 203.718C135.83 207.01 138.235 209.902 141.36 211.177Z" stroke="black" stroke-width="4.05" stroke-miterlimit="10"/>
<path d="M127.746 158.567C135.795 171.075 139.583 197.431 141.073 211.038C141.199 212.218 141.306 213.3 141.402 214.268" stroke="black" stroke-width="4.05" stroke-miterlimit="10"/>
<path d="M139.907 175.615C139.907 175.615 140.46 164.751 145.106 161.448C149.752 158.146 149.654 176.653 149.654 176.653" stroke="black" stroke-width="4.05" stroke-miterlimit="10"/>
<path d="M144.977 184.184C144.977 184.184 144.028 177.97 145.694 171.858" stroke="black" stroke-width="4.05" stroke-miterlimit="10"/>
</svg>
