<svg width="275" height="313" viewBox="0 0 275 313" fill="none" xmlns="http://www.w3.org/2000/svg">
<mask id="mask0_11_71" style="mask-type:luminance" maskUnits="userSpaceOnUse" x="0" y="0" width="275" height="313">
<path d="M274.497 0H0V313H274.497V0Z" fill="white"/>
</mask>
<g mask="url(#mask0_11_71)">
<path d="M273.758 110.809L232.578 47.0892L228.601 48.769L231.557 47.0892L138.146 2.29498H136.351L41.2153 47.0892L0.000335693 110.809L30.5156 123.912L30.4452 124.415V267.309L95.7344 294.241V297.377L100.768 296.369L135.471 310.703H139.061L244.122 267.309V124.415V123.519L273.758 110.809Z" fill="#FFD297"/>
<path d="M229.868 48.2091L140.504 85.2763H133.113L41.2152 47.0892L136.351 2.29498L229.868 48.2091Z" fill="#F9A948"/>
<path d="M137.654 3.25446C132.902 22.9639 121.498 55.4397 100.663 70.4459L84.1551 63.5588L44.489 47.0969L123.188 10.0296L137.654 3.25446Z" fill="#DD872A"/>
<path d="M244.544 121.957V265.691L147.332 305.894L136.773 310.206L137.266 288.928L164.226 278.737L217.373 257.908C221.981 256.122 226.079 251.919 229.003 245.977C231.927 240.035 233.509 232.698 233.493 225.152V128.06L244.544 121.957Z" fill="#F9A948"/>
<path d="M30.3743 121.957V256.9C30.3743 261.939 31.2189 266.587 34.281 268.099L126.249 306.118L138.744 312.445L136.315 289.152L109.355 278.962L56.314 257.908C51.6983 256.132 47.5936 251.934 44.6623 245.991C41.7311 240.049 40.1445 232.707 40.1588 225.152V128.06L30.3743 121.957Z" fill="#F9A948"/>
<path d="M41.3552 114.67C44.1165 119.146 47.6228 122.277 51.4629 123.694C55.303 125.112 59.3177 124.76 63.0362 122.677H63.2122C67.2597 120.269 71.5185 115.118 71.1313 108.286C70.8441 105.156 69.9163 102.263 68.4916 100.055C66.3274 96.0805 63.2961 93.5592 60.0093 93.0003C57.1609 93.1462 54.3402 93.9381 51.6326 95.3521C45.9785 97.3434 40.0818 96.6622 34.6679 93.3923C33.3665 92.4338 31.9949 91.7378 30.5851 91.3206C29.8763 91.1303 29.1487 91.2311 28.4712 91.6132C27.7937 91.9953 27.1887 92.6462 26.7135 93.5043C26.2021 95.0219 26.0666 96.7892 26.3337 98.4578C26.6008 100.126 27.2512 101.575 28.1566 102.519C30.0768 104.289 32.153 105.592 34.3159 106.383C36.524 107.517 38.4955 109.588 40.0177 112.374L41.3552 114.67Z" fill="#FFEBD2"/>
<path d="M51.9029 88.3408C52.0643 85.3833 48.8669 82.5262 44.7614 81.9593C40.6558 81.3925 37.1969 83.3306 37.0356 86.2881C36.8742 89.2457 40.0716 92.1028 44.1771 92.6697C48.2826 93.2364 51.7416 91.2984 51.9029 88.3408Z" fill="#FFEBD2"/>
<path d="M30.3741 219.331C31.5015 219.331 32.4155 217.878 32.4155 216.084C32.4155 214.29 31.5015 212.836 30.3741 212.836C29.2467 212.836 28.3327 214.29 28.3327 216.084C28.3327 217.878 29.2467 219.331 30.3741 219.331Z" fill="#3E3126"/>
<path d="M44.4884 190.534C45.3631 190.534 46.0722 188.979 46.0722 187.062C46.0722 185.144 45.3631 183.59 44.4884 183.59C43.6137 183.59 42.9046 185.144 42.9046 187.062C42.9046 188.979 43.6137 190.534 44.4884 190.534Z" fill="white"/>
<path d="M137.267 81.6829C137.024 81.6829 136.792 81.5296 136.62 81.2566C136.448 80.9836 136.352 80.6133 136.352 80.2271V16.1714C136.352 15.7852 136.448 15.4149 136.62 15.1419C136.792 14.8689 137.024 14.7156 137.267 14.7156C137.51 14.7156 137.742 14.8689 137.914 15.1419C138.085 15.4149 138.182 15.7852 138.182 16.1714V80.2271C138.182 80.6133 138.085 80.9836 137.914 81.2566C137.742 81.5296 137.51 81.6829 137.267 81.6829Z" fill="#3E3126"/>
<path d="M41.1442 49.39C40.8025 49.3816 40.4737 49.1805 40.2165 48.8224C39.9592 48.4645 39.7901 47.9728 39.7394 47.4351C39.6887 46.8974 39.7597 46.3484 39.9396 45.8862C40.1195 45.4238 40.3967 45.0781 40.7219 44.9105L135.752 0.116278C136.116 -0.0589116 136.509 0.00163015 136.845 0.284737C137.182 0.567839 137.434 1.05062 137.547 1.62808C137.648 2.22183 137.602 2.85423 137.418 3.39563C137.235 3.93702 136.929 4.34636 136.562 4.53972L41.5314 49.334L41.1442 49.39Z" fill="#3E3126"/>
<path d="M231.488 49.3848C231.349 49.4394 231.204 49.4394 231.065 49.3848L137.654 4.53454C137.287 4.34119 136.981 3.93185 136.798 3.39046C136.614 2.84906 136.568 2.21665 136.669 1.62292C136.718 1.32685 136.803 1.0493 136.92 0.806589C137.037 0.563882 137.184 0.360911 137.351 0.209618C137.518 0.0583245 137.703 -0.0382369 137.894 -0.0743863C138.085 -0.110536 138.279 -0.085543 138.464 -0.00088001L231.91 44.7934C232.235 44.9609 232.513 45.3067 232.692 45.7689C232.872 46.2313 232.943 46.7802 232.892 47.3179C232.842 47.8557 232.673 48.3473 232.416 48.7053C232.158 49.0634 231.829 49.2644 231.488 49.2729V49.3848Z" fill="#3E3126"/>
<path d="M142.193 86.7241H131.247C131.004 86.7241 130.771 86.5708 130.6 86.2978C130.428 86.0248 130.332 85.6544 130.332 85.2683C130.332 84.8822 130.428 84.512 130.6 84.2389C130.771 83.9659 131.004 83.8126 131.247 83.8126H142.193C142.436 83.8126 142.669 83.9659 142.84 84.2389C143.012 84.512 143.108 84.8822 143.108 85.2683C143.108 85.6544 143.012 86.0248 142.84 86.2978C142.669 86.5708 142.436 86.7241 142.193 86.7241Z" fill="#3E3126"/>
<path d="M139.201 305.098C138.858 305.084 138.533 304.86 138.29 304.476C138.048 304.09 137.908 303.571 137.899 303.026V188.185C137.868 187.88 137.878 187.568 137.93 187.272C137.982 186.974 138.074 186.698 138.199 186.463C138.325 186.228 138.481 186.039 138.657 185.91C138.833 185.78 139.025 185.713 139.219 185.713C139.413 185.713 139.604 185.78 139.78 185.91C139.956 186.039 140.113 186.228 140.238 186.463C140.364 186.698 140.456 186.974 140.507 187.272C140.559 187.568 140.57 187.88 140.539 188.185V303.026C140.529 303.581 140.384 304.107 140.134 304.494C139.885 304.881 139.55 305.098 139.201 305.098Z" fill="#F9A948"/>
<path d="M139.201 176.093C138.858 176.079 138.533 175.855 138.29 175.471C138.048 175.085 137.908 174.566 137.899 174.021V167.974C137.868 167.67 137.878 167.358 137.93 167.06C137.982 166.764 138.074 166.488 138.199 166.253C138.325 166.017 138.481 165.828 138.657 165.699C138.833 165.569 139.025 165.502 139.219 165.502C139.413 165.502 139.604 165.569 139.78 165.699C139.956 165.828 140.113 166.017 140.238 166.253C140.364 166.488 140.456 166.764 140.507 167.06C140.559 167.358 140.57 167.67 140.539 167.974V174.245C140.496 174.759 140.336 175.232 140.09 175.571C139.843 175.912 139.527 176.098 139.201 176.093Z" fill="#F9A948"/>
<path d="M139.203 152.138C138.858 152.138 138.526 151.918 138.282 151.53C138.037 151.142 137.901 150.615 137.901 150.066V107.903C137.952 107.405 138.112 106.952 138.354 106.625C138.596 106.299 138.903 106.119 139.22 106.119C139.537 106.119 139.845 106.299 140.086 106.625C140.328 106.952 140.489 107.405 140.54 107.903V150.066C140.54 150.343 140.505 150.616 140.438 150.871C140.371 151.127 140.271 151.358 140.146 151.551C140.022 151.743 139.874 151.895 139.712 151.996C139.55 152.097 139.377 152.144 139.203 152.138Z" fill="#F9A948"/>
<path d="M135.401 313.001H135.048L34.0701 271.174C32.6002 270.577 31.2971 269.217 30.3666 267.312C29.4361 265.406 28.9312 263.061 28.9314 260.647V227.5C28.9267 227.193 28.9605 226.889 29.031 226.604C29.1014 226.319 29.2069 226.059 29.3414 225.84C29.4759 225.621 29.6366 225.447 29.814 225.327C29.9914 225.209 30.182 225.148 30.3744 225.148C30.7604 225.163 31.1274 225.417 31.397 225.856C31.6667 226.296 31.8176 226.886 31.8175 227.5V260.647C31.8192 262.041 32.1098 263.395 32.6444 264.498C33.179 265.601 33.9275 266.394 34.774 266.75L135.787 308.465C136.155 308.623 136.469 309.005 136.661 309.53C136.852 310.055 136.905 310.679 136.808 311.265C136.719 311.754 136.535 312.185 136.282 312.497C136.029 312.809 135.72 312.986 135.401 313.001Z" fill="#3E3126"/>
<path d="M30.3754 207.162C29.9927 207.162 29.6257 206.92 29.355 206.49C29.0844 206.059 28.9324 205.475 28.9324 204.867V189.692C28.9324 189.084 29.0844 188.5 29.355 188.069C29.6257 187.639 29.9927 187.397 30.3754 187.397C30.7581 187.397 31.1252 187.639 31.3958 188.069C31.6664 188.5 31.8185 189.084 31.8185 189.692V204.922C31.8008 205.517 31.642 206.079 31.3742 206.495C31.1064 206.911 30.7495 207.148 30.3754 207.162Z" fill="#3E3126"/>
<path d="M30.3754 174.744C29.9927 174.744 29.6257 174.503 29.355 174.072C29.0844 173.642 28.9324 173.058 28.9324 172.449V124.407C28.9324 123.798 29.0844 123.214 29.355 122.783C29.6257 122.353 29.9927 122.111 30.3754 122.111C30.7554 122.125 31.1172 122.372 31.3859 122.799C31.6546 123.227 31.8096 123.803 31.8185 124.407V172.449C31.8185 173.058 31.6664 173.642 31.3958 174.072C31.1252 174.503 30.7581 174.744 30.3754 174.744Z" fill="#3E3126"/>
<path d="M138.99 312.988C138.67 312.973 138.362 312.797 138.109 312.485C137.856 312.174 137.672 311.741 137.582 311.252C137.496 310.659 137.558 310.036 137.755 309.514C137.952 308.992 138.268 308.611 138.638 308.453L239.617 266.739C240.466 266.389 241.218 265.6 241.754 264.494C242.289 263.389 242.578 262.031 242.573 260.635V124.404C242.627 123.85 242.804 123.345 243.072 122.98C243.34 122.615 243.681 122.415 244.034 122.415C244.386 122.415 244.727 122.615 244.995 122.98C245.263 123.345 245.44 123.85 245.494 124.404V260.635C245.495 263.048 244.99 265.393 244.059 267.3C243.129 269.206 241.826 270.565 240.356 271.162L139.342 312.877L138.99 312.988Z" fill="#3E3126"/>
<path d="M108.299 267.431H108.087L82.6757 257.575C82.5621 257.536 82.455 257.46 82.3596 257.355C82.2642 257.248 82.1833 257.114 82.1214 256.957C82.0588 256.801 82.0173 256.627 81.9976 256.444C81.9779 256.262 81.9808 256.076 82.0071 255.896C82.0318 255.708 82.0799 255.53 82.1484 255.372C82.2168 255.213 82.3042 255.079 82.4062 254.975C82.5075 254.87 82.6211 254.8 82.7398 254.765C82.8586 254.731 82.9802 254.735 83.0982 254.775L108.51 264.463C108.743 264.507 108.956 264.697 109.101 264.991C109.246 265.286 109.312 265.659 109.284 266.031C109.256 266.402 109.137 266.74 108.952 266.97C108.767 267.202 108.532 267.307 108.299 267.263V267.431Z" fill="#3E3126"/>
<path d="M108.299 257.575H108.088L82.6765 247.945C82.4448 247.852 82.2445 247.618 82.12 247.293C81.9947 246.969 81.9546 246.579 82.0078 246.209C82.0326 246.022 82.0806 245.846 82.1498 245.69C82.2183 245.534 82.3072 245.402 82.4091 245.302C82.5111 245.203 82.6247 245.138 82.7435 245.11C82.8622 245.083 82.9831 245.095 83.0989 245.145L108.51 254.776C108.72 254.869 108.902 255.079 109.023 255.368C109.143 255.655 109.196 256.003 109.17 256.347C109.146 256.691 109.044 257.009 108.884 257.245C108.724 257.48 108.517 257.617 108.299 257.631V257.575Z" fill="#3E3126"/>
<path d="M108.3 247.308H108.089L82.6772 237.678C82.546 237.659 82.4186 237.596 82.3042 237.493C82.1899 237.39 82.0908 237.248 82.0136 237.079C81.9364 236.908 81.8832 236.714 81.8577 236.508C81.8322 236.303 81.8351 236.091 81.8657 235.887C81.8963 235.683 81.9546 235.493 82.0362 235.328C82.117 235.163 82.2197 235.029 82.337 234.932C82.4543 234.836 82.5832 234.782 82.7143 234.773C82.8461 234.763 82.9773 234.799 83.0996 234.878L108.511 244.509C108.628 244.565 108.736 244.659 108.829 244.783C108.922 244.908 108.998 245.06 109.055 245.233C109.11 245.404 109.143 245.592 109.153 245.786C109.162 245.978 109.148 246.173 109.11 246.356C109.048 246.623 108.939 246.856 108.795 247.026C108.65 247.195 108.478 247.293 108.3 247.308Z" fill="#3E3126"/>
<path d="M108.298 195.693L82.8869 186.062V225.033L108.298 234.664V195.693Z" fill="white"/>
<path opacity="0.2" d="M108.3 200.673V234.268L92.1449 228.11C99.0763 221.625 104.685 212.1 108.3 200.673Z" fill="#C9D2DF"/>
<path d="M227.42 265.128C232.851 262.962 236.471 256.247 235.507 250.128C234.543 244.008 229.359 240.803 223.929 242.969C218.499 245.133 214.878 251.85 215.842 257.968C216.806 264.087 221.99 267.293 227.42 265.128Z" fill="#F9A948"/>
<path d="M236.119 232.753C236.578 230.195 235.071 227.268 232.753 226.216C230.435 225.164 228.184 226.384 227.725 228.942C227.267 231.499 228.774 234.425 231.091 235.477C233.409 236.529 235.661 235.31 236.119 232.753Z" fill="#F9A948"/>
<g opacity="0.4">
<path opacity="0.4" d="M214.838 247.424C215.868 247.424 216.703 246.095 216.703 244.456C216.703 242.817 215.868 241.489 214.838 241.489C213.808 241.489 212.973 242.817 212.973 244.456C212.973 246.095 213.808 247.424 214.838 247.424Z" fill="#F9A948"/>
<path opacity="0.4" d="M223.432 237.481C223.614 236.469 222.958 235.285 221.967 234.835C220.977 234.386 220.026 234.84 219.845 235.851C219.664 236.862 220.32 238.046 221.31 238.496C222.301 238.946 223.251 238.491 223.432 237.481Z" fill="#F9A948"/>
<path opacity="0.4" d="M208.433 251.557C208.84 251.557 209.171 251.031 209.171 250.382C209.171 249.732 208.84 249.206 208.433 249.206C208.024 249.206 207.693 249.732 207.693 250.382C207.693 251.031 208.024 251.557 208.433 251.557Z" fill="#F9A948"/>
</g>
<path d="M186.366 273.084C188.387 273.084 190.026 271.078 190.026 268.604C190.026 266.132 188.387 264.126 186.366 264.126C184.344 264.126 182.706 266.132 182.706 268.604C182.706 271.078 184.344 273.084 186.366 273.084Z" fill="#F9A948"/>
<path d="M188.759 259.977C189.459 259.977 190.026 259.076 190.026 257.962C190.026 256.848 189.459 255.946 188.759 255.946C188.059 255.946 187.491 256.848 187.491 257.962C187.491 259.076 188.059 259.977 188.759 259.977Z" fill="#F9A948"/>
<path d="M177.846 271.454C178.819 271.454 179.606 270.2 179.606 268.654C179.606 267.108 178.819 265.855 177.846 265.855C176.875 265.855 176.087 267.108 176.087 268.654C176.087 270.2 176.875 271.454 177.846 271.454Z" fill="#F9A948"/>
<path opacity="0.45" d="M180.628 261.092C181.172 261.092 181.614 260.39 181.614 259.524C181.614 258.657 181.172 257.956 180.628 257.956C180.084 257.956 179.643 258.657 179.643 259.524C179.643 260.39 180.084 261.092 180.628 261.092Z" fill="#F9A948"/>
<path d="M94.3271 156.769C93.5536 156.771 92.7837 156.601 92.0392 156.265L35.1971 131.517C35.044 131.452 34.9005 131.34 34.775 131.185C34.6495 131.033 34.5445 130.84 34.4659 130.621C34.3873 130.403 34.3368 130.161 34.3173 129.911C34.2979 129.662 34.3097 129.408 34.3523 129.165C34.3931 128.921 34.4638 128.693 34.5604 128.494C34.657 128.294 34.7775 128.126 34.915 128.002C35.0525 127.877 35.2042 127.796 35.3614 127.766C35.5186 127.735 35.678 127.753 35.8305 127.822L92.6023 152.346C93.6657 152.837 94.7955 152.841 95.8604 152.355C96.9253 151.87 97.8824 150.915 98.621 149.602L131.671 90.5299C131.896 90.2164 132.185 90.0442 132.485 90.0455C132.784 90.0469 133.073 90.2218 133.297 90.5375C133.521 90.8531 133.666 91.2879 133.703 91.7605C133.741 92.2332 133.669 92.7113 133.5 93.1055L100.416 152.122C99.6634 153.535 98.7325 154.679 97.6828 155.479C96.634 156.28 95.4904 156.719 94.3271 156.769Z" fill="#F9A948"/>
<path d="M179.502 157.387C178.483 157.374 177.479 156.995 176.564 156.277C175.65 155.559 174.849 154.522 174.223 153.243L140.962 92.2665C140.752 91.8804 140.647 91.3774 140.671 90.8681C140.693 90.3588 140.842 89.885 141.086 89.5509C141.328 89.2167 141.644 89.0496 141.964 89.0864C142.285 89.1232 142.583 89.3607 142.792 89.7468L175.982 150.723C176.563 151.966 177.382 152.873 178.315 153.308C179.249 153.742 180.247 153.68 181.156 153.131L237.893 128.774C238.201 128.64 238.53 128.707 238.807 128.958C239.084 129.211 239.287 129.628 239.371 130.117C239.456 130.607 239.413 131.131 239.255 131.571C239.096 132.013 238.834 132.336 238.527 132.469L181.79 156.77C181.049 157.145 180.279 157.352 179.502 157.387Z" fill="#F9A948"/>
<path d="M5.70165 108.459C5.23746 108.448 4.79469 108.147 4.46978 107.619C4.30692 107.368 4.17742 107.068 4.08898 106.736C4.00053 106.405 3.95496 106.048 3.95496 105.687C3.95496 105.327 4.00053 104.97 4.08898 104.638C4.17742 104.306 4.30692 104.006 4.46978 103.756L37.132 52.7461C38.2074 51.0679 39.5377 49.8609 40.9933 49.2427C42.4488 48.6246 43.9802 48.6162 45.4384 49.2187L124.595 82.8144C124.815 82.91 125.02 83.0733 125.2 83.2954C125.38 83.5173 125.53 83.7935 125.643 84.108C125.756 84.4226 125.829 84.7694 125.857 85.1287C125.886 85.4879 125.87 85.8527 125.809 86.2019C125.749 86.5512 125.647 86.8782 125.507 87.1643C125.368 87.4504 125.194 87.6899 124.996 87.8693C124.798 88.0487 124.58 88.1644 124.354 88.2098C124.129 88.2551 123.899 88.2292 123.68 88.1336L44.5232 54.538C43.6542 54.1669 42.7394 54.163 41.8691 54.5263C40.9988 54.8895 40.2031 55.6076 39.5606 56.6096L7.03911 107.675C6.86047 107.942 6.65006 108.148 6.42032 108.283C6.19058 108.417 5.94621 108.477 5.70165 108.459Z" fill="#FFEBD2"/>
<path d="M149.197 87.7989C148.929 87.7983 148.669 87.6545 148.459 87.3905C148.247 87.1265 148.099 86.7576 148.036 86.3431C147.993 86.1004 147.981 85.8467 148 85.5967C148.02 85.3467 148.071 85.1053 148.149 84.8865C148.228 84.6677 148.333 84.4759 148.459 84.3223C148.584 84.1686 148.727 84.0561 148.88 83.9913L228.037 50.3957C228.189 50.3279 228.349 50.309 228.506 50.3399C228.664 50.371 228.815 50.4513 228.953 50.5763C229.09 50.7014 229.211 50.8685 229.308 51.0681C229.404 51.2678 229.474 51.4961 229.515 51.7395C229.557 51.9859 229.568 52.2432 229.546 52.4962C229.525 52.7493 229.471 52.9926 229.388 53.2121C229.307 53.4315 229.198 53.6224 229.068 53.7734C228.939 53.9244 228.792 54.0325 228.635 54.0912L149.514 87.6869L149.197 87.7989Z" fill="#FFEBD2"/>
<path d="M95.0307 153.813C94.7503 153.867 94.4669 153.867 94.1857 153.813L2.46439 114.618C1.91831 114.385 1.42075 113.926 1.02224 113.288C0.623737 112.65 0.338492 111.856 0.195487 110.985C0.0524833 110.115 0.056818 109.2 0.20805 108.334C0.359282 107.467 0.65202 106.679 1.05653 106.051L40.1245 45.4668C40.3004 45.1828 40.5179 44.9725 40.7576 44.8553C40.9971 44.738 41.2513 44.7173 41.4972 44.7949L133.465 82.982C133.703 83.0907 133.92 83.2905 134.098 83.5638C134.276 83.8371 134.409 84.1757 134.486 84.5497C134.556 84.9316 134.567 85.3347 134.518 85.7246C134.469 86.1147 134.361 86.48 134.205 86.7896L115.339 120.386C115.083 120.846 114.721 121.125 114.335 121.162C113.949 121.198 113.57 120.989 113.28 120.581C112.991 120.172 112.815 119.599 112.792 118.983C112.769 118.369 112.9 117.766 113.157 117.306L130.474 86.5656L41.5675 49.6662L3.13311 109.019V109.859L94.8551 149.054L105.414 130.52C105.67 130.067 106.029 129.795 106.413 129.764C106.796 129.732 107.17 129.943 107.455 130.352C107.74 130.76 107.911 131.331 107.931 131.941C107.95 132.55 107.818 133.146 107.561 133.599L97.4949 152.133C97.1845 152.68 96.8036 153.113 96.3782 153.403C95.9528 153.692 95.4932 153.833 95.0307 153.813Z" fill="#3E3126"/>
<path d="M36.2768 73.9183C37.3658 71.2456 37.1378 67.9335 35.7677 66.5205C34.3975 65.1078 32.4039 66.1291 31.315 68.802C30.226 71.4748 30.4539 74.7868 31.8241 76.1998C33.1942 77.6127 35.1878 76.5912 36.2768 73.9183Z" fill="white"/>
<path d="M38.2592 67.7527C38.7063 67.7527 39.0688 67.1761 39.0688 66.4648C39.0688 65.7535 38.7063 65.1769 38.2592 65.1769C37.8122 65.1769 37.4497 65.7535 37.4497 66.4648C37.4497 67.1761 37.8122 67.7527 38.2592 67.7527Z" fill="white"/>
<path d="M32.3815 81.8547C32.9453 81.8547 33.4022 81.1276 33.4022 80.2309C33.4022 79.3341 32.9453 78.6071 32.3815 78.6071C31.8178 78.6071 31.3609 79.3341 31.3609 80.2309C31.3609 81.1276 31.8178 81.8547 32.3815 81.8547Z" fill="white"/>
<path d="M18.2671 98.1638C19.2779 98.1638 20.0973 96.8602 20.0973 95.2521C20.0973 93.6441 19.2779 92.3406 18.2671 92.3406C17.2563 92.3406 16.4369 93.6441 16.4369 95.2521C16.4369 96.8602 17.2563 98.1638 18.2671 98.1638Z" fill="white"/>
<path d="M137.267 304.438C137.03 304.438 136.803 304.293 136.632 304.031C136.461 303.77 136.361 303.414 136.352 303.038V188.197C136.352 187.811 136.448 187.44 136.62 187.168C136.792 186.894 137.024 186.741 137.267 186.741C137.51 186.741 137.742 186.894 137.914 187.168C138.085 187.44 138.182 187.811 138.182 188.197V303.038C138.173 303.414 138.072 303.77 137.902 304.031C137.731 304.293 137.503 304.438 137.267 304.438Z" fill="#3E3126"/>
<path d="M137.267 175.432C137.03 175.432 136.803 175.288 136.632 175.026C136.461 174.765 136.361 174.409 136.352 174.033V167.986C136.352 167.599 136.448 167.229 136.62 166.956C136.792 166.684 137.024 166.53 137.267 166.53C137.51 166.53 137.742 166.684 137.914 166.956C138.085 167.229 138.182 167.599 138.182 167.986V174.256C138.141 174.592 138.026 174.895 137.859 175.109C137.691 175.325 137.482 175.439 137.267 175.432Z" fill="#3E3126"/>
<path d="M137.267 151.523C137.147 151.523 137.028 151.486 136.917 151.413C136.806 151.34 136.705 151.232 136.62 151.097C136.535 150.962 136.468 150.801 136.422 150.625C136.375 150.448 136.352 150.259 136.352 150.068V107.905C136.352 107.519 136.448 107.149 136.62 106.876C136.792 106.603 137.024 106.45 137.267 106.45C137.51 106.45 137.742 106.603 137.914 106.876C138.085 107.149 138.182 107.519 138.182 107.905V150.068C138.182 150.454 138.085 150.825 137.914 151.097C137.742 151.37 137.51 151.523 137.267 151.523Z" fill="#3E3126"/>
<path d="M108.3 236.07H108.089L82.6771 226.44C82.4783 226.364 82.3013 226.186 82.1731 225.932C82.0456 225.678 81.975 225.364 81.9728 225.04V209.417C81.9728 209.031 82.0697 208.662 82.2408 208.388C82.4127 208.115 82.6451 207.962 82.8884 207.962C83.1309 207.962 83.3633 208.115 83.5352 208.388C83.7071 208.662 83.8032 209.031 83.8032 209.417V223.976L107.385 232.935V196.876L83.8032 187.916V196.651C83.8032 197.038 83.7071 197.408 83.5352 197.681C83.3633 197.953 83.1309 198.108 82.8884 198.108C82.6451 198.108 82.4127 197.953 82.2408 197.681C82.0697 197.408 81.9728 197.038 81.9728 196.651V186.069C81.9757 185.852 82.0085 185.639 82.0697 185.446C82.1301 185.252 82.2175 185.082 82.3246 184.948C82.4346 184.82 82.5606 184.727 82.6939 184.68C82.8272 184.631 82.9649 184.627 83.0989 184.669L108.511 194.355C108.719 194.46 108.896 194.683 109.007 194.983C109.118 195.284 109.154 195.639 109.109 195.979V234.894C109.107 235.111 109.073 235.324 109.013 235.518C108.952 235.711 108.864 235.882 108.757 236.015C108.609 236.087 108.453 236.105 108.3 236.07Z" fill="#3E3126"/>
<path d="M44.4883 179.734C44.2456 179.734 44.0128 179.581 43.8412 179.308C43.6696 179.034 43.5732 178.664 43.5732 178.279V163.328C43.5732 162.942 43.6696 162.571 43.8412 162.299C44.0128 162.025 44.2456 161.872 44.4883 161.872C44.731 161.872 44.9637 162.025 45.1354 162.299C45.307 162.571 45.4034 162.942 45.4034 163.328V178.279C45.4034 178.664 45.307 179.034 45.1354 179.308C44.9637 179.581 44.731 179.734 44.4883 179.734Z" fill="white"/>
<path d="M179.255 154.37C178.755 154.369 178.262 154.199 177.806 153.87C177.352 153.542 176.945 153.063 176.615 152.467L139.906 87.1785C139.701 86.8217 139.558 86.3867 139.49 85.9158C139.422 85.4447 139.432 84.9539 139.519 84.4908C139.612 84.023 139.776 83.5991 139.997 83.2571C140.218 82.9151 140.489 82.6656 140.786 82.5311L232.754 44.344C233.052 44.2311 233.362 44.2386 233.657 44.3657C233.952 44.493 234.222 44.7357 234.444 45.0719L273.441 105.32C273.906 106.026 274.239 106.922 274.407 107.909C274.574 108.896 274.569 109.937 274.391 110.919C274.232 111.874 273.917 112.744 273.478 113.442C273.039 114.14 272.492 114.642 271.893 114.895L180.171 154.09C179.877 154.262 179.568 154.357 179.255 154.37ZM144.482 86.8426L179.255 148.435L270.977 109.24L232.684 50.3912L144.482 86.8426Z" fill="#3E3126"/>
<path d="M110.341 129C111.468 129 112.383 127.546 112.383 125.753C112.383 123.959 111.468 122.505 110.341 122.505C109.214 122.505 108.3 123.959 108.3 125.753C108.3 127.546 109.214 129 110.341 129Z" fill="#3E3126"/>
<path d="M101.049 113.487C100.93 113.439 100.821 113.342 100.733 113.207C100.635 113.096 100.553 112.955 100.491 112.792C100.429 112.629 100.388 112.448 100.371 112.259C100.355 112.07 100.363 111.878 100.395 111.695C100.427 111.511 100.481 111.34 100.556 111.191L108.475 95.1769C108.625 94.8651 108.846 94.6605 109.09 94.608C109.335 94.5554 109.582 94.6594 109.778 94.897C109.974 95.1346 110.103 95.4863 110.135 95.8749C110.169 96.2634 110.103 96.6569 109.954 96.9688L102.07 112.927C101.963 113.187 101.805 113.384 101.62 113.485C101.436 113.586 101.235 113.587 101.049 113.487Z" fill="#3E3126"/>
<path d="M109.108 107.401C108.994 107.454 108.872 107.454 108.757 107.401C108.575 107.16 108.457 106.82 108.424 106.447C108.391 106.074 108.447 105.696 108.581 105.385L112.628 96.4262C112.713 96.289 112.815 96.1802 112.927 96.1058C113.038 96.0315 113.158 95.9933 113.279 95.9933C113.401 95.9933 113.52 96.0315 113.633 96.1058C113.744 96.1802 113.845 96.289 113.93 96.4262C114.115 96.6766 114.235 97.0263 114.268 97.4085C114.3 97.7908 114.243 98.1786 114.107 98.4979L109.848 107.121C109.747 107.256 109.628 107.352 109.499 107.4C109.371 107.449 109.237 107.449 109.108 107.401Z" fill="#3E3126"/>
</g>
</svg>
