<svg width="218" height="272" viewBox="0 0 218 272" fill="none" xmlns="http://www.w3.org/2000/svg">
<path d="M144.853 49.3771C146.385 48.1949 148.165 47.5549 149.988 47.5302C150.304 47.5302 150.612 47.5511 150.916 47.5838C150.786 46.9354 150.625 46.1741 150.418 45.3473C149.765 44.9554 149.197 44.3864 148.759 43.6861C148.322 42.9854 148.027 42.1723 147.899 41.3116C147.665 41.3601 147.428 41.3851 147.19 41.386C146.343 41.3892 145.514 41.0978 144.803 40.5473C144.629 40.5021 144.457 40.4444 144.288 40.3748C144.066 40.4218 143.841 40.4468 143.615 40.4492C142.465 40.4569 141.359 39.9228 140.536 38.9622L138.38 39.8544C138.38 39.8544 143.91 43.1912 144.853 49.3771Z" fill="#3FBDF1"/>
<path d="M145.497 243.064C145.496 247.807 143.92 252.356 141.115 255.71C138.311 259.065 134.508 260.95 130.542 260.952H59.3477C55.3811 260.951 51.5775 259.065 48.7725 255.711C45.9677 252.357 44.3914 247.808 44.3901 243.064V57.2635C44.3889 54.9132 44.7748 52.5854 45.5258 50.4135C46.2768 48.2419 47.3784 46.268 48.7675 44.6056C50.1566 42.9428 51.8057 41.6239 53.6213 40.7239C55.4366 39.8237 57.3824 39.3604 59.3477 39.3601H68.8618C70.5739 39.3606 72.2158 40.1734 73.4274 41.6203C74.5382 42.9401 75.2039 44.7025 75.2974 46.572C75.3113 46.7269 75.318 46.8828 75.3173 47.0389C75.3173 47.1727 75.3173 47.3036 75.3173 47.4345C75.3635 48.5684 75.6092 49.678 76.0384 50.691C76.0508 50.7148 76.0583 50.7475 76.0707 50.7713C76.5907 51.99 77.3832 53.0122 78.36 53.7247C79.3368 54.4373 80.4595 54.8117 81.6036 54.807H108.104C108.954 54.8085 109.795 54.6092 110.58 54.2208C111.365 53.8324 112.077 53.2626 112.677 52.5438C113.136 51.9957 113.52 51.3643 113.814 50.6731C113.826 50.6603 113.836 50.644 113.841 50.6255C114.278 49.6346 114.522 48.5387 114.555 47.4196C114.555 47.3214 114.555 47.2322 114.555 47.1222C114.575 42.8664 117.29 39.3511 120.854 39.3511H128.888L137.343 39.2262C137.515 37.2931 138.203 35.2589 138.915 33.4626C139.152 32.8408 139.432 32.2439 139.753 31.6782H59.9569C57.3807 31.6776 54.8296 32.2843 52.4493 33.4632C50.069 34.6421 47.9061 36.3703 46.0843 38.549C44.2628 40.7278 42.8178 43.3143 41.8321 46.161C40.8461 49.0077 40.339 52.0587 40.3393 55.1401V247.198C40.3385 250.279 40.8456 253.33 41.8313 256.177C42.8168 259.024 44.2618 261.611 46.0838 263.789C47.9056 265.968 50.0683 267.696 52.4488 268.875C54.8293 270.054 57.3804 270.66 59.9569 270.66H132.096C134.673 270.66 137.224 270.053 139.604 268.874C141.985 267.695 144.147 265.967 145.969 263.789C147.791 261.61 149.237 259.023 150.223 256.177C151.209 253.33 151.716 250.279 151.716 247.198V233.972L145.499 238.21L145.497 243.064Z" fill="#3FBDF1"/>
<path d="M147.665 95.8397C146.919 94.9208 146.198 96.3483 145.497 95.3728V166.044C145.935 164.114 146.476 162.22 147.116 160.372C147.26 159.968 147.404 159.561 147.554 159.159C147.869 158.329 148.2 157.511 148.548 156.7C148.643 156.468 148.74 156.248 148.842 156.027C148.944 155.807 149.068 155.525 149.185 155.287C149.384 154.853 149.598 154.418 149.816 153.993C149.966 153.672 150.132 153.363 150.296 153.05C150.418 152.804 150.545 152.566 150.679 152.337C150.824 152.057 150.98 151.781 151.132 151.51C151.318 151.174 151.515 150.838 151.709 150.508V100.167C150.963 99.471 150.217 98.7394 149.516 97.9869C148.876 97.297 148.26 96.5832 147.665 95.8397Z" fill="#3FBDF1"/>
<path d="M151.122 46.7178C150.262 48.0144 149.195 46.926 147.807 46.926C146.544 46.926 145.818 49.3706 145.017 48.3862C145.062 48.517 144.612 50.468 144.649 50.5988C144.771 50.9914 144.88 51.4018 144.977 51.8122V51.8271C145.102 52.3535 145.196 52.8769 145.278 53.4182C145.298 53.5401 145.32 53.6739 145.333 53.8048C145.368 54.0814 145.403 54.3699 145.422 54.6554C145.45 54.9201 145.465 55.1859 145.47 55.4524C145.492 55.7498 145.497 56.074 145.497 56.3952V77.2131C145.7 77.4159 145.869 77.6631 145.994 77.9417C146.989 80.1128 147.941 78.486 149.006 80.6183C149.573 81.7187 150.746 82.5782 151.348 81.7812C151.57 81.4838 151.706 80.2109 151.706 79.7351V54.581C151.706 53.3867 151.632 52.1938 151.485 51.0122C151.44 50.5631 151.201 47.1728 151.122 46.7178Z" fill="#3FBDF1"/>
<path d="M75.3247 46.6317C75.7751 47.6337 76.022 48.748 76.0459 49.8853C75.6169 48.8735 75.3712 47.7648 75.3247 46.6317Z" fill="#3FBDF1"/>
<path d="M114.555 46.6129C114.522 47.7323 114.278 48.8282 113.841 49.8189C113.889 48.7024 114.132 47.6104 114.555 46.6129Z" fill="#3FBDF1"/>
<path d="M209.753 137.353C185.995 146.224 173.714 124.496 173.714 124.496C174.611 122.905 173.254 119.913 173.254 119.913L172.428 114.857C161.932 114.242 152.435 102.007 152.435 102.007C166.015 99.128 160.161 89.4001 160.161 89.4001L169.524 98.1674L170.538 98.0604C170.662 82.893 178.647 75.8089 181.149 73.4089C183.65 71.0089 184.078 73.3911 184.078 73.3911C184.078 73.3911 182.979 78.2446 187.669 78.9168C192.359 79.5889 195.793 74.3338 195.793 74.3338C197.402 70.0215 199.255 72.6952 199.255 72.6952C207.294 77.8104 208.749 90.4678 210.475 99.3124C211.666 105.373 213.934 118.435 215.448 124.8C215.978 127.002 215.872 129.354 215.147 131.476C214.664 132.869 213.93 134.118 212.998 135.133C212.066 136.149 210.958 136.907 209.753 137.353Z" fill="#353642"/>
<path d="M209.753 137.353C185.995 146.224 173.714 124.496 173.714 124.496C174.611 122.905 173.254 119.913 173.254 119.913L172.428 114.857C161.932 114.242 152.435 102.007 152.435 102.007C161.432 96.6269 160.161 89.4001 160.161 89.4001L169.524 98.1674L170.538 98.0604C170.662 82.893 178.647 75.8089 181.149 73.4089C183.65 71.0089 184.078 73.3911 184.078 73.3911C184.078 73.3911 182.979 78.2446 187.669 78.9168C192.359 79.5889 195.793 74.3338 195.793 74.3338C197.402 70.0215 199.255 72.6952 199.255 72.6952C207.294 77.8104 208.749 90.4678 210.475 99.3124C211.666 105.373 213.934 118.435 215.448 124.8C215.978 127.002 215.872 129.354 215.147 131.476C214.664 132.869 213.93 134.118 212.998 135.133C212.066 136.149 210.958 136.907 209.753 137.353Z" fill="#353642"/>
<path d="M181.751 60.7616C183.235 60.7616 184.439 59.3221 184.439 57.5467C184.439 55.7709 183.235 54.3318 181.751 54.3318C180.266 54.3318 179.063 55.7709 179.063 57.5467C179.063 59.3221 180.266 60.7616 181.751 60.7616Z" fill="#D7E8F0"/>
<path d="M185.414 64.0204C185.18 66.0784 183.72 67.4226 182.198 67.1252" stroke="black" stroke-width="4.13" stroke-miterlimit="10"/>
<path d="M167.395 46.0929C167.651 47.4919 168.267 48.7594 169.157 49.717C170.047 50.6749 171.166 51.2745 172.356 51.4312C172.465 50.8593 172.689 50.3276 173.007 49.8818C174.365 48.0349 174.88 51.568 179.177 49.1442C185.145 45.7747 187.341 47.8386 187.341 47.8386C187.535 48.02 187.485 49.6438 187.507 49.9204C187.637 51.6007 187.756 53.2751 187.903 54.9554C187.987 55.9785 188.069 56.9956 188.151 58.0127C188.235 57.8432 188.326 57.6793 188.425 57.522C189.002 55.2588 190.606 52.6089 192.652 53.8164C193.068 54.0698 193.428 54.4376 193.702 54.89C195.037 57.0788 193.95 59.1368 192.501 60.6447C192.133 61.1145 191.723 61.5354 191.28 61.8997C191.506 62.4945 192.434 64.832 192.434 64.841C192.528 65.0789 195.977 60.5941 196.236 60.1034C196.632 58.8939 196.855 57.613 196.895 56.3145C197.039 50.9792 195.326 44.7159 191.76 41.5754C190.877 40.7962 190.568 40.0587 190.516 39.0267C190.514 38.9711 190.497 38.9178 190.468 38.8738C190.439 38.8298 190.4 38.7971 190.356 38.7801C190.312 38.7632 190.264 38.7626 190.22 38.7784C190.175 38.7941 190.135 38.8259 190.106 38.8691C188.947 40.4036 186.145 40.1806 186.145 40.1806C176.447 37.0341 173.099 42.1315 171.125 43.0029C170.321 43.3464 169.442 43.3464 168.638 43.0029C168.586 43.3232 168.461 43.62 168.277 43.8612C168.093 44.1024 167.858 44.2788 167.596 44.371L167.639 44.9122C167.674 45.3277 167.588 45.7449 167.395 46.0929Z" fill="#3FBDF1"/>
<path d="M188.204 67.9487C187.565 68.5435 185.779 70.2566 185.065 70.7651C184.542 71.1434 183.992 71.4667 183.422 71.7317C179.13 73.6677 175.106 69.2662 173.632 64.8617C172.418 61.2305 172.14 57.1739 172.227 53.2959C172.241 52.8944 172.254 52.484 172.281 52.0735C172.278 52.0489 172.278 52.0236 172.281 51.9992C172.294 51.8121 172.318 51.6263 172.351 51.4431C172.459 50.8706 172.683 50.3385 173.002 49.8936C174.358 48.0497 174.872 51.5828 179.169 49.1561C185.138 45.7865 187.336 47.8505 187.336 47.8505C187.527 48.0319 187.478 49.6557 187.5 49.9323C187.629 51.6156 187.749 53.2869 187.898 54.9672C187.98 55.9933 188.062 57.0074 188.146 58.0245C188.166 58.3041 188.189 58.5747 188.209 58.8513C188.239 58.4013 188.31 57.9564 188.42 57.5249C188.997 55.2617 190.601 52.6148 192.647 53.8193C193.063 54.0727 193.423 54.4405 193.697 54.8929C195.032 57.0818 193.945 59.1398 192.496 60.6476C192.128 61.025 191.739 61.3726 191.332 61.6885L191.222 61.7717L191.277 61.9026C191.503 62.4974 192.429 64.8379 192.429 64.8439C192.523 65.0818 195.972 60.6 196.233 60.1063C197.132 58.448 197.694 56.5622 197.877 54.5985C197.899 54.3516 197.912 54.1137 197.919 53.8669C198.063 48.5315 196.35 42.2683 192.784 39.1277C191.899 38.3486 191.591 37.611 191.541 36.579C191.538 36.5234 191.521 36.4702 191.493 36.4262C191.464 36.3822 191.425 36.3494 191.381 36.3325C191.336 36.3152 191.289 36.3146 191.244 36.3307C191.199 36.3465 191.16 36.378 191.13 36.4214C189.972 37.956 187.167 37.7329 187.167 37.7329C177.481 34.5865 174.121 39.6839 172.149 40.5553C170.178 41.4266 168.447 39.8177 168.447 39.8177L168.653 42.4556C168.667 42.6365 168.658 42.8191 168.626 42.9969C168.573 43.3169 168.449 43.6137 168.265 43.8549C168.081 44.0961 167.845 44.2725 167.584 44.365C167.485 44.4081 167.381 44.4331 167.276 44.4393H167.198C167.217 44.9886 167.277 45.5352 167.377 46.072C167.634 47.4731 168.252 48.7421 169.145 49.7C170.037 50.6582 171.159 51.2563 172.351 51.4103" stroke="black" stroke-width="4.13" stroke-miterlimit="10"/>
<path d="M173.716 60.4453C175.201 60.4453 176.404 59.0059 176.404 57.2304C176.404 55.4549 175.201 54.0155 173.716 54.0155C172.232 54.0155 171.028 55.4549 171.028 57.2304C171.028 59.0059 172.232 60.4453 173.716 60.4453Z" fill="#D7E8F0"/>
<path d="M182.872 58.7476C182.874 59.009 182.81 59.2653 182.69 59.4836C182.569 59.7019 182.397 59.8726 182.196 59.9737C181.994 60.0752 181.772 60.1025 181.557 60.0526C181.343 60.0026 181.145 59.8777 180.99 59.6933C180.835 59.5089 180.729 59.2737 180.686 59.0173C180.643 58.761 180.664 58.4951 180.747 58.2533C180.831 58.0115 180.972 57.8048 181.154 57.6591C181.336 57.5137 181.549 57.436 181.768 57.436C181.875 57.4334 181.982 57.4524 182.084 57.4925C182.031 57.5529 181.988 57.6252 181.959 57.7055C181.929 57.7855 181.914 57.872 181.912 57.9595C181.914 58.1281 181.97 58.289 182.071 58.4076C182.171 58.5263 182.306 58.5929 182.447 58.5929C182.518 58.5926 182.588 58.5748 182.653 58.5403C182.718 58.5061 182.777 58.4561 182.825 58.3937C182.857 58.5076 182.873 58.6271 182.872 58.7476Z" fill="black"/>
<path d="M175.056 58.3163C175.056 58.5762 174.991 58.8299 174.87 59.0455C174.749 59.2614 174.577 59.4294 174.377 59.5285C174.176 59.6275 173.955 59.6534 173.742 59.6025C173.529 59.5517 173.334 59.4265 173.18 59.243C173.027 59.0592 172.922 58.8254 172.879 58.5705C172.837 58.316 172.858 58.0519 172.941 57.8119C173.024 57.5716 173.165 57.3664 173.345 57.2215C173.525 57.077 173.738 56.9994 173.955 56.9988C174.098 56.9979 174.24 57.0312 174.373 57.0969C174.298 57.1567 174.236 57.237 174.193 57.3313C174.149 57.4253 174.126 57.5308 174.124 57.6382C174.124 57.7218 174.138 57.8042 174.165 57.8812C174.193 57.9582 174.232 58.0278 174.282 58.0864C174.331 58.145 174.39 58.1914 174.455 58.2226C174.52 58.2538 174.589 58.2696 174.659 58.2687C174.727 58.2699 174.796 58.2544 174.859 58.2232C174.923 58.192 174.981 58.1459 175.029 58.0873C175.046 58.1622 175.055 58.239 175.056 58.3163Z" fill="black"/>
<path d="M177.784 57.4949C177.784 57.4949 177.096 61.1559 177.013 61.5246C176.765 62.7142 178.739 62.3455 178.739 62.3455" stroke="black" stroke-width="4.13" stroke-miterlimit="10"/>
<path d="M180.311 50.5843C180.311 50.5843 183.556 49.13 185.361 52.0445" stroke="black" stroke-width="4.13" stroke-miterlimit="10"/>
<path d="M169.524 53.4957C169.524 53.4957 171.195 49.8645 174.149 50.6704" stroke="black" stroke-width="4.13" stroke-miterlimit="10"/>
<path d="M181.751 61.344C183.505 61.344 184.926 59.6435 184.926 57.5462C184.926 55.4486 183.505 53.7484 181.751 53.7484C179.997 53.7484 178.575 55.4486 178.575 57.5462C178.575 59.6435 179.997 61.344 181.751 61.344Z" stroke="black" stroke-width="4.13" stroke-miterlimit="10"/>
<path d="M173.716 61.0281C175.47 61.0281 176.892 59.3278 176.892 57.2303C176.892 55.1327 175.47 53.4325 173.716 53.4325C171.962 53.4325 170.541 55.1327 170.541 57.2303C170.541 59.3278 171.962 61.0281 173.716 61.0281Z" stroke="black" stroke-width="4.13" stroke-miterlimit="10"/>
<path d="M173.714 54.649H173.786C174.357 54.66 174.902 54.9422 175.3 55.4335C175.698 55.9251 175.916 56.5854 175.907 57.2691C175.898 57.9531 175.662 58.6044 175.251 59.0802C174.84 59.5558 174.288 59.8169 173.716 59.8059H173.649C173.077 59.7949 172.532 59.5127 172.135 59.0214C171.737 58.5301 171.519 57.8698 171.528 57.1858C171.537 56.5021 171.773 55.8505 172.184 55.3746C172.595 54.8991 173.147 54.638 173.719 54.649H173.714ZM173.719 54.0334C173.01 54.0197 172.326 54.343 171.817 54.9321C171.308 55.5213 171.016 56.3284 171.004 57.1754C170.993 58.0224 171.263 58.8405 171.756 59.4493C172.248 60.0581 172.923 60.4078 173.632 60.4215H173.721C174.429 60.4352 175.113 60.1119 175.622 59.5228C176.131 58.9336 176.424 58.1268 176.435 57.2795C176.447 56.4325 176.176 55.6144 175.684 55.0056C175.191 54.3971 174.516 54.0471 173.808 54.0334H173.719Z" fill="white"/>
<path d="M178.575 57.4198L176.889 57.3556" stroke="black" stroke-width="4.13" stroke-miterlimit="10"/>
<path d="M180.957 193.482L177.585 218.184L173.932 217.529C173.141 217.38 172.431 216.865 171.955 216.095C171.479 215.325 171.276 214.361 171.389 213.413L171.66 210.763L174.146 188.964C178.195 191.801 180.957 193.482 180.957 193.482Z" fill="#3FBDF1"/>
<path d="M164.274 225.407L151.716 234.032L145.499 238.311L143.595 239.623C143.598 239.58 143.598 239.536 143.595 239.492L142.103 240.509L140.183 236.099C139.735 235.08 139.639 233.892 139.918 232.791C140.197 231.689 140.827 230.763 141.672 230.213L163.431 215.965L163.451 216.203L164.274 225.407Z" fill="#3FBDF1"/>
<path d="M145.91 164.363C145.773 164.143 145.636 163.929 145.497 163.741C144.709 162.608 143.935 161.847 143.413 160.559C142.997 159.511 142.877 158.329 143.071 157.192C143.265 156.054 143.763 155.024 144.49 154.254C144.791 153.944 145.125 153.685 145.485 153.484" stroke="black" stroke-width="4.13" stroke-miterlimit="10"/>
<path d="M172.391 203.986L171.66 210.758L171.379 213.407C171.266 214.356 171.469 215.319 171.945 216.089C172.421 216.859 173.131 217.374 173.922 217.523L177.575 218.178L180.947 193.476C180.947 193.476 178.185 191.795 174.141 188.952C171.249 186.918 167.676 184.286 164.01 181.253" stroke="black" stroke-width="4.13" stroke-miterlimit="10"/>
<path d="M171.769 209.836C171.769 209.836 167.825 207.293 162.817 203.632" stroke="black" stroke-width="4.13" stroke-miterlimit="10"/>
<g opacity="0.68">
<path opacity="0.68" d="M145.497 95.7496V166.043C144.408 170.855 143.888 175.857 143.612 180.889V95.9281C144.224 96.8797 144.853 94.8396 145.497 95.7496Z" fill="#D7E8F0"/>
<path opacity="0.68" d="M145.497 238.211V242.252C145.496 246.996 143.92 251.545 141.115 254.899C138.311 258.253 134.508 260.139 130.542 260.141H59.3477C55.3811 260.139 51.5774 258.254 48.7724 254.9C45.9677 251.546 44.3914 246.996 44.3901 242.252V56.452C44.3889 54.1017 44.7748 51.7742 45.5258 49.6023C46.2768 47.4304 47.3784 45.4569 48.7675 43.7941C50.1566 42.1317 51.8057 40.8127 53.6213 39.9125C55.4366 39.0125 57.3824 38.5492 59.3477 38.5486H68.8618C69.2984 38.5501 69.7339 38.6018 70.1623 38.7032C70.4488 38.7752 70.7313 38.8686 71.0078 38.9828C71.1296 39.0393 71.2565 39.0958 71.3709 39.1553C71.5648 39.2516 71.7541 39.3608 71.9378 39.4824C72.1589 39.6252 72.3723 39.784 72.5769 39.9583C72.7137 40.0713 72.843 40.1873 72.9673 40.3092C73.0917 40.4311 73.2831 40.6393 73.4274 40.8088L74.422 42.3434C74.5133 42.5263 74.5964 42.7151 74.6707 42.9085L75.0338 44.0059C75.0835 44.2051 75.1308 44.4014 75.1656 44.6007L75.2551 45.2222C75.2675 45.3055 75.275 45.3947 75.2824 45.478C75.2849 45.5187 75.2849 45.5595 75.2824 45.5999C75.2974 45.7962 75.3098 45.9865 75.3098 46.1947V46.275C75.3098 46.3999 75.3098 46.5129 75.3098 46.6289C75.3033 46.6102 75.2941 46.5932 75.2824 46.5784C75.0019 45.9422 74.6414 45.3614 74.2132 44.8564C73.0481 43.4619 71.4676 42.6777 69.8192 42.6765H60.6706C58.7782 42.6777 56.9045 43.125 55.1566 43.9925C53.4087 44.8603 51.8209 46.1314 50.4838 47.7335C49.1469 49.3353 48.0871 51.2365 47.365 53.3287C46.6428 55.4207 46.2723 57.6624 46.2751 59.9257V238.794C46.2751 243.36 47.7914 247.741 50.491 250.971C53.1903 254.201 56.852 256.017 60.6706 256.019H129.219C132.915 256.018 136.47 254.317 139.145 251.267C141.821 248.217 143.413 244.054 143.592 239.638C143.596 239.595 143.596 239.551 143.592 239.507L145.497 238.211Z" fill="#D7E8F0"/>
<path opacity="0.68" d="M113.841 49.8196C113.841 49.9326 113.841 50.0397 113.841 50.1556C113.832 52.1203 113.173 54.0007 112.008 55.386C110.843 56.7713 109.267 57.549 107.625 57.549H82.1035C78.6644 57.549 76.0658 54.1884 76.0508 50.0724C76.0508 50.0069 76.0508 49.9504 76.0508 49.885C76.5644 51.1243 77.3579 52.167 78.3416 52.8944C79.3251 53.6218 80.4595 54.0052 81.6161 54.001H108.104C108.954 54.0025 109.795 53.8032 110.58 53.4148C111.365 53.0264 112.077 52.4566 112.677 51.7378C113.147 51.1751 113.54 50.5277 113.841 49.8196Z" fill="#D7E8F0"/>
</g>
<path d="M151.716 126.102C160.561 123.952 169.148 121.73 173.714 121.805" stroke="black" stroke-width="4.13" stroke-miterlimit="10"/>
<path d="M143.353 187.387C129.945 174.465 117.778 157.891 123.007 143.452C126.153 134.747 135.463 130.004 145.497 127.431" stroke="black" stroke-width="4.13" stroke-miterlimit="10"/>
<path d="M172.493 115.434C172.711 116.377 173.714 121.808 173.96 122.789C174.87 126.331 163.287 135.702 161.325 137.808C157.804 141.564 154.472 145.793 151.716 150.507C149.884 153.582 148.341 156.891 147.116 160.372C146.476 162.219 145.935 164.113 145.497 166.043C144.408 170.855 143.888 175.857 143.612 180.889C143.393 184.702 143.311 188.529 143.222 192.268C143.038 199.441 143.132 206.656 143.525 213.805C143.552 214.257 143.58 214.697 143.612 215.15C143.922 219.395 144.523 223.604 145.41 227.732V227.759" stroke="black" stroke-width="4.13" stroke-miterlimit="10"/>
<path d="M170.779 98.6793C171.155 84.752 176.442 77.3171 181.149 73.4003C182.065 72.6497 183.047 72.0222 184.078 71.5297" stroke="black" stroke-width="4.13" stroke-miterlimit="10"/>
<path d="M196.999 71.4379C197.218 71.536 197.429 71.6431 197.643 71.7501L197.877 71.8721C198.393 72.1412 198.896 72.4452 199.384 72.7821C201.067 73.9292 202.536 75.4745 203.703 77.3234C203.748 77.3757 203.785 77.4373 203.813 77.5048C204.017 77.8498 204.216 78.2007 204.409 78.5636C206.13 81.8349 207.734 86.2513 208.96 91.3517C209.592 93.9685 210.098 96.6267 210.475 99.3131" stroke="black" stroke-width="4.13" stroke-miterlimit="10"/>
<path d="M210.475 99.3098C211.666 105.371 213.936 118.436 215.448 124.797C215.978 127.001 215.872 129.354 215.147 131.477C214.664 132.87 213.93 134.118 212.998 135.134C212.066 136.15 210.958 136.907 209.753 137.353L205.255 138.656C204.784 138.795 204.369 139.125 204.079 139.59C203.058 141.203 201.926 142.711 200.694 144.098C181.233 166.011 157.816 143.328 163.431 215.971L163.451 216.209C163.678 219.117 163.953 222.183 164.274 225.407L151.716 233.972L145.499 238.21L143.602 239.507L142.11 240.524L140.19 236.114C139.738 235.095 139.639 233.904 139.917 232.799C140.194 231.694 140.825 230.765 141.672 230.213L143.612 228.925L145.41 227.736L145.497 227.679L151.714 223.563L153.037 222.671" stroke="black" stroke-width="4.13" stroke-miterlimit="10"/>
<path d="M151.719 233.973V246.383C151.718 252.607 149.65 258.576 145.97 262.977C142.289 267.379 137.298 269.851 132.094 269.851H57.7935C55.2165 269.851 52.6644 269.244 50.2834 268.065C47.9023 266.886 45.7389 265.158 43.9167 262.978C42.0942 260.799 40.6486 258.212 39.6624 255.365C38.6759 252.517 38.1684 249.465 38.1684 246.383V52.999C38.1684 49.9168 38.6759 46.8652 39.6624 44.0176C40.6486 41.1703 42.0942 38.5829 43.9167 36.4039C45.7389 34.2245 47.9023 32.496 50.2834 31.3168C52.6644 30.1376 55.2165 29.531 57.7935 29.5313H141.12" stroke="black" stroke-width="4.13" stroke-miterlimit="10"/>
<path d="M151.716 52.9986C151.718 51.3882 151.582 49.7819 151.311 48.2045C151.311 48.2045 150.948 45.5785 150.6 44.8499" stroke="black" stroke-width="4.13" stroke-miterlimit="10"/>
<path d="M151.716 150.499V126.109V100.673" stroke="black" stroke-width="4.13" stroke-miterlimit="10"/>
<path d="M151.716 53.0015V66.7621V83.1042" stroke="black" stroke-width="4.13" stroke-miterlimit="10"/>
<path d="M171.66 90.4351V90.4143C169.535 89.275 167.531 87.8362 165.691 86.1288C158.013 79.0638 152.977 68.6589 151.679 57.1769C151.646 56.8935 151.616 56.608 151.589 56.3204" stroke="black" stroke-width="4.13" stroke-miterlimit="10"/>
<path d="M145.502 159.203V95.7258" stroke="black" stroke-width="4.13" stroke-miterlimit="10"/>
<path d="M145.502 77.8918V56.4552C145.502 52.5504 145.216 47.9228 143.458 44.9756C143.458 44.9756 139.193 38.5428 134.859 38.5428H121.028" stroke="black" stroke-width="4.13" stroke-miterlimit="10"/>
<path d="M126.601 38.5428H121.028C119.313 38.5428 117.669 39.3574 116.456 40.8075C115.244 42.2577 114.562 44.2244 114.562 46.2752C114.562 48.3258 113.881 50.2928 112.669 51.7426C111.456 53.1927 109.812 54.0076 108.097 54.0076H81.7827C80.0679 54.0076 78.4234 53.1927 77.2109 51.7426C75.9984 50.2928 75.3173 48.3258 75.3173 46.2752C75.3173 44.2244 74.6362 42.2577 73.4236 40.8075C72.2111 39.3574 70.5667 38.5428 68.8518 38.5428H59.3477C55.3776 38.5458 51.571 40.4346 48.7652 43.7937C45.9592 47.1529 44.3839 51.7072 44.3852 56.4552V242.253C44.3872 246.997 45.9642 251.547 48.77 254.902C51.5755 258.257 55.3801 260.142 59.3477 260.144H130.539C134.507 260.142 138.312 258.257 141.117 254.902C143.923 251.547 145.5 246.997 145.502 242.253V238.214" stroke="black" stroke-width="4.13" stroke-miterlimit="10"/>
<path d="M150.187 30.6349C152.895 32.0208 155.424 36.6037 156.652 39.6699C158.93 45.3591 160.917 49.7131 163.615 55.1347C165.925 59.783 168.044 64.818 171.677 68.2202C173.6 70.0469 175.941 71.1327 178.391 71.334" stroke="black" stroke-width="4.13" stroke-miterlimit="10"/>
<path d="M76.6675 38.5479C76.6653 44.9705 75.2083 51.2724 72.4516 56.7844C69.6948 62.2961 65.741 66.8118 61.0105 69.8518C56.2798 72.8919 50.9491 74.3429 45.5842 74.0499C40.2194 73.7573 35.0212 71.732 30.5417 68.1897C24.7365 62.347 21.0194 54.0703 20.1522 45.0556C19.2851 36.0408 21.3334 26.971 25.8776 19.7044C30.4218 12.4377 37.1178 7.52468 44.5931 5.97205C52.0686 4.41945 59.7575 6.34481 66.0841 11.3536C69.4026 14.6862 72.0699 18.8481 73.8983 23.5465C75.7268 28.2448 76.672 33.3654 76.6675 38.5479Z" fill="#3FBDF1"/>
<path d="M73.4348 38.6886C73.4336 44.3772 72.1437 49.9591 69.7025 54.8415C67.2613 59.7239 63.7596 63.724 59.57 66.4169C55.3801 69.1102 50.6584 70.3952 45.9068 70.1362C41.1552 69.8772 36.5508 68.0836 32.5833 64.946C27.4547 59.7668 24.174 52.4406 23.4116 44.4647C22.6494 36.489 24.4632 28.4664 28.4824 22.0366C32.5015 15.6071 38.4223 11.2564 45.0344 9.87394C51.6463 8.49148 58.4502 10.1818 64.055 14.5992C66.995 17.5512 69.3584 21.2378 70.979 25.3996C72.5993 29.5617 73.4378 34.0976 73.4348 38.6886Z" fill="#3FBDF1"/>
<path d="M105.431 116.042L83.7671 119.947C83.2416 120.108 82.6923 120.123 82.1612 119.991C81.63 119.859 81.1312 119.584 80.7027 119.186C80.274 118.789 79.9274 118.279 79.6886 117.696C79.4499 117.114 79.3258 116.474 79.3258 115.825L81.5912 93.5616H113.901C114.165 93.5616 114.418 93.6869 114.604 93.9099C114.791 94.133 114.896 94.4357 114.896 94.7512L111.805 108.699C111.365 110.479 110.547 112.091 109.43 113.378C108.312 114.666 106.934 115.583 105.431 116.042Z" fill="#D7E8F0"/>
<path d="M86.9376 133.311C88.977 133.311 90.6304 131.334 90.6304 128.895C90.6304 126.456 88.977 124.478 86.9376 124.478C84.8983 124.478 83.2449 126.456 83.2449 128.895C83.2449 131.334 84.8983 133.311 86.9376 133.311Z" fill="#D7E8F0"/>
<path d="M100.958 133.311C102.997 133.311 104.65 131.334 104.65 128.895C104.65 126.456 102.997 124.478 100.958 124.478C98.9183 124.478 97.2649 126.456 97.2649 128.895C97.2649 131.334 98.9183 133.311 100.958 133.311Z" fill="#D7E8F0"/>
<path d="M84.523 98.2267L81.1585 97.6884L82.1035 89.2244C82.1634 88.6977 82.1268 88.1612 81.9965 87.653C81.866 87.1444 81.6447 86.676 81.3478 86.2799C81.0511 85.884 80.6858 85.57 80.2772 85.3594C79.8689 85.1489 79.4273 85.0472 78.9827 85.0608L76.0832 85.1501C75.6331 85.1637 75.1969 84.963 74.8706 84.5921C74.5441 84.2213 74.3542 83.7106 74.3425 83.1724C74.3365 82.9062 74.3746 82.6409 74.4544 82.3923C74.534 82.1433 74.6541 81.9158 74.8075 81.7225C74.9607 81.5292 75.1444 81.3737 75.3478 81.2654C75.5515 81.1569 75.7708 81.0977 75.9936 81.0906L78.8956 81.0013C79.9085 80.9633 80.9143 81.2128 81.8307 81.7297C82.7473 82.2468 83.548 83.0165 84.1674 83.9753C84.7041 84.8316 85.0927 85.8067 85.3108 86.8443C85.5292 87.8817 85.5724 88.9609 85.4381 90.0185L84.523 98.2267Z" fill="#D7E8F0"/>
<path d="M121.381 146.249H68.5087C65.5751 146.249 63.1971 149.093 63.1971 152.601V168.997C63.1971 172.506 65.5751 175.35 68.5087 175.35H121.381C124.315 175.35 126.693 172.506 126.693 168.997V152.601C126.693 149.093 124.315 146.249 121.381 146.249Z" fill="#D7E8F0"/>
<path d="M43.4029 192.631C50.2662 190.252 56.1547 181.267 47.9138 173.832C47.6129 173.571 47.3319 173.333 47.0633 173.142C47.5152 172.613 48.0697 172.226 48.6772 172.016C49.2847 171.806 49.9263 171.779 50.5447 171.938C50.5646 171.938 50.592 171.938 50.6119 171.956C50.6546 171.961 50.6967 171.974 50.7362 171.994C51.6339 172.241 52.636 172.824 53.7526 173.832C61.9811 181.267 50.6019 190.918 43.4029 192.631Z" fill="#3FBDF1"/>
<path d="M77.3365 153.125C78.6631 152.886 80.0035 152.772 81.345 152.786C83.1529 152.786 84.2445 152.943 85.2243 153.529C85.7356 153.791 86.1707 154.228 86.4756 154.785C86.7802 155.341 86.9411 155.993 86.9376 156.658C86.9376 157.919 86.3532 159.159 84.8662 159.834V159.879C86.4104 160.396 87.3529 161.77 87.3529 163.573C87.3536 164.224 87.2241 164.867 86.9749 165.446C86.7258 166.025 86.3642 166.525 85.9206 166.903C84.9781 167.76 83.399 168.257 80.6985 168.257C79.5775 168.284 78.4567 168.194 77.3489 167.986L77.3365 153.125ZM80.7059 158.731H81.3923C82.842 158.731 83.5408 158.136 83.5408 157.155C83.5408 156.262 82.9738 155.715 81.8274 155.715C81.4554 155.707 81.0837 155.737 80.7159 155.804L80.7059 158.731ZM80.7059 165.241C81.0315 165.28 81.3587 165.294 81.6857 165.283C82.8147 165.283 83.7745 164.741 83.7745 163.394C83.7745 162.109 82.7948 161.61 81.5141 161.61H80.7059V165.241Z" fill="white"/>
<path d="M92.6098 152.889V161.514C92.6098 163.81 93.2713 165.083 94.5992 165.083C95.9271 165.083 96.6134 163.911 96.6134 161.514V152.889H100.043V161.276C100.043 165.96 98.083 168.321 94.5246 168.321C91.0606 168.321 89.2154 166.049 89.2154 161.184V152.889H92.6098Z" fill="white"/>
<path d="M105.309 168.075V161.951L101.318 152.889H105.215L106.287 156.312C106.627 157.371 106.871 158.136 107.155 159.126H107.192C107.44 158.204 107.689 157.341 108.002 156.312L109.037 152.889H112.876L108.716 161.785V168.066L105.309 168.075Z" fill="white"/>
<path d="M50.5572 171.938C49.939 171.779 49.2971 171.806 48.6896 172.016C48.0821 172.226 47.5276 172.613 47.0758 173.142C42.8882 177.645 42.6967 192.631 42.6967 192.631H41.5851C41.5851 192.631 38.8995 175.185 42.8807 172.265H42.8956C42.9628 172.232 43.2463 172.084 43.6416 171.92C43.6416 171.92 43.6615 171.92 43.669 171.92C44.1845 171.707 44.7169 171.559 45.258 171.477C47.0335 171.286 48.8234 171.442 50.5572 171.938Z" fill="#D7E8F0"/>
<path d="M76.6675 38.5487C76.6668 46.6416 74.3571 54.492 70.1201 60.802C65.8827 67.1119 59.9721 71.5039 53.3649 73.2517C46.7577 74.9992 39.8497 73.9982 33.7826 70.4139C27.7158 66.8294 22.8533 60.8763 19.9988 53.5386C17.1446 46.2008 16.4692 37.918 18.0848 30.0589C19.7004 22.2001 23.51 15.2358 28.8838 10.3174C34.2576 5.39908 40.8739 2.82108 47.639 3.00966C54.4041 3.19821 60.9128 6.14205 66.0891 11.3545C69.4031 14.6912 72.0671 18.8541 73.8946 23.5515C75.7218 28.2492 76.6683 33.3677 76.6675 38.5487Z" stroke="black" stroke-width="4.13" stroke-miterlimit="10"/>
<path d="M36.1915 222.915V238.38H7.09705C6.75528 238.381 6.41686 238.299 6.10162 238.142C5.7864 237.984 5.50068 237.752 5.26124 237.461C5.02177 237.169 4.83338 236.823 4.7071 236.443C4.58083 236.063 4.51918 235.657 4.5258 235.248L4.67002 225.943C4.68241 225.137 4.95885 224.37 5.43978 223.806C5.92071 223.242 6.56768 222.926 7.24127 222.927L36.1915 222.915Z" fill="#D7E8F0"/>
<path d="M82.3472 225.988V235.293C82.3472 236.109 82.0764 236.891 81.5939 237.468C81.1118 238.044 80.4578 238.368 79.7759 238.368H36.1915V222.904H79.7759C80.1141 222.904 80.4491 222.983 80.7616 223.139C81.074 223.294 81.358 223.521 81.5967 223.807C81.8357 224.094 82.0249 224.434 82.1537 224.808C82.2823 225.182 82.3482 225.583 82.3472 225.988Z" fill="#3FBDF1"/>
<path d="M40.573 238.369V269.848H12.6946C11.5065 269.845 10.3673 269.281 9.52531 268.278C8.68331 267.276 8.20654 265.916 8.19865 264.495V238.383L40.573 238.369Z" fill="#D7E8F0"/>
<path d="M77.3414 238.369V264.48C77.3335 265.901 76.8568 267.261 76.0148 268.263C75.1728 269.266 74.0336 269.83 72.8455 269.833H40.573V238.369H77.3414Z" fill="#3FBDF1"/>
<path d="M40.3318 26.5541C43.6367 26.5541 45.4271 29.4211 45.4271 32.9125C45.4271 37.3587 42.8931 39.7527 40.1677 39.7527C37.2458 39.7527 35.0153 37.1832 35.0153 33.2962C35.0153 29.6411 36.9723 26.5422 40.3045 26.5422L40.3318 26.5541ZM40.2224 29.7185C39.0935 29.7185 38.6508 31.2322 38.6508 33.1772C38.6508 35.2174 39.1755 36.6033 40.2771 36.6033C41.2718 36.6033 41.7915 35.4494 41.7915 33.1772C41.7915 31.1995 41.3787 29.7185 40.2498 29.7185H40.2224ZM40.5531 48.6925L50.7486 26.6225H53.2925L43.1269 48.6925H40.5531ZM53.7749 35.4494C57.0798 35.4494 58.8702 38.3133 58.8702 41.8078C58.8702 46.2539 56.3362 48.6479 53.6083 48.6479C50.6889 48.6479 48.4584 46.0784 48.4584 42.1587C48.4584 38.5334 50.4129 35.4375 53.7476 35.4375L53.7749 35.4494ZM53.663 38.6137C52.5341 38.6137 52.0939 40.1274 52.0939 42.0724C52.0939 44.1126 52.6186 45.4985 53.7202 45.4985C54.7149 45.4985 55.2346 44.3089 55.2346 42.0367C55.2346 40.062 54.8218 38.6137 53.6929 38.6137H53.663Z" fill="white"/>
<path d="M39.9638 192.467C35.5201 192.467 27.2816 188.128 31.6408 182.317C32.1008 181.657 32.673 181.12 33.3193 180.744L33.3541 180.717H33.3691C34.4117 180.135 35.5275 179.764 36.6714 179.617C37.0394 179.58 37.41 179.594 37.7755 179.658C37.1936 179.626 36.5147 180.003 35.7115 180.922C35.5698 181.077 35.4181 181.273 35.2614 181.479C30.9122 187.278 35.4728 192.001 39.9638 192.467Z" fill="#D7E8F0"/>
<path d="M41.1077 192.203L40.4164 192.36C40.4164 192.36 38.7702 183.105 35.7115 180.917C36.5147 179.998 37.2036 179.62 37.7755 179.653C37.7869 179.656 37.7989 179.656 37.8103 179.653L38.059 179.694L38.146 179.718C40.9983 180.768 41.1077 192.203 41.1077 192.203Z" fill="#3FBDF1"/>
<path d="M40.5706 222.912H7.24873C6.57446 222.912 5.92715 223.228 5.44622 223.794C4.96529 224.359 4.68922 225.127 4.67748 225.933L4.53822 235.239C4.53193 235.648 4.5938 236.054 4.72022 236.433C4.84662 236.813 5.03502 237.158 5.27441 237.45C5.51381 237.742 5.79938 237.973 6.11445 238.131C6.42954 238.289 6.7678 238.371 7.10947 238.371H79.7734C80.1114 238.371 80.4458 238.291 80.7579 238.136C81.07 237.982 81.3537 237.755 81.5924 237.469C81.8312 237.183 82.0207 236.844 82.1497 236.47C82.2788 236.097 82.3449 235.697 82.3447 235.292V225.987C82.3447 225.171 82.0739 224.389 81.5915 223.813C81.1093 223.236 80.4553 222.912 79.7734 222.912H31.6731" stroke="black" stroke-width="4.13" stroke-miterlimit="10"/>
<path d="M72.8455 269.85H12.6921C11.5012 269.846 10.3601 269.278 9.51835 268.27C8.67635 267.263 8.20194 265.898 8.19865 264.473V238.371H77.329V264.473C77.325 265.895 76.8518 267.258 76.0123 268.265C75.1725 269.272 74.0346 269.842 72.8455 269.85Z" stroke="black" stroke-width="4.13" stroke-miterlimit="10"/>
<path d="M68.628 194.614V200.616C68.628 201.142 68.4532 201.646 68.1421 202.018C67.8313 202.39 67.4093 202.599 66.9694 202.599H38.8448V192.63H66.9694C67.4093 192.63 67.8313 192.84 68.1421 193.212C68.4532 193.583 68.628 194.088 68.628 194.614Z" fill="#3FBDF1"/>
<path d="M38.8448 192.63V202.599H20.0826C19.8625 202.599 19.6447 202.546 19.4418 202.444C19.2391 202.343 19.0551 202.193 18.9007 202.006C18.7465 201.818 18.6249 201.596 18.5431 201.352C18.461 201.107 18.4208 200.846 18.424 200.583L18.5135 194.573C18.522 194.053 18.7005 193.559 19.0108 193.196C19.3209 192.833 19.738 192.63 20.1721 192.63H38.8448Z" fill="#D7E8F0"/>
<path d="M65.4003 202.599V219.447C65.3976 220.367 65.0902 221.249 64.5456 221.898C64.0008 222.548 63.2627 222.914 62.4933 222.914H41.6747V202.599H65.4003Z" fill="#3FBDF1"/>
<path d="M41.6747 202.599V222.914H23.7008C22.9324 222.912 22.1961 222.546 21.6527 221.896C21.1094 221.247 20.8033 220.366 20.8013 219.447V202.599H41.6747Z" fill="#D7E8F0"/>
<path d="M36.189 222.912V238.371" stroke="black" stroke-width="4.13" stroke-miterlimit="10"/>
<path d="M40.5706 238.371V269.85" stroke="black" stroke-width="4.13" stroke-miterlimit="10"/>
<path d="M68.628 194.614V200.616C68.628 201.142 68.4532 201.646 68.1421 202.018C67.8313 202.39 67.4093 202.599 66.9694 202.599H38.8448V192.63H66.9694C67.4093 192.63 67.8313 192.84 68.1421 193.212C68.4532 193.583 68.628 194.088 68.628 194.614Z" stroke="black" stroke-width="4.13" stroke-miterlimit="10"/>
<path d="M38.8448 192.63V202.599H20.0826C19.8625 202.599 19.6447 202.546 19.4418 202.444C19.2391 202.343 19.0551 202.193 18.9007 202.006C18.7465 201.818 18.6249 201.596 18.5431 201.352C18.461 201.107 18.4208 200.846 18.424 200.583L18.5135 194.573C18.522 194.053 18.7005 193.559 19.0108 193.196C19.3209 192.833 19.738 192.63 20.1721 192.63H38.8448Z" stroke="black" stroke-width="4.13" stroke-miterlimit="10"/>
<path d="M65.4003 202.599V219.447C65.3976 220.367 65.0902 221.249 64.5456 221.898C64.0008 222.548 63.2627 222.914 62.4933 222.914H41.6747V202.599H65.4003Z" stroke="black" stroke-width="4.13" stroke-miterlimit="10"/>
<path d="M41.6747 202.599V222.914H23.7008C22.9324 222.912 22.1961 222.546 21.6527 221.896C21.1094 221.247 20.8033 220.366 20.8013 219.447V202.599H41.6747Z" stroke="black" stroke-width="4.13" stroke-miterlimit="10"/>
<path d="M44.604 192.628C51.4797 190.249 62.0606 181.27 53.8346 173.835C52.9486 172.975 51.9209 172.348 50.8183 171.995C50.779 171.974 50.7367 171.962 50.6939 171.959C50.0665 171.783 49.412 171.799 48.7916 172.008C48.1712 172.216 47.6049 172.608 47.1454 173.148" stroke="black" stroke-width="4.13" stroke-miterlimit="10"/>
<path d="M47.1454 173.142C42.9553 177.648 42.7663 192.628 42.7663 192.628H41.6523C41.6523 192.628 37.5069 165.725 47.1454 173.142Z" stroke="black" stroke-width="4.13" stroke-miterlimit="10"/>
<path d="M43.4875 192.629H42.7663C42.7663 192.629 42.9553 177.649 47.1454 173.143C47.4376 173.356 47.7206 173.588 47.9934 173.836C56.2343 181.271 50.3483 190.264 43.4875 192.629Z" stroke="black" stroke-width="4.13" stroke-miterlimit="10"/>
<path d="M43.0697 172.107C43.7981 171.791 44.5538 171.574 45.3227 171.459C47.1623 171.268 49.0159 171.448 50.8058 171.991" stroke="black" stroke-width="4.13" stroke-miterlimit="10"/>
<path d="M39.367 192.628C34.8636 192.164 27.3886 188.125 31.7328 182.32C32.1941 181.657 32.7678 181.118 33.4163 180.741C33.4382 180.722 33.4626 180.708 33.4884 180.699C33.8592 180.499 34.2663 180.414 34.6719 180.452C35.0774 180.49 35.4683 180.649 35.8085 180.916" stroke="black" stroke-width="4.13" stroke-miterlimit="10"/>
<path d="M35.7961 180.917C38.8547 183.099 40.4935 192.363 40.4935 192.363L41.1848 192.2C41.1848 192.2 41.0182 174.915 35.7961 180.917Z" stroke="black" stroke-width="4.13" stroke-miterlimit="10"/>
<path d="M40.0459 192.467L40.4935 192.363C40.4935 192.363 38.8547 183.099 35.7961 180.916C35.6519 181.07 35.5002 181.264 35.341 181.469C30.9893 187.277 35.5524 191.997 40.0459 192.467Z" stroke="black" stroke-width="4.13" stroke-miterlimit="10"/>
<path d="M38.2206 179.681C37.7362 179.591 37.2451 179.566 36.756 179.607C35.5934 179.756 34.4605 180.138 33.4039 180.737" stroke="black" stroke-width="4.13" stroke-miterlimit="10"/>
<path d="M185.585 71.6999L186.557 73.7817C186.557 73.7817 185.135 77.5646 188.947 78.2189C192.759 78.8732 197.777 74.3914 197.914 71.4323C203.77 74.1386 206.866 80.949 206.921 88.2413C207.021 106.293 187.599 117.238 174.621 115.602C168.099 114.784 161.939 111.343 156.797 106.487C156.11 105.85 155.451 105.181 154.807 104.491C153.504 103.07 152.283 101.545 151.152 99.9261C150.567 99.0934 149.996 98.2416 149.441 97.3714" stroke="black" stroke-width="3.77" stroke-miterlimit="10"/>
<path d="M193.908 63.2292L197.643 71.7497" stroke="black" stroke-width="4.13" stroke-miterlimit="10"/>
<path d="M0 269.848H216" stroke="black" stroke-width="4.13" stroke-miterlimit="10"/>
<path d="M149.031 30.1261H148.998C147.795 30.37 146.347 31.6518 145.596 33.3112C144.736 35.1878 144.637 37.4748 144.453 38.4444C144.433 38.5544 144.413 38.6615 144.403 38.7596C144.381 38.8423 144.365 38.9267 144.353 39.0124L144.321 39.1581C144.206 39.6277 143.948 40.0289 143.599 40.2829C143.249 40.5372 142.833 40.6261 142.431 40.5324C142.03 40.4384 141.672 40.1687 141.428 39.7758C141.184 39.383 141.072 38.8955 141.113 38.4087L141.183 37.7306C141.205 37.4867 141.235 37.2577 141.275 37.0287C141.355 36.3644 141.477 35.7083 141.64 35.0659C141.662 34.9651 141.688 34.8658 141.72 34.7685C141.75 34.615 141.791 34.4649 141.842 34.3194C141.865 34.2412 141.893 34.1648 141.924 34.0904" stroke="black" stroke-width="4.13" stroke-miterlimit="10"/>
<path d="M152.084 43.6728C151.332 44.5353 150.612 44.9653 149.926 44.9635C149.635 44.9638 149.347 44.8856 149.085 44.7345C148.839 44.6022 148.617 44.4133 148.431 44.1784C147.81 43.4141 147.835 42.1323 148.13 41.2728C148.345 40.7149 148.634 40.2034 148.988 39.759C149.1 39.6074 149.21 39.4616 149.307 39.304C149.634 38.8582 149.881 38.3369 150.033 37.7724C150.033 37.7397 150.033 37.71 150.045 37.6772" stroke="black" stroke-width="4.13" stroke-miterlimit="10"/>
<path d="M146.181 29.2931C146.646 29.3972 147.093 29.5251 147.551 29.65C148.009 29.7749 148.516 29.9474 148.993 30.1258C150.087 30.5127 151.112 31.1388 152.015 31.9727C154.467 34.1407 154.981 37.8374 153.213 40.5645" stroke="black" stroke-width="4.13" stroke-miterlimit="10"/>
<path d="M144.453 38.4434C144.453 38.4702 144.453 38.494 144.44 38.5267C144.434 38.6266 144.422 38.7259 144.405 38.8241L144.351 39.5022C144.318 39.8686 144.373 40.2385 144.508 40.5695C144.644 40.9002 144.854 41.1789 145.116 41.3734C145.377 41.5676 145.68 41.6699 145.988 41.6681C146.296 41.6666 146.597 41.5611 146.857 41.3639C147.044 41.2253 147.206 41.0415 147.331 40.8244C147.456 40.6076 147.542 40.3619 147.583 40.1029C147.631 39.8501 147.67 39.5765 147.725 39.3178C147.924 38.3126 147.999 37.4144 148.625 36.6412C148.802 36.4226 149.012 36.2468 149.244 36.1237C149.303 36.094 149.364 36.0708 149.426 36.0553" stroke="black" stroke-width="4.13" stroke-miterlimit="10"/>
<path d="M137.806 36.6662V36.5889C137.912 35.3026 138.196 34.0464 138.646 32.8714C138.925 32.1368 139.298 31.4593 139.753 30.8639C140.465 29.903 141.43 29.261 142.488 29.0439C142.794 28.9903 143.095 28.9546 143.403 28.9368C144.333 28.921 145.261 29.0409 146.166 29.2937C145.42 29.3621 144.142 30.3167 143.219 31.5182C142.85 31.9735 142.541 32.494 142.304 33.0617C142.187 33.3591 142.055 33.6863 141.963 34.0015C141.869 34.2573 141.787 34.516 141.715 34.7688C141.498 35.5004 141.312 36.2231 141.17 36.8893C141.105 37.1867 141.046 37.4841 140.999 37.7517C140.921 38.2475 140.695 38.6918 140.361 39.0005C140.028 39.3095 139.611 39.4609 139.191 39.4261C138.763 39.3663 138.372 39.107 138.103 38.7043C137.833 38.3016 137.708 37.7883 137.753 37.2759L137.803 36.6662" stroke="black" stroke-width="4.13" stroke-miterlimit="10"/>
<path d="M135.851 88.7429C135.428 87.7288 135.155 86.6165 135.563 85.647C136.485 83.4462 139.452 84.6121 141.188 83.2678C142.68 82.1228 142.528 80.7637 143.344 79.0685C144.296 77.0849 146.012 77.8789 147.322 78.8663C148.996 80.1184 152.651 84.5169 158.512 88.85C160.336 90.2056 162.08 91.7068 163.734 93.3437C168.342 97.885 179.821 105.754 189.8 84.5853" stroke="black" stroke-width="3.84" stroke-miterlimit="10"/>
<path d="M149.682 97.7242C148.864 96.7279 147.974 95.6751 146.825 95.4253C145.599 95.1546 144.375 95.8476 143.135 95.919C140.078 96.0855 137.811 92.6803 136.237 89.5427C136.107 89.2899 135.988 89.0193 135.861 88.7487" stroke="black" stroke-width="3.84" stroke-miterlimit="10"/>
<path d="M142.391 92.8682C142.391 92.8682 139.469 94.7448 138.226 92.8147" stroke="black" stroke-width="3.84" stroke-miterlimit="10"/>
<path d="M136.493 90.0697C136.493 90.0697 138.867 92.0028 140.534 90.3909" stroke="black" stroke-width="3.84" stroke-miterlimit="10"/>
<path d="M135.391 87.5149C135.391 87.5149 137.457 89.0287 138.345 87.9431" stroke="black" stroke-width="3.84" stroke-miterlimit="10"/>
</svg>
