<svg width="264" height="257" viewBox="0 0 264 257" fill="none" xmlns="http://www.w3.org/2000/svg">
<path d="M64.0331 116.335C64.0331 116.335 59.6015 65.8917 89.7673 59.0992C119.933 52.3067 125.54 58.0039 146.551 40.7566C167.562 23.5093 233.946 74.4186 220.507 146.027C218.922 154.519 216.911 162.89 214.484 171.093" stroke="#CCDDE2" stroke-width="3.7" stroke-miterlimit="10"/>
<path d="M194.131 82.9418H183.159V254.306H194.131V82.9418Z" stroke="#CCDDE2" stroke-width="3.7" stroke-miterlimit="10"/>
<path d="M95.9698 214.829V82.9418H183.159V254.309H168.469V201.68C168.466 199.57 167.762 197.548 166.513 196.058C165.264 194.568 163.572 193.732 161.808 193.733H117.954C116.191 193.733 114.499 194.569 113.25 196.059C112.001 197.549 111.297 199.57 111.292 201.68V254.309H96.9953M95.9698 234.471V225.54M106.43 172.146C106.338 172.146 106.247 172.123 106.162 172.081C106.078 172.038 106.001 171.976 105.936 171.897C105.871 171.819 105.82 171.726 105.786 171.625C105.751 171.522 105.733 171.413 105.734 171.303V164.559C105.734 164.338 105.808 164.127 105.938 163.97C106.069 163.814 106.246 163.726 106.43 163.726H117.801C117.893 163.725 117.985 163.746 118.07 163.788C118.155 163.829 118.233 163.89 118.298 163.968C118.364 164.045 118.416 164.137 118.451 164.238C118.487 164.34 118.506 164.449 118.506 164.559V171.303C118.506 171.414 118.488 171.524 118.453 171.626C118.418 171.729 118.366 171.822 118.3 171.9C118.235 171.979 118.157 172.041 118.071 172.083C117.986 172.125 117.894 172.147 117.801 172.146H106.43ZM126.419 183.092C126.417 183.314 126.342 183.527 126.21 183.683C126.078 183.84 125.9 183.928 125.714 183.928H114.343C114.157 183.928 113.979 183.84 113.847 183.683C113.715 183.527 113.64 183.314 113.638 183.092V176.341C113.641 176.119 113.716 175.907 113.848 175.751C113.98 175.595 114.158 175.508 114.343 175.508H125.714C125.899 175.508 126.077 175.595 126.209 175.751C126.341 175.907 126.416 176.119 126.419 176.341V183.092ZM120.733 171.303V164.559C120.734 164.449 120.752 164.34 120.788 164.238C120.823 164.137 120.876 164.045 120.941 163.968C121.007 163.89 121.084 163.829 121.17 163.788C121.255 163.746 121.346 163.725 121.438 163.726H132.809C132.994 163.726 133.172 163.814 133.304 163.97C133.436 164.125 133.511 164.337 133.514 164.559V171.303C133.513 171.526 133.438 171.74 133.306 171.898C133.174 172.056 132.996 172.145 132.809 172.146H121.435C121.343 172.146 121.251 172.124 121.166 172.082C121.081 172.039 121.003 171.977 120.938 171.899C120.873 171.821 120.821 171.728 120.786 171.626C120.751 171.523 120.733 171.414 120.733 171.303ZM141.366 183.092C141.366 183.201 141.348 183.31 141.314 183.411C141.279 183.513 141.228 183.605 141.163 183.682C141.098 183.76 141.021 183.822 140.937 183.864C140.852 183.906 140.761 183.928 140.67 183.928H129.287C129.196 183.928 129.105 183.906 129.02 183.864C128.935 183.822 128.859 183.76 128.794 183.682C128.729 183.605 128.678 183.513 128.643 183.411C128.608 183.31 128.591 183.201 128.591 183.092V176.341C128.591 176.12 128.664 175.908 128.795 175.752C128.926 175.596 129.103 175.508 129.287 175.508H140.667C140.851 175.508 141.028 175.596 141.159 175.752C141.29 175.908 141.363 176.12 141.363 176.341L141.366 183.092ZM148.507 171.303C148.507 171.414 148.489 171.524 148.454 171.626C148.419 171.729 148.367 171.822 148.301 171.9C148.236 171.979 148.158 172.041 148.072 172.083C147.987 172.125 147.895 172.147 147.802 172.146H136.432C136.339 172.146 136.248 172.123 136.163 172.081C136.078 172.038 136.001 171.976 135.936 171.898C135.871 171.819 135.82 171.727 135.785 171.625C135.75 171.523 135.732 171.413 135.732 171.303V164.559C135.732 164.449 135.751 164.341 135.786 164.239C135.821 164.138 135.873 164.046 135.937 163.969C136.002 163.892 136.079 163.83 136.164 163.789C136.249 163.747 136.34 163.726 136.432 163.726H147.799C147.891 163.725 147.983 163.746 148.068 163.788C148.153 163.829 148.231 163.89 148.297 163.968C148.362 164.045 148.414 164.137 148.45 164.238C148.485 164.34 148.504 164.449 148.504 164.559L148.507 171.303ZM163.503 171.303C163.504 171.413 163.487 171.522 163.452 171.625C163.418 171.726 163.366 171.819 163.302 171.897C163.237 171.976 163.16 172.038 163.075 172.081C162.99 172.123 162.899 172.146 162.807 172.146H151.434C151.341 172.147 151.249 172.125 151.163 172.083C151.078 172.041 151 171.979 150.934 171.9C150.869 171.822 150.817 171.729 150.782 171.626C150.746 171.524 150.728 171.414 150.729 171.303V164.559C150.729 164.449 150.748 164.34 150.783 164.238C150.819 164.137 150.871 164.045 150.936 163.968C151.002 163.89 151.08 163.829 151.165 163.788C151.25 163.746 151.341 163.725 151.434 163.726H162.804C162.989 163.726 163.166 163.814 163.296 163.97C163.427 164.127 163.5 164.338 163.5 164.559L163.503 171.303ZM174.03 145.982C174.033 147.027 173.863 148.062 173.53 149.029C173.197 149.995 172.708 150.874 172.091 151.614C171.473 152.354 170.74 152.941 169.933 153.342C169.125 153.743 168.26 153.949 167.386 153.949H111.873C110.107 153.948 108.413 153.108 107.163 151.614C105.914 150.12 105.212 148.094 105.211 145.982V117.889C105.211 115.776 105.913 113.749 107.162 112.255C108.412 110.761 110.106 109.922 111.873 109.922H167.374C168.249 109.922 169.114 110.128 169.921 110.529C170.728 110.929 171.462 111.516 172.079 112.256C172.696 112.997 173.185 113.875 173.518 114.842C173.851 115.808 174.021 116.844 174.019 117.889L174.03 145.982ZM173.057 100.618C172.751 100.988 172.387 101.282 171.985 101.482C171.583 101.681 171.152 101.784 170.717 101.782H109.048C108.169 101.781 107.327 101.363 106.705 100.62C106.084 99.8771 105.735 98.8696 105.734 97.819C105.737 96.769 106.087 95.7633 106.708 95.0208C107.329 94.2783 108.17 93.8595 109.048 93.8561H170.711C171.146 93.8554 171.577 93.9577 171.98 94.1567C172.382 94.3557 172.747 94.6476 173.055 95.0156C173.363 95.3839 173.607 95.821 173.773 96.3019C173.94 96.7828 174.025 97.2983 174.025 97.819C174.026 98.3389 173.941 98.8544 173.775 99.335C173.608 99.8156 173.363 100.252 173.054 100.618H173.057Z" stroke="#CCDDE2" stroke-width="3.7" stroke-miterlimit="10"/>
<path d="M117.801 172.146H106.43C106.338 172.146 106.247 172.124 106.162 172.081C106.078 172.039 106.001 171.976 105.936 171.898C105.871 171.819 105.82 171.727 105.785 171.625C105.751 171.523 105.733 171.413 105.734 171.303V164.559C105.734 164.338 105.808 164.127 105.938 163.97C106.069 163.814 106.246 163.726 106.43 163.726H117.801C117.893 163.725 117.985 163.747 118.07 163.788C118.155 163.829 118.233 163.89 118.298 163.968C118.364 164.045 118.416 164.137 118.451 164.239C118.487 164.34 118.506 164.449 118.506 164.559V171.303C118.506 171.414 118.488 171.524 118.453 171.626C118.418 171.729 118.366 171.822 118.3 171.9C118.235 171.979 118.157 172.041 118.071 172.083C117.986 172.125 117.894 172.147 117.801 172.146Z" stroke="#CCDDE2" stroke-width="3.7" stroke-miterlimit="10"/>
<path d="M114.343 175.509H125.714C125.899 175.509 126.077 175.596 126.209 175.752C126.341 175.908 126.416 176.12 126.419 176.341V183.092C126.417 183.315 126.342 183.527 126.21 183.684C126.078 183.84 125.9 183.928 125.714 183.928H114.343C114.157 183.928 113.979 183.84 113.847 183.684C113.715 183.527 113.64 183.315 113.638 183.092V176.341C113.641 176.12 113.716 175.908 113.848 175.752C113.98 175.596 114.158 175.509 114.343 175.509Z" stroke="#CCDDE2" stroke-width="3.7" stroke-miterlimit="10"/>
<path d="M133.511 164.559V171.303C133.51 171.526 133.435 171.74 133.303 171.898C133.171 172.056 132.993 172.145 132.806 172.146H121.435C121.343 172.147 121.251 172.125 121.165 172.083C121.079 172.041 121.002 171.979 120.936 171.9C120.871 171.822 120.819 171.729 120.783 171.626C120.748 171.524 120.73 171.414 120.73 171.303V164.559C120.731 164.449 120.75 164.34 120.785 164.239C120.821 164.137 120.873 164.045 120.938 163.968C121.004 163.89 121.081 163.829 121.167 163.788C121.252 163.747 121.343 163.725 121.435 163.726H132.806C132.991 163.726 133.169 163.814 133.301 163.97C133.433 164.126 133.509 164.337 133.511 164.559Z" stroke="#CCDDE2" stroke-width="3.7" stroke-miterlimit="10"/>
<path d="M140.667 175.509H129.287C128.903 175.509 128.591 175.881 128.591 176.341V183.096C128.591 183.556 128.903 183.928 129.287 183.928H140.667C141.051 183.928 141.363 183.556 141.363 183.096V176.341C141.363 175.881 141.051 175.509 140.667 175.509Z" stroke="#CCDDE2" stroke-width="3.7" stroke-miterlimit="10"/>
<path d="M136.432 172.146C136.339 172.146 136.248 172.124 136.163 172.081C136.078 172.039 136.001 171.976 135.936 171.898C135.871 171.82 135.82 171.727 135.785 171.625C135.75 171.523 135.732 171.413 135.732 171.303V164.559C135.732 164.45 135.751 164.341 135.786 164.24C135.821 164.138 135.873 164.046 135.937 163.969C136.002 163.892 136.079 163.83 136.164 163.789C136.249 163.747 136.34 163.726 136.432 163.726H147.799C147.891 163.725 147.983 163.747 148.068 163.788C148.153 163.829 148.231 163.89 148.296 163.968C148.362 164.045 148.414 164.137 148.45 164.239C148.485 164.34 148.504 164.449 148.504 164.559V171.303C148.504 171.414 148.487 171.524 148.451 171.626C148.416 171.729 148.364 171.822 148.299 171.9C148.233 171.979 148.155 172.041 148.069 172.083C147.984 172.125 147.892 172.147 147.799 172.146H136.432Z" stroke="#CCDDE2" stroke-width="3.7" stroke-miterlimit="10"/>
<path d="M151.434 172.146C151.341 172.147 151.249 172.125 151.163 172.083C151.078 172.041 151 171.979 150.934 171.9C150.869 171.822 150.817 171.729 150.782 171.626C150.746 171.524 150.728 171.414 150.729 171.303V164.559C150.729 164.449 150.748 164.34 150.783 164.239C150.819 164.137 150.871 164.045 150.936 163.968C151.002 163.89 151.08 163.829 151.165 163.788C151.25 163.747 151.341 163.725 151.434 163.726H162.804C162.989 163.726 163.166 163.814 163.296 163.97C163.427 164.127 163.5 164.338 163.5 164.559V171.303C163.501 171.413 163.484 171.523 163.449 171.625C163.415 171.727 163.364 171.819 163.299 171.898C163.234 171.976 163.157 172.039 163.072 172.081C162.987 172.124 162.896 172.146 162.804 172.146H151.434Z" stroke="#CCDDE2" stroke-width="3.7" stroke-miterlimit="10"/>
<path d="M168.469 201.68V254.31H111.292V201.68C111.297 199.571 112.001 197.549 113.25 196.06C114.499 194.57 116.191 193.734 117.954 193.734H161.808C163.572 193.733 165.264 194.569 166.513 196.059C167.762 197.549 168.466 199.57 168.469 201.68Z" stroke="#CCDDE2" stroke-width="3.7" stroke-miterlimit="10"/>
<path d="M105.734 97.819C105.737 96.769 106.087 95.7629 106.708 95.0208C107.329 94.2783 108.17 93.8595 109.048 93.8561H170.711C171.146 93.8554 171.577 93.9577 171.98 94.1567C172.382 94.3557 172.747 94.6476 173.055 95.0156C173.363 95.3835 173.607 95.8206 173.773 96.3019C173.94 96.7828 174.025 97.2983 174.025 97.819C174.022 98.8686 173.672 99.8747 173.051 100.617C172.43 101.359 171.589 101.778 170.711 101.782H109.048C108.169 101.781 107.327 101.363 106.706 100.62C106.084 99.8771 105.735 98.8696 105.734 97.819Z" stroke="#CCDDE2" stroke-width="3.7" stroke-miterlimit="10"/>
<path d="M136.299 121.818V142.088C136.3 142.825 136.179 143.554 135.944 144.235C135.708 144.916 135.364 145.535 134.928 146.057C134.493 146.578 133.977 146.991 133.408 147.274C132.839 147.556 132.229 147.702 131.613 147.702H115.178C113.934 147.701 112.742 147.108 111.863 146.056C110.985 145.003 110.491 143.576 110.492 142.088V121.818C110.492 121.081 110.613 120.352 110.848 119.671C111.083 118.991 111.428 118.373 111.864 117.852C112.299 117.331 112.815 116.917 113.384 116.635C113.953 116.353 114.562 116.207 115.178 116.207H131.613C132.229 116.207 132.839 116.352 133.407 116.634C133.976 116.916 134.493 117.329 134.928 117.851C135.364 118.372 135.708 118.99 135.944 119.671C136.179 120.352 136.3 121.081 136.299 121.818Z" stroke="#CCDDE2" stroke-width="3.7" stroke-miterlimit="10"/>
<path d="M168.57 121.793V142.115C168.571 142.852 168.451 143.581 168.215 144.262C167.981 144.943 167.635 145.562 167.2 146.083C166.765 146.605 166.248 147.018 165.68 147.301C165.11 147.583 164.501 147.729 163.885 147.729H147.418C146.802 147.729 146.192 147.583 145.623 147.301C145.054 147.019 144.537 146.605 144.102 146.083C143.666 145.562 143.321 144.943 143.086 144.262C142.85 143.582 142.729 142.852 142.729 142.115V121.793C142.729 121.056 142.85 120.326 143.086 119.645C143.321 118.965 143.666 118.346 144.102 117.824C144.537 117.303 145.054 116.889 145.623 116.607C146.192 116.325 146.802 116.179 147.418 116.178H163.885C164.501 116.179 165.11 116.325 165.68 116.607C166.248 116.89 166.765 117.303 167.2 117.824C167.635 118.346 167.981 118.965 168.215 119.646C168.451 120.327 168.571 121.056 168.57 121.793Z" stroke="#CCDDE2" stroke-width="3.7" stroke-miterlimit="10"/>
<path d="M167.374 109.922H111.873C110.106 109.922 108.412 110.761 107.162 112.255C105.913 113.749 105.211 115.776 105.211 117.889V145.982C105.212 148.094 105.914 150.12 107.163 151.614C108.413 153.108 110.107 153.948 111.873 153.949H167.374C168.249 153.949 169.114 153.743 169.921 153.342C170.728 152.941 171.462 152.354 172.079 151.614C172.696 150.874 173.185 149.995 173.518 149.029C173.851 148.062 174.021 147.027 174.019 145.982V117.889C174.021 116.844 173.851 115.808 173.518 114.841C173.185 113.875 172.696 112.996 172.079 112.256C171.462 111.516 170.728 110.929 169.921 110.529C169.114 110.128 168.249 109.922 167.374 109.922ZM136.299 142.088C136.3 142.824 136.179 143.554 135.944 144.235C135.708 144.916 135.364 145.535 134.928 146.056C134.493 146.577 133.977 146.991 133.408 147.273C132.839 147.556 132.229 147.702 131.613 147.702H115.178C113.934 147.7 112.742 147.108 111.863 146.055C110.984 145.002 110.491 143.575 110.492 142.088V121.817C110.492 121.081 110.613 120.351 110.848 119.671C111.083 118.991 111.428 118.372 111.864 117.851C112.299 117.33 112.815 116.917 113.384 116.635C113.953 116.352 114.562 116.207 115.178 116.207H131.613C132.229 116.207 132.839 116.352 133.407 116.634C133.976 116.915 134.493 117.329 134.928 117.85C135.364 118.371 135.708 118.99 135.944 119.67C136.179 120.351 136.3 121.081 136.299 121.817V142.088ZM168.57 142.115C168.571 142.852 168.451 143.582 168.215 144.262C167.98 144.943 167.635 145.562 167.2 146.084C166.765 146.605 166.248 147.019 165.68 147.301C165.11 147.584 164.501 147.729 163.885 147.73H147.418C146.802 147.729 146.192 147.584 145.623 147.301C145.054 147.019 144.537 146.605 144.102 146.084C143.666 145.563 143.321 144.944 143.085 144.263C142.85 143.582 142.729 142.852 142.729 142.115V121.793C142.729 121.056 142.85 120.327 143.085 119.646C143.321 118.965 143.666 118.346 144.102 117.824C144.537 117.303 145.054 116.89 145.623 116.607C146.192 116.325 146.802 116.179 147.418 116.179H163.885C164.501 116.179 165.11 116.325 165.68 116.607C166.248 116.89 166.765 117.303 167.2 117.825C167.635 118.346 167.98 118.965 168.215 119.646C168.451 120.327 168.571 121.056 168.57 121.793V142.115Z" stroke="#CCDDE2" stroke-width="3.7" stroke-miterlimit="10"/>
<path d="M136.299 121.818V142.088C136.3 142.825 136.179 143.554 135.944 144.235C135.708 144.916 135.364 145.535 134.928 146.057C134.493 146.578 133.977 146.991 133.408 147.274C132.839 147.556 132.229 147.702 131.613 147.702H115.178C113.934 147.701 112.742 147.108 111.863 146.056C110.985 145.003 110.491 143.576 110.492 142.088V121.818C110.492 121.081 110.613 120.352 110.848 119.671C111.083 118.991 111.428 118.373 111.864 117.852C112.299 117.331 112.815 116.917 113.384 116.635C113.953 116.353 114.562 116.207 115.178 116.207H131.613C132.229 116.207 132.839 116.352 133.407 116.634C133.976 116.916 134.493 117.329 134.928 117.851C135.364 118.372 135.708 118.99 135.944 119.671C136.179 120.352 136.3 121.081 136.299 121.818Z" stroke="#CCDDE2" stroke-width="3.7" stroke-miterlimit="10"/>
<path d="M168.57 121.793V142.115C168.571 142.852 168.451 143.581 168.215 144.262C167.981 144.943 167.635 145.562 167.2 146.083C166.765 146.605 166.248 147.018 165.68 147.301C165.11 147.583 164.501 147.729 163.885 147.729H147.418C146.802 147.729 146.192 147.583 145.623 147.301C145.054 147.019 144.537 146.605 144.102 146.083C143.666 145.562 143.321 144.943 143.086 144.262C142.85 143.582 142.729 142.852 142.729 142.115V121.793C142.729 121.056 142.85 120.326 143.086 119.645C143.321 118.965 143.666 118.346 144.102 117.824C144.537 117.303 145.054 116.889 145.623 116.607C146.192 116.325 146.802 116.179 147.418 116.178H163.885C164.501 116.179 165.11 116.325 165.68 116.607C166.248 116.89 166.765 117.303 167.2 117.824C167.635 118.346 167.981 118.965 168.215 119.646C168.451 120.327 168.571 121.056 168.57 121.793Z" stroke="#CCDDE2" stroke-width="3.7" stroke-miterlimit="10"/>
<path d="M168.57 121.793V142.115C168.571 142.852 168.451 143.581 168.215 144.262C167.981 144.943 167.635 145.562 167.2 146.083C166.765 146.605 166.248 147.018 165.68 147.301C165.11 147.583 164.501 147.729 163.885 147.729H147.418C146.802 147.729 146.192 147.583 145.623 147.301C145.054 147.019 144.537 146.605 144.102 146.083C143.666 145.562 143.321 144.943 143.086 144.262C142.85 143.582 142.729 142.852 142.729 142.115V121.793C142.729 121.056 142.85 120.326 143.086 119.645C143.321 118.965 143.666 118.346 144.102 117.824C144.537 117.303 145.054 116.889 145.623 116.607C146.192 116.325 146.802 116.179 147.418 116.178H163.885C164.501 116.179 165.11 116.325 165.68 116.607C166.248 116.89 166.765 117.303 167.2 117.824C167.635 118.346 167.981 118.965 168.215 119.646C168.451 120.327 168.571 121.056 168.57 121.793Z" stroke="#CCDDE2" stroke-width="3.7" stroke-miterlimit="10"/>
<path d="M136.299 121.818V142.088C136.3 142.825 136.179 143.554 135.944 144.235C135.708 144.916 135.364 145.535 134.928 146.057C134.493 146.578 133.977 146.991 133.408 147.274C132.839 147.556 132.229 147.702 131.613 147.702H115.178C113.934 147.701 112.742 147.108 111.863 146.056C110.985 145.003 110.491 143.576 110.492 142.088V121.818C110.492 121.081 110.613 120.352 110.848 119.671C111.083 118.991 111.428 118.373 111.864 117.852C112.299 117.331 112.815 116.917 113.384 116.635C113.953 116.353 114.562 116.207 115.178 116.207H131.613C132.229 116.207 132.839 116.352 133.407 116.634C133.976 116.916 134.493 117.329 134.928 117.851C135.364 118.372 135.708 118.99 135.944 119.671C136.179 120.352 136.3 121.081 136.299 121.818Z" stroke="#CCDDE2" stroke-width="3.7" stroke-miterlimit="10"/>
<path d="M168.469 201.68V254.31H111.292V201.68C111.297 199.571 112.001 197.549 113.25 196.06C114.499 194.57 116.191 193.734 117.954 193.734H161.808C163.572 193.733 165.264 194.569 166.513 196.059C167.762 197.549 168.466 199.57 168.469 201.68Z" stroke="#CCDDE2" stroke-width="3.7" stroke-miterlimit="10"/>
<path d="M118.506 164.559V171.303C118.506 171.414 118.488 171.524 118.453 171.626C118.418 171.729 118.366 171.822 118.3 171.9C118.235 171.979 118.157 172.041 118.071 172.083C117.986 172.125 117.894 172.147 117.801 172.146H106.43C106.338 172.146 106.247 172.124 106.162 172.081C106.078 172.039 106.001 171.976 105.936 171.898C105.871 171.819 105.82 171.727 105.785 171.625C105.751 171.523 105.733 171.413 105.734 171.303V164.559C105.734 164.338 105.808 164.127 105.938 163.97C106.069 163.814 106.246 163.726 106.43 163.726H117.801C117.893 163.725 117.985 163.747 118.07 163.788C118.155 163.829 118.233 163.89 118.298 163.968C118.364 164.045 118.416 164.137 118.451 164.239C118.487 164.34 118.506 164.449 118.506 164.559Z" stroke="#CCDDE2" stroke-width="3.7" stroke-miterlimit="10"/>
<path d="M133.511 164.559V171.303C133.51 171.526 133.435 171.74 133.303 171.898C133.171 172.056 132.993 172.145 132.806 172.146H121.435C121.343 172.147 121.251 172.125 121.165 172.083C121.079 172.041 121.002 171.979 120.936 171.9C120.871 171.822 120.819 171.729 120.783 171.626C120.748 171.524 120.73 171.414 120.73 171.303V164.559C120.731 164.449 120.75 164.34 120.785 164.239C120.821 164.137 120.873 164.045 120.938 163.968C121.004 163.89 121.081 163.829 121.167 163.788C121.252 163.747 121.343 163.725 121.435 163.726H132.806C132.991 163.726 133.169 163.814 133.301 163.97C133.433 164.126 133.509 164.337 133.511 164.559Z" stroke="#CCDDE2" stroke-width="3.7" stroke-miterlimit="10"/>
<path d="M148.504 164.559V171.303C148.504 171.414 148.487 171.524 148.451 171.626C148.416 171.729 148.364 171.822 148.299 171.9C148.233 171.979 148.155 172.041 148.069 172.083C147.984 172.125 147.892 172.147 147.799 172.146H136.432C136.339 172.146 136.248 172.124 136.163 172.081C136.078 172.039 136.001 171.976 135.936 171.898C135.871 171.82 135.82 171.727 135.785 171.625C135.75 171.523 135.732 171.413 135.732 171.303V164.559C135.732 164.45 135.751 164.341 135.786 164.24C135.821 164.138 135.873 164.046 135.937 163.969C136.002 163.892 136.079 163.83 136.164 163.789C136.249 163.747 136.34 163.726 136.432 163.726H147.799C147.891 163.725 147.983 163.747 148.068 163.788C148.153 163.829 148.231 163.89 148.296 163.968C148.362 164.045 148.414 164.137 148.45 164.239C148.485 164.34 148.504 164.449 148.504 164.559Z" stroke="#CCDDE2" stroke-width="3.7" stroke-miterlimit="10"/>
<path d="M163.489 164.559V171.303C163.49 171.413 163.472 171.523 163.438 171.625C163.403 171.727 163.352 171.819 163.287 171.898C163.223 171.976 163.145 172.039 163.061 172.081C162.976 172.124 162.885 172.146 162.793 172.146H151.434C151.341 172.147 151.249 172.125 151.163 172.083C151.078 172.041 151 171.979 150.934 171.9C150.869 171.822 150.817 171.729 150.782 171.626C150.746 171.524 150.728 171.414 150.729 171.303V164.559C150.729 164.449 150.748 164.34 150.783 164.239C150.819 164.137 150.871 164.045 150.936 163.968C151.002 163.89 151.08 163.829 151.165 163.788C151.25 163.747 151.341 163.725 151.434 163.726H162.804C162.987 163.73 163.161 163.819 163.289 163.975C163.417 164.131 163.489 164.341 163.489 164.559Z" stroke="#CCDDE2" stroke-width="3.7" stroke-miterlimit="10"/>
<path d="M126.419 176.341V183.092C126.417 183.315 126.342 183.527 126.21 183.684C126.078 183.84 125.9 183.928 125.714 183.928H114.343C114.157 183.928 113.979 183.84 113.847 183.684C113.715 183.527 113.64 183.315 113.638 183.092V176.341C113.641 176.12 113.716 175.908 113.848 175.752C113.98 175.596 114.158 175.509 114.343 175.509H125.714C125.899 175.509 126.077 175.596 126.209 175.752C126.341 175.908 126.416 176.12 126.419 176.341Z" stroke="#CCDDE2" stroke-width="3.7" stroke-miterlimit="10"/>
<path d="M140.667 175.509H129.287C128.903 175.509 128.591 175.881 128.591 176.341V183.096C128.591 183.556 128.903 183.928 129.287 183.928H140.667C141.051 183.928 141.363 183.556 141.363 183.096V176.341C141.363 175.881 141.051 175.509 140.667 175.509Z" stroke="#CCDDE2" stroke-width="3.7" stroke-miterlimit="10"/>
<path d="M174.028 97.819C174.025 98.8693 173.674 99.8757 173.053 100.618C172.431 101.361 171.59 101.779 170.711 101.782H109.048C108.169 101.781 107.327 101.363 106.706 100.62C106.084 99.8771 105.735 98.8696 105.734 97.819C105.737 96.769 106.087 95.7629 106.708 95.0208C107.329 94.2783 108.17 93.8595 109.048 93.8561H170.711C171.147 93.8551 171.578 93.957 171.98 94.1556C172.383 94.3543 172.749 94.6462 173.057 95.0145C173.365 95.3825 173.609 95.8196 173.776 96.3008C173.942 96.7821 174.028 97.298 174.028 97.819Z" stroke="#CCDDE2" stroke-width="3.7" stroke-miterlimit="10"/>
<path d="M161.628 199.82H117.963C116.928 199.82 116.088 200.824 116.088 202.063V202.149C116.088 203.387 116.928 204.391 117.963 204.391H161.628C162.664 204.391 163.503 203.387 163.503 202.149V202.063C163.503 200.824 162.664 199.82 161.628 199.82Z" stroke="#CCDDE2" stroke-width="3.7" stroke-miterlimit="10"/>
<path d="M161.628 209.253H117.963C116.928 209.253 116.088 210.256 116.088 211.495V211.581C116.088 212.82 116.928 213.824 117.963 213.824H161.628C162.664 213.824 163.503 212.82 163.503 211.581V211.495C163.503 210.256 162.664 209.253 161.628 209.253Z" stroke="#CCDDE2" stroke-width="3.7" stroke-miterlimit="10"/>
<path d="M161.628 218.685H117.963C116.928 218.685 116.088 219.689 116.088 220.927V221.014C116.088 222.252 116.928 223.256 117.963 223.256H161.628C162.664 223.256 163.503 222.252 163.503 221.014V220.927C163.503 219.689 162.664 218.685 161.628 218.685Z" stroke="#CCDDE2" stroke-width="3.7" stroke-miterlimit="10"/>
<path d="M161.628 228.12H117.963C116.928 228.12 116.088 229.124 116.088 230.363V230.449C116.088 231.687 116.928 232.691 117.963 232.691H161.628C162.664 232.691 163.503 231.687 163.503 230.449V230.363C163.503 229.124 162.664 228.12 161.628 228.12Z" stroke="#CCDDE2" stroke-width="3.7" stroke-miterlimit="10"/>
<path d="M161.628 237.553H117.963C116.928 237.553 116.088 238.556 116.088 239.795V239.881C116.088 241.12 116.928 242.124 117.963 242.124H161.628C162.664 242.124 163.503 241.12 163.503 239.881V239.795C163.503 238.556 162.664 237.553 161.628 237.553Z" stroke="#CCDDE2" stroke-width="3.7" stroke-miterlimit="10"/>
<path d="M87.9069 67.3322H199.441C201.189 67.3322 202.866 68.1627 204.103 69.6415C205.339 71.1199 206.034 73.1255 206.034 75.2164V82.8174H81.3145V75.2164C81.3145 73.1255 82.0089 71.1199 83.2454 69.6415C84.4815 68.1627 86.1585 67.3322 87.9069 67.3322Z" stroke="#CCDDE2" stroke-width="3.7" stroke-miterlimit="10"/>
<path d="M194.128 190.437H206.12V203.486H217.5V218.474H228.581V230.211H239.487V240.537H262V254.302H194.128V190.437Z" stroke="#CCDDE2" stroke-width="3.7" stroke-miterlimit="10"/>
<path d="M196.39 161.543H206.198H206.496L217.517 174.727L228.628 188.012L239.49 201.002L244.626 207.145" stroke="#CCDDE2" stroke-width="3.7" stroke-miterlimit="10"/>
<path d="M206.198 203.486V161.543" stroke="#CCDDE2" stroke-width="3.7" stroke-miterlimit="10"/>
<path d="M239.49 230.215V201.003" stroke="#CCDDE2" stroke-width="3.7" stroke-miterlimit="10"/>
<path d="M217.517 209.359V174.723" stroke="#CCDDE2" stroke-width="3.7" stroke-miterlimit="10"/>
<path d="M228.581 188.011V219.621" stroke="#CCDDE2" stroke-width="3.7" stroke-miterlimit="10"/>
<path d="M95.9265 225.615V234.47" stroke="#CCDDE2" stroke-width="3.7" stroke-miterlimit="10"/>
<path d="M84.9544 234.471V229.026C85.4195 230.622 86.6704 232.015 88.2824 232.702C87.7596 228.142 86.7369 220.955 84.9544 214.526" stroke="#CCDDE2" stroke-width="3.7" stroke-miterlimit="10"/>
<path d="M95.9264 207.881V131.94H84.9544V204.468" stroke="#CCDDE2" stroke-width="3.7" stroke-miterlimit="10"/>
<path d="M84.9544 229.033V234.471" stroke="#CCDDE2" stroke-width="3.7" stroke-miterlimit="10"/>
<path d="M84.9544 204.468V131.94H16.6553V254.309H84.0675H84.9544" stroke="#CCDDE2" stroke-width="3.7" stroke-miterlimit="10"/>
<path d="M37.4293 149.862V197.676C37.4293 201.99 40.3537 205.487 43.9611 205.487H59.2722C62.8796 205.487 65.804 201.99 65.804 197.676V149.862C65.804 145.548 62.8796 142.05 59.2722 142.05H43.9611C40.3537 142.05 37.4293 145.548 37.4293 149.862Z" stroke="#CCDDE2" stroke-width="3.7" stroke-miterlimit="10"/>
<path d="M41.4651 152.584V165.409C41.4651 168.449 43.5254 170.913 46.0671 170.913H57.1951C59.7367 170.913 61.7971 168.449 61.7971 165.409V152.584C61.7971 149.545 59.7367 147.081 57.1951 147.081H46.0671C43.5254 147.081 41.4651 149.545 41.4651 152.584Z" stroke="#CCDDE2" stroke-width="3.7" stroke-miterlimit="10"/>
<path d="M41.4824 182.329V195.115C41.4824 198.155 43.5428 200.619 46.0844 200.619H57.1778C59.7194 200.619 61.7798 198.155 61.7798 195.115V182.329C61.7798 179.289 59.7194 176.825 57.1778 176.825H46.0844C43.5428 176.825 41.4824 179.289 41.4824 182.329Z" stroke="#CCDDE2" stroke-width="3.7" stroke-miterlimit="10"/>
<path d="M38.5011 212.725H27.1073C26.726 212.725 26.4169 213.095 26.4169 213.551V220.323C26.4169 220.779 26.726 221.148 27.1073 221.148H38.5011C38.8824 221.148 39.1915 220.779 39.1915 220.323V213.551C39.1915 213.095 38.8824 212.725 38.5011 212.725Z" stroke="#CCDDE2" stroke-width="3.7" stroke-miterlimit="10"/>
<path d="M53.5002 212.725H42.1065C41.7251 212.725 41.416 213.095 41.416 213.551V220.323C41.416 220.779 41.7251 221.148 42.1065 221.148H53.5002C53.8816 221.148 54.1907 220.779 54.1907 220.323V213.551C54.1907 213.095 53.8816 212.725 53.5002 212.725Z" stroke="#CCDDE2" stroke-width="3.7" stroke-miterlimit="10"/>
<path d="M68.4993 212.725H57.1055C56.7242 212.725 56.4151 213.095 56.4151 213.551V220.323C56.4151 220.779 56.7242 221.148 57.1055 221.148H68.4993C68.8807 221.148 69.1898 220.779 69.1898 220.323V213.551C69.1898 213.095 68.8807 212.725 68.4993 212.725Z" stroke="#CCDDE2" stroke-width="3.7" stroke-miterlimit="10"/>
<path d="M46.4109 224.51H35.0171C34.6358 224.51 34.3267 224.88 34.3267 225.336V232.108C34.3267 232.564 34.6358 232.933 35.0171 232.933H46.4109C46.7922 232.933 47.1013 232.564 47.1013 232.108V225.336C47.1013 224.88 46.7922 224.51 46.4109 224.51Z" stroke="#CCDDE2" stroke-width="3.7" stroke-miterlimit="10"/>
<path d="M61.358 224.51H49.9642C49.5829 224.51 49.2738 224.88 49.2738 225.336V232.108C49.2738 232.564 49.5829 232.933 49.9642 232.933H61.358C61.7394 232.933 62.0485 232.564 62.0485 232.108V225.336C62.0485 224.88 61.7394 224.51 61.358 224.51Z" stroke="#CCDDE2" stroke-width="3.7" stroke-miterlimit="10"/>
<path d="M8.71956 116.334H95.964V131.809H2V124.373C2.00075 122.242 2.70888 120.198 3.96878 118.691C5.22868 117.183 6.9374 116.335 8.71956 116.334Z" stroke="#CCDDE2" stroke-width="3.7" stroke-miterlimit="10"/>
<path d="M90.5444 217.991C91.1424 217.411 91.8358 216.875 92.3153 216.236C93.6616 214.436 93.1444 212.135 94.0082 210.159C95.0598 207.74 98.3647 206.065 101.615 206.286C101.307 207.423 101.096 208.594 100.985 209.782C100.89 210.839 101.121 212.014 100.866 213.04C100.453 214.685 98.2462 215.683 97.9776 217.373C97.7407 218.865 99.2024 220.261 98.9598 221.781C98.7027 223.412 96.6082 224.314 95.8369 225.755C95.2071 226.929 95.5047 228.27 95.1782 229.517C94.7824 231.023 93.4131 232.354 91.6191 232.972L91.44 233.034C90.781 232.358 90.2157 231.562 89.7644 230.674" stroke="#CCDDE2" stroke-width="3.7" stroke-miterlimit="10"/>
<path d="M99.6444 208.178C94.7998 214.09 92.5204 226.552 91.6336 232.978C91.5613 233.521 91.4949 234.015 91.44 234.467" stroke="#CCDDE2" stroke-width="3.7" stroke-miterlimit="10"/>
<path d="M100.078 238.088L97.8475 252.993C97.7857 253.411 97.6029 253.79 97.3307 254.063C97.0586 254.336 96.7148 254.486 96.3598 254.486H84.7089C84.3504 254.486 84.0034 254.333 83.7304 254.055C83.4574 253.777 83.2757 253.392 83.2182 252.969L81.1555 238.088H100.078Z" stroke="#CCDDE2" stroke-width="3.7" stroke-miterlimit="10"/>
<path d="M102.195 236.426C102.164 236.879 101.992 237.302 101.712 237.609C101.433 237.917 101.067 238.088 100.687 238.088H80.5778C80.2014 238.089 79.8385 237.921 79.56 237.618C79.2818 237.315 79.1079 236.899 79.0727 236.451C79.0524 236.2 79.0764 235.947 79.1429 235.707C79.2093 235.468 79.3171 235.248 79.4586 235.061C79.6005 234.874 79.7729 234.725 79.9659 234.623C80.1586 234.521 80.3669 234.468 80.5778 234.467H100.676C100.886 234.466 101.094 234.516 101.287 234.616C101.48 234.716 101.653 234.862 101.796 235.047C101.939 235.231 102.049 235.449 102.117 235.686C102.186 235.924 102.213 236.176 102.195 236.426Z" stroke="#CCDDE2" stroke-width="3.7" stroke-miterlimit="10"/>
<path d="M84.9544 229.026C84.9203 228.913 84.8915 228.798 84.8678 228.681C84.5471 227.236 84.8331 225.671 84.2293 224.317C83.4869 222.648 81.482 221.605 81.2278 219.712C81.0024 217.956 82.4064 216.333 82.1724 214.602C81.9182 212.649 79.7978 211.492 79.3962 209.581C79.1564 208.4 79.376 207.035 79.2893 205.809C79.1816 204.44 78.9767 203.086 78.6769 201.759C81.0747 201.562 83.5013 202.665 84.9544 204.454C85.3901 204.971 85.7399 205.582 85.9858 206.254C86.8149 208.538 86.3209 211.205 87.6151 213.292C88.32 214.422 89.49 215.265 90.0909 216.447C90.2919 216.832 90.4326 217.258 90.5069 217.704C90.5098 217.737 90.5147 217.769 90.5213 217.801C90.5358 217.863 90.5415 217.922 90.5502 217.974C90.7669 219.722 90.2093 221.615 90.3884 223.415C90.5502 224.908 91.2262 226.404 90.8391 227.862C90.5678 228.842 90.2076 229.784 89.7644 230.671C89.405 231.435 88.9631 232.139 88.45 232.764C88.3922 232.747 88.3402 232.72 88.2824 232.695C87.7595 228.135 86.7369 220.948 84.9544 214.519" stroke="#CCDDE2" stroke-width="3.7" stroke-miterlimit="10"/>
<path d="M88.4731 234.463C88.4211 233.931 88.3547 233.351 88.2824 232.708C87.7595 228.147 86.7369 220.961 84.9544 214.531C83.8307 210.437 82.3978 206.633 80.5893 203.973" stroke="#CCDDE2" stroke-width="3.7" stroke-miterlimit="10"/>
<path d="M87.6151 213.302C87.6151 213.302 87.9358 207.352 90.6196 205.542C93.3033 203.731 93.2456 213.875 93.2456 213.875" stroke="#CCDDE2" stroke-width="3.7" stroke-miterlimit="10"/>
<path d="M90.5445 217.991C90.2414 215.732 90.3827 213.421 90.9576 211.24" stroke="#CCDDE2" stroke-width="3.7" stroke-miterlimit="10"/>
<path d="M130.966 106.681C131.338 107.164 131.554 107.792 131.572 108.449C131.591 109.105 131.411 109.749 131.067 110.261L124.391 123.994L124.157 126.758L122.08 151.721L118.78 191.367C118.76 191.619 118.717 191.871 118.679 192.123C118.659 192.324 118.636 192.524 118.607 192.725C118.564 192.984 118.512 193.229 118.463 193.478C118.414 193.727 118.382 193.889 118.33 194.089C118.278 194.29 118.208 194.566 118.136 194.801L117.96 195.392C117.882 195.627 117.801 195.851 117.72 196.083C117.639 196.314 117.567 196.459 117.489 196.649C117.411 196.839 117.307 197.085 117.2 197.292C117.093 197.499 117.024 197.658 116.932 197.831C116.839 198.004 116.721 198.239 116.602 198.439C116.484 198.64 116.4 198.785 116.299 198.944C116.079 199.289 115.863 199.614 115.623 199.925C115.499 200.098 115.369 200.27 115.239 200.436C115.109 200.602 114.95 200.757 114.817 200.916C114.684 201.075 114.554 201.21 114.415 201.348C114.277 201.486 114.126 201.645 113.968 201.784C113.809 201.922 113.679 202.053 113.531 202.174C113.384 202.295 113.216 202.437 113.058 202.568C112.899 202.699 112.746 202.799 112.587 202.913C112.428 203.027 112.257 203.141 112.093 203.259C111.928 203.376 111.758 203.459 111.584 203.553C111.411 203.646 111.249 203.753 111.076 203.839C110.902 203.926 110.703 204.015 110.515 204.091C110.328 204.168 110.18 204.247 110.013 204.309C109.695 204.43 109.368 204.534 109.039 204.624C108.851 204.675 108.669 204.717 108.482 204.751C108.294 204.786 108.118 204.838 107.93 204.876H107.959L110.536 211.44L112.948 211.468C112.169 211.6 111.381 211.641 110.596 211.589L114.415 221.328C115.029 222.89 115.302 224.612 115.211 226.334C115.119 228.056 114.666 229.722 113.893 231.179C113.12 232.636 112.052 233.836 110.787 234.667C109.523 235.499 108.104 235.935 106.662 235.936H102.039C101.86 235.937 101.683 235.979 101.518 236.062C101.353 236.144 101.203 236.265 101.077 236.416C100.951 236.568 100.851 236.748 100.783 236.946C100.715 237.144 100.681 237.356 100.682 237.57V238.379C102.259 239.018 103.596 240.307 104.453 242.016C105.31 243.724 105.631 245.741 105.36 247.707C105.089 249.673 104.243 251.46 102.973 252.749C101.703 254.038 100.091 254.746 98.4253 254.746C96.7593 254.746 95.1476 254.038 93.8773 252.749C92.6074 251.46 91.7612 249.673 91.4902 247.707C91.2193 245.741 91.5408 243.724 92.3979 242.016C93.2548 240.307 94.5915 239.018 96.1691 238.379V237.57C96.1694 237.356 96.1344 237.143 96.0662 236.945C95.9978 236.747 95.8975 236.567 95.7707 236.415C95.6442 236.263 95.4937 236.143 95.3281 236.061C95.1623 235.978 94.9849 235.936 94.8055 235.936H43.8022C43.6228 235.936 43.4454 235.978 43.2796 236.061C43.1141 236.143 42.9635 236.263 42.837 236.415C42.7102 236.567 42.6099 236.747 42.5415 236.945C42.4733 237.143 42.4383 237.356 42.4386 237.57V238.379C44.0189 239.018 45.3576 240.309 46.2162 242.019C47.0747 243.73 47.3974 245.75 47.1261 247.718C46.8552 249.687 46.0082 251.476 44.7365 252.768C43.4645 254.059 41.8507 254.767 40.1824 254.767C38.5141 254.767 36.9004 254.059 35.6284 252.768C34.3567 251.476 33.5097 249.687 33.2387 247.718C32.9674 245.75 33.2901 243.73 34.1487 242.019C35.0073 240.309 36.346 239.018 37.9262 238.379V237.57C37.9262 237.137 37.7823 236.721 37.5261 236.415C37.2698 236.108 36.922 235.936 36.5598 235.936H28.6326C28.2678 235.935 27.9116 235.805 27.6088 235.562C27.3058 235.318 27.07 234.974 26.9311 234.57C26.7918 234.167 26.7557 233.724 26.8274 233.296C26.8987 232.868 27.0747 232.475 27.3326 232.167C27.5031 231.962 27.7056 231.8 27.9289 231.69C28.1519 231.579 28.3911 231.523 28.6326 231.524H105C105.964 231.523 106.913 231.231 107.757 230.676C108.602 230.121 109.317 229.321 109.835 228.349C110.353 227.377 110.658 226.264 110.722 225.114C110.786 223.964 110.607 222.813 110.2 221.767L103.634 204.82L37.8222 198.456C37.7719 198.442 37.7205 198.433 37.6691 198.429C37.3802 198.394 37.0913 198.349 36.8024 198.291C36.7053 198.276 36.6089 198.255 36.5135 198.228C36.1871 198.159 35.8751 198.073 35.5602 197.976L35.2915 197.883C35.0026 197.776 34.7138 197.665 34.4249 197.537L34.1995 197.434C33.9366 197.313 33.6766 197.175 33.4224 197.026C33.3147 196.972 33.2095 196.911 33.1075 196.843C32.8764 196.705 32.6453 196.556 32.42 196.39C30.5237 195.058 28.9516 193.156 27.8593 190.873C26.7667 188.59 26.1918 186.006 26.1915 183.375V149.257C26.1921 145.618 27.2899 142.101 29.2832 139.351C31.2768 136.601 34.0325 134.803 37.0451 134.287L119.48 120.121L127.6 106.671C127.817 106.397 128.078 106.179 128.368 106.031C128.658 105.882 128.97 105.806 129.285 105.807C129.6 105.808 129.912 105.886 130.201 106.036C130.49 106.187 130.75 106.406 130.966 106.681Z" fill="white"/>
<path d="M224.782 222.999C219.452 209.774 208.48 186.166 193.412 171.907L191.944 140.228C193.056 140.163 194.157 139.93 195.22 139.537C196.428 139.302 197.243 138.936 197.532 138.397C197.753 137.949 197.909 137.458 197.991 136.946C198.233 136.315 198.348 135.625 198.326 134.932C198.326 134.586 198.303 134.175 198.297 133.757C198.404 130.274 198.121 125.268 197.78 119.326C197.43 110.757 197.04 102.396 197.032 102.32V102.303C197.032 102.182 197.075 94.6741 197.367 86.3856C197.742 91.0879 199.372 94.0315 201.507 95.8385C203.818 98.1153 206.848 98.7338 209.448 98.7338C211.349 98.7289 213.242 98.4304 215.079 97.8458C218.173 96.6919 220.718 94.8504 222.607 92.2246C224.34 90.2276 225.785 87.6812 226.181 84.551C226.541 82.0189 226.427 79.4228 225.846 76.95C225.335 74.0741 223.971 71.5164 222.006 69.7498C221.544 69.2827 221.035 68.8882 220.49 68.5751C219.574 67.9394 218.629 67.3244 217.734 66.6196C216.525 65.6087 215.472 64.3542 214.622 62.9124C214.063 61.68 213.721 60.3225 213.62 58.9253C213.711 56.5911 213.684 54.2525 213.539 51.9221C213.539 51.4349 213.496 50.9478 213.452 50.471C213.342 48.8022 213.241 47.6482 213.241 47.6482C212.056 43.9973 210.031 40.8219 207.4 38.4891C207.238 38.3336 207.074 38.185 206.912 38.0365C204.603 36.0201 201.921 34.7 199.094 34.1876C198.834 34.1427 198.572 34.1081 198.317 34.0839C197.483 33.9212 196.64 33.8314 195.795 33.8145C194.716 33.2738 193.788 32.3748 193.123 31.2232C192.539 29.9525 192.125 28.5805 191.895 27.1567C191.569 24.828 191.54 22.0329 191.378 18.8094C191.403 15.5724 190.699 12.3869 189.339 9.58804C189.333 9.56628 189.323 9.54624 189.31 9.52931C188.729 8.36291 188.025 7.29116 187.215 6.34035C184.884 3.03737 181.637 0.971294 177.598 2.17709C177.561 2.17709 177.523 2.20472 177.48 2.222C177.312 2.222 177.148 2.222 176.98 2.25655C176.975 2.25482 176.97 2.25482 176.966 2.25655C175.385 2.41375 173.853 2.9897 172.482 3.94259C171.977 4.29258 171.5 4.69716 171.058 5.15184C168.386 7.91583 166.852 12.1896 166.436 16.422C166.415 16.5948 166.407 16.7675 166.401 16.9403C165.933 17.615 165.656 18.4494 165.609 19.3242C165.564 20.1748 165.725 21.0234 166.074 21.7666C166.423 22.5097 166.945 23.1161 167.577 23.5117V23.7293C167.621 25.2236 167.895 26.6958 168.383 28.0723C169.203 30.4009 170.671 33.0509 173.155 33.4759C173.245 33.4759 173.331 33.4931 173.409 33.5104L175.226 37.3869L175.663 39.6361L176.674 44.8497L177.02 44.6148C177.422 44.3453 177.821 44.0792 178.234 43.8167L178.497 44.3902C176.944 45.4516 175.462 46.6525 174.062 47.9834C170.489 51.2069 166.1 56.1337 163.012 62.8744C161.195 66.6472 159.91 70.7483 159.511 75.1016C159.509 75.1597 159.504 75.217 159.496 75.2744C159.444 75.6648 159.401 76.0552 159.366 76.456V74.5523C159.303 74.5523 159.242 74.5177 159.179 74.5108V74.4763C158.956 74.4376 158.735 74.3847 158.517 74.3173L141.866 62.4598C141.118 61.6582 140.578 60.6176 140.308 59.4609C139.847 57.2307 138.804 55.234 137.33 53.7601C136.072 52.5885 134.589 51.8098 133.017 51.4936C132.922 51.466 132.82 51.4487 132.728 51.4315C132.792 51.2649 132.825 51.0842 132.825 50.9011C132.826 50.718 132.793 50.537 132.731 50.3701C132.668 50.2029 132.577 50.0536 132.462 49.9323C132.348 49.8111 132.213 49.7202 132.066 49.666L119.76 45.019C119.503 44.9212 119.225 44.9419 118.98 45.0767C118.735 45.2118 118.542 45.4512 118.437 45.748L115.603 53.767C115.545 53.9329 115.517 54.1112 115.52 54.2908C115.523 54.4701 115.557 54.647 115.621 54.8097C115.685 54.9725 115.776 55.1172 115.889 55.2351C116.003 55.3532 116.135 55.4417 116.279 55.4945L116.599 55.6155V55.65L123.874 58.3484L124.006 58.4002C124.006 58.5729 124.006 58.7457 124.021 58.9184C124.041 59.7438 124.113 60.5661 124.238 61.3784C124.29 61.7239 124.353 62.0694 124.425 62.4149C124.469 62.6049 124.506 62.788 124.564 62.9711L124.587 63.0679C124.63 63.2303 124.674 63.4134 124.732 63.5689C124.746 63.6335 124.763 63.6967 124.784 63.7589C124.788 63.7609 124.793 63.7609 124.798 63.7589C124.978 64.3175 125.205 64.8534 125.474 65.3585C126.108 66.5436 127.035 67.4637 128.126 67.9912C129.157 68.4749 130.261 68.3817 131.304 68.8757C132.107 69.2772 132.842 69.8483 133.476 70.5618L133.869 71.0731C133.658 71.4497 131.763 74.9496 133.13 76.0517L133.078 76.0794L134.458 77.1159L151.402 90.4971C151.569 90.6525 151.743 90.8011 151.91 90.9462L150.691 92.5528C147.328 93.9762 143.359 95.531 140.213 96.6089C138.327 97.1825 136.423 97.6869 134.505 98.0946C131.561 98.7027 128.559 98.7303 125.633 99.328C123.504 99.7461 121.701 102.12 121.3 104.777C120.964 106.939 120.884 109.268 122.883 110.381C125.171 111.652 126.312 107.758 127.698 106.376C129.836 104.213 131.962 106.794 134.187 108.263C134.389 109.686 134.739 111.058 135.007 112.457C135.078 112.953 135.239 113.425 135.478 113.839C135.886 114.464 136.313 114.53 136.692 114.299L136.596 114.395C137.324 114.165 138.058 113.935 138.798 113.704C139.491 113.575 140.174 113.378 140.84 113.113C145.803 111.704 151.093 110.391 156.382 108.802H156.402C156.651 108.726 156.905 108.646 157.151 108.577C157.233 108.574 157.316 108.59 157.393 108.625C157.47 108.66 157.541 108.713 157.601 108.781C157.661 108.849 157.709 108.93 157.743 109.02C157.777 109.11 157.795 109.207 157.798 109.306C157.769 109.759 157.731 110.218 157.697 110.688C157.312 112.713 156.68 118.178 155.963 122.59C155.57 124.546 155.163 126.37 154.77 127.987C154.132 129.715 153.508 131.418 153.704 132.824C153.726 133.451 153.929 134.05 154.279 134.518C154.629 134.985 155.104 135.293 155.622 135.388L156.535 135.554C157.162 135.733 158.222 135.951 159.551 136.179C159.733 137.723 159.93 139.288 160.146 140.809L160.198 141.192C160.352 142.198 160.51 143.224 160.669 144.239V144.267V144.302L160.799 145.134L160.938 146.033L159.884 157.206L159.569 160.616L151.549 245.191L143.114 247.875L136.793 249.893C136.562 249.952 136.343 250.061 136.146 250.214C135.852 250.434 135.611 250.74 135.444 251.103C135.278 251.466 135.192 251.874 135.195 252.287C135.196 252.693 135.283 253.091 135.449 253.445C135.54 253.654 135.655 253.847 135.79 254.018C136.07 254.348 136.423 254.575 136.807 254.671C136.95 254.712 137.097 254.732 137.243 254.73H161.88L163.902 245.198L175.978 188.052L176.61 188.743C176.61 188.743 176.61 188.771 176.633 188.778V188.795L195.151 209.85L195.371 210.081L195.66 210.427L199.516 214.804L199.805 215.126L199.921 215.264C214.322 231.903 214.836 234.076 214.515 234.304H214.333L207.689 250.791C207.482 251.309 207.432 251.897 207.549 252.454C207.666 253.011 207.941 253.502 208.327 253.842L208.792 254.25C209.21 254.611 209.727 254.771 210.239 254.696C210.751 254.622 211.221 254.32 211.554 253.849L228.422 230.269C228.422 230.269 227.172 228.89 224.782 222.999ZM137.2 113.78C137.287 113.653 137.368 113.519 137.44 113.379C137.443 113.423 137.456 113.465 137.477 113.5L137.2 113.78ZM151.497 92.2073C151.592 92.1555 151.685 92.1105 151.786 92.0656L152.783 91.5992L152.826 91.6234C152.398 91.8134 151.954 92.0138 151.497 92.2073ZM158.26 74.2413C157.398 73.9183 156.603 73.3786 155.929 72.6589L155.007 71.999L158.422 74.2759C158.364 74.2793 158.312 74.2793 158.26 74.262V74.2413Z" fill="white"/>
<path d="M153.713 91.8315L153.21 91.6069C153.174 91.5841 153.139 91.5585 153.106 91.5309C150.48 89.4994 148.429 86.6317 146.676 83.5844C144.827 80.3678 138.483 77.0579 136.432 74.0106C135.117 72.0827 133.742 69.8646 131.728 68.9041C130.691 68.417 129.582 68.5103 128.551 68.0197C127.459 67.4952 126.532 66.5741 125.902 65.387C125.628 64.8808 125.398 64.3425 125.217 63.7804C125.195 63.7161 125.176 63.6505 125.162 63.5835C125.094 63.3883 125.039 63.1872 124.997 62.9823C124.942 62.7957 124.902 62.6161 124.862 62.426C124.782 62.085 124.72 61.7388 124.674 61.3895C124.566 60.6084 124.498 59.8203 124.469 59.0298V58.9918C124.446 58.1902 124.454 57.4025 124.486 56.632V56.6113H124.454L121.505 55.3709C121.098 55.2099 120.734 54.9204 120.454 54.5331C120.173 54.1458 119.985 53.6745 119.91 53.1701C119.87 52.8889 119.878 52.6007 119.933 52.3236C120 51.9571 120.134 51.6126 120.324 51.3144C120.514 51.0159 120.756 50.771 121.034 50.5961C121.29 50.4334 121.572 50.336 121.861 50.3101C122.15 50.2838 122.441 50.3294 122.715 50.4441L128.652 53.0215L129.871 53.5467L129.903 53.5674C129.903 53.5674 129.903 51.4046 131.636 51.4495C133.239 51.4979 139.049 52.0611 140.771 59.6586C141.039 60.8136 141.58 61.8522 142.328 62.6506L156.362 72.7012C157.316 73.7353 158.513 74.3927 159.791 74.5842V76.7159C159.789 76.7176 159.788 76.72 159.787 76.7228C159.786 76.7256 159.785 76.7283 159.785 76.7314C159.785 76.7342 159.786 76.737 159.787 76.7397C159.788 76.7425 159.789 76.7449 159.791 76.747V78.2983L160.906 87.644L161.692 94.1774C160.667 94.2773 159.635 94.233 158.618 94.0461L157.951 93.7455H157.934L153.713 91.8315Z" fill="white"/>
<path d="M159.606 76.605V76.6326C159.274 80.1325 158.945 84.1956 158.685 88.6905C156.813 89.727 154.903 90.6253 153.025 91.5202C152.99 91.4974 152.955 91.4721 152.921 91.4442C151.645 90.4419 150.474 89.2613 149.432 87.927L133.502 76.104C134.488 75.5077 135.366 74.6861 136.088 73.6855L136.137 73.6268C139.138 69.771 141.741 63.2618 142.065 62.4464L142.134 62.5328L156.168 72.5834C157.123 73.6167 158.32 74.2732 159.598 74.4629L159.606 76.605Z" fill="#2E2E2E"/>
<path d="M131.35 56.7733L131.029 57.8098L130.723 58.8152L130.556 59.3853L130.532 59.4717L130.501 59.5753C130.425 59.8345 130.267 60.0473 130.061 60.1672C129.854 60.2867 129.617 60.304 129.4 60.2145L124.321 58.3488H124.298L117.001 55.6678L118.896 50.3091L119.731 47.9493C119.837 47.6525 120.032 47.4138 120.278 47.2797C120.524 47.1453 120.803 47.1256 121.06 47.2237L131.116 51.0242C130.79 50.9354 130.459 50.8788 130.125 50.8549C129.888 50.838 129.651 50.8843 129.431 50.99C129.21 51.0958 129.013 51.2585 128.851 51.4665C128.698 51.6741 128.588 51.9218 128.53 52.1893C128.471 52.4567 128.465 52.7369 128.513 53.0074C128.664 53.7019 128.962 54.3376 129.38 54.8524C129.42 54.9076 129.461 54.956 129.507 55.0113C129.88 55.5067 130.313 55.9338 130.79 56.2793C130.79 56.2793 130.804 56.2793 130.821 56.3069C130.988 56.4769 131.165 56.6327 131.35 56.7733Z" fill="#3FBDF1"/>
<path d="M124.431 58.3491C124.431 58.5357 124.431 58.7361 124.448 58.9227C124.469 59.7494 124.543 60.5728 124.668 61.3861C124.714 61.7354 124.777 62.0816 124.856 62.4226C124.896 62.6091 124.934 62.7888 124.989 62.9754C125.044 63.1619 125.101 63.39 125.171 63.5973C125.193 63.674 125.219 63.7489 125.249 63.8218" stroke="black" stroke-width="3.7" stroke-miterlimit="10"/>
<path d="M133.661 57.4685C133.372 57.4132 133.083 57.3476 132.794 57.2612C132.506 57.1748 132.292 57.0816 132.049 56.971C131.662 56.7906 131.291 56.5664 130.94 56.3007C130.94 56.3007 130.917 56.3007 130.908 56.2731C130.38 55.8875 129.906 55.4059 129.501 54.8462C129.083 54.3317 128.784 53.6957 128.634 53.0012C128.582 52.7307 128.585 52.4491 128.644 52.1803C128.702 51.9118 128.815 51.6645 128.972 51.4603C129.134 51.2523 129.332 51.0899 129.552 50.9842C129.773 50.8785 130.01 50.8322 130.246 50.8487C130.691 50.8906 131.132 50.9728 131.567 51.0941C132.188 51.2253 132.809 51.3463 133.424 51.4983C134.997 51.8189 136.479 52.597 137.74 53.7648C139.211 55.24 140.254 57.2346 140.719 59.4621C140.984 60.6181 141.522 61.6587 142.267 62.461L159.782 74.9335" stroke="black" stroke-width="3.7" stroke-miterlimit="10"/>
<path d="M124.451 58.9186C124.451 58.9186 125.012 62.688 129.394 62.5843C129.734 62.5695 130.062 62.4306 130.333 62.1867C130.605 61.9424 130.807 61.6045 130.914 61.2186C131.02 60.8323 131.025 60.4167 130.928 60.0273C130.831 59.6376 130.636 59.2931 130.371 59.0395L130.313 58.9877" stroke="black" stroke-width="3.7" stroke-miterlimit="10"/>
<path d="M125.156 63.5665C125.156 63.5665 127.303 66.2372 129.443 65.0833C131.336 64.0468 130.041 62.0187 130.041 62.0187" stroke="black" stroke-width="3.7" stroke-miterlimit="10"/>
<path d="M131.011 58.8662L130.856 58.8121" stroke="black" stroke-width="3.7" stroke-miterlimit="10"/>
<path d="M108.352 204.868C107.441 205.023 106.518 205.054 105.601 204.961L104.157 204.823L108.352 204.868Z" fill="#D7E8F0"/>
<path d="M124.587 126.776L119.199 191.384C118.917 194.76 117.693 197.925 115.725 200.368C113.757 202.812 111.159 204.394 108.349 204.858C107.438 205.014 106.515 205.046 105.598 204.952L104.154 204.814L38.2382 198.446C36.3281 198.268 34.4778 197.567 32.8302 196.397C32.0335 194.394 31.6218 192.203 31.6256 189.985V188.482L92.1854 194.355L93.6298 194.497C94.5464 194.587 95.4689 194.556 96.38 194.404C99.1898 193.937 101.787 192.356 103.755 189.912C105.723 187.468 106.947 184.305 107.231 180.929L111.564 129.052L124.587 126.776Z" fill="#3FBDF1"/>
<path d="M111.558 129.014L107.225 180.891C106.941 184.267 105.717 187.43 103.749 189.874C101.781 192.317 99.1839 193.9 96.3742 194.366C95.463 194.518 94.5409 194.549 93.624 194.459L92.1795 194.317L31.6198 188.444V155.86C31.6212 152.22 32.7187 148.703 34.7112 145.951C36.7039 143.2 39.4585 141.4 42.4704 140.879L111.558 129.014Z" fill="#D7E8F0"/>
<path d="M113.378 211.47C112.466 211.625 111.543 211.657 110.625 211.563L109.181 211.426L113.378 211.47Z" fill="#D7E8F0"/>
<path d="M108.386 204.868L114.846 221.335C115.458 222.897 115.73 224.618 115.638 226.339C115.546 228.06 115.092 229.726 114.319 231.182C113.545 232.638 112.477 233.837 111.214 234.668C109.95 235.499 108.531 235.935 107.089 235.936H102.467C102.288 235.935 102.111 235.977 101.945 236.059C101.78 236.14 101.63 236.26 101.503 236.411C101.376 236.562 101.276 236.742 101.207 236.939C101.139 237.137 101.103 237.349 101.103 237.563V245.592C101.103 246.308 100.866 246.995 100.443 247.501C100.019 248.006 99.4454 248.291 98.8471 248.291C98.2488 248.291 97.6748 248.006 97.2518 247.501C96.8286 246.995 96.5909 246.308 96.5909 245.592V237.56C96.5911 237.345 96.5562 237.133 96.4877 236.936C96.4193 236.738 96.319 236.558 96.1922 236.407C96.0654 236.255 95.9149 236.136 95.7493 236.054C95.5838 235.973 95.4064 235.931 95.2273 235.932H44.2269C44.048 235.932 43.871 235.974 43.7057 236.055C43.5405 236.137 43.3902 236.257 43.264 236.408C43.1375 236.559 43.0372 236.739 42.969 236.936C42.9009 237.134 42.8659 237.346 42.8662 237.56V245.589C42.8454 246.288 42.5984 246.951 42.1772 247.437C41.756 247.923 41.1938 248.194 40.6085 248.194C40.0232 248.194 39.4611 247.923 39.0399 247.437C38.619 246.951 38.3717 246.288 38.3509 245.589V237.56C38.3512 237.346 38.3162 237.134 38.248 236.936C38.1798 236.739 38.0796 236.559 37.9531 236.408C37.8268 236.257 37.6766 236.137 37.5114 236.055C37.3461 235.974 37.169 235.932 36.9902 235.932H29.0631C28.5858 235.91 28.1343 235.667 27.8032 235.255C27.4722 234.843 27.2873 234.294 27.2873 233.723C27.2873 233.151 27.4722 232.602 27.8032 232.191C28.1343 231.779 28.5858 231.536 29.0631 231.513H105.422C106.385 231.512 107.332 231.221 108.176 230.667C109.02 230.113 109.734 229.314 110.251 228.343C110.769 227.373 111.075 226.262 111.14 225.114C111.204 223.965 111.026 222.815 110.622 221.77L104.056 204.841" fill="#2E2E2E"/>
<path d="M105.598 204.962L38.2382 198.449C35.07 198.144 32.1143 196.423 29.9592 193.629C27.8041 190.835 26.6073 187.173 26.6075 183.372V149.257C26.6084 145.618 27.7059 142.101 29.6987 139.351C31.6917 136.601 34.4463 134.802 37.4582 134.283L119.89 120.118L128.016 106.661C128.234 106.386 128.496 106.167 128.788 106.018C129.079 105.869 129.392 105.794 129.709 105.796C130.026 105.798 130.339 105.878 130.628 106.031C130.918 106.184 131.178 106.407 131.393 106.685C131.763 107.17 131.977 107.796 131.996 108.452C132.015 109.107 131.838 109.75 131.497 110.264L124.812 124.012L119.205 191.384C118.876 195.327 117.266 198.959 114.722 201.498C112.177 204.037 108.902 205.281 105.598 204.962Z" stroke="black" stroke-width="3.7" stroke-miterlimit="10"/>
<path d="M105.893 246.325C105.896 247.871 105.542 249.389 104.869 250.711C104.197 252.033 103.233 253.107 102.084 253.816C100.934 254.525 99.643 254.841 98.3528 254.729C97.0626 254.617 95.8233 254.082 94.7712 253.182C93.719 252.282 92.8948 251.052 92.3893 249.628C91.8837 248.204 91.7165 246.641 91.9057 245.111C92.0949 243.581 92.6337 242.142 93.4622 240.954C94.2908 239.767 95.3776 238.875 96.6024 238.378V245.592C96.6024 246.308 96.8402 246.994 97.2631 247.5C97.6864 248.006 98.2604 248.29 98.8587 248.29C99.457 248.29 100.031 248.006 100.454 247.5C100.877 246.994 101.115 246.308 101.115 245.592V238.375C102.508 238.934 103.718 240.002 104.575 241.428C105.433 242.855 105.894 244.568 105.893 246.325Z" stroke="black" stroke-width="3.7" stroke-miterlimit="10"/>
<path d="M47.6444 246.325C47.6467 247.871 47.2926 249.388 46.6203 250.71C45.9481 252.031 44.9843 253.105 43.8346 253.813C42.6851 254.521 41.3943 254.836 40.1047 254.724C38.8148 254.611 37.5761 254.076 36.5245 253.175C35.473 252.275 34.6496 251.045 34.1446 249.622C33.64 248.198 33.4733 246.635 33.6634 245.105C33.8534 243.575 34.3925 242.138 35.2216 240.951C36.0507 239.764 37.1375 238.874 38.3624 238.378V245.592C38.3633 246.308 38.6016 246.994 39.0251 247.5C39.4486 248.006 40.023 248.29 40.6215 248.29C41.2198 248.29 41.7938 248.006 42.2171 247.5C42.64 246.994 42.8778 246.308 42.8778 245.592V238.375C44.269 238.935 45.4778 240.003 46.3332 241.43C47.1886 242.857 47.6473 244.569 47.6444 246.325Z" stroke="black" stroke-width="3.7" stroke-miterlimit="10"/>
<path d="M108.386 204.868L114.846 221.335C115.458 222.897 115.73 224.618 115.638 226.339C115.546 228.06 115.092 229.726 114.319 231.182C113.545 232.638 112.477 233.837 111.214 234.668C109.95 235.499 108.531 235.935 107.089 235.936H102.467C102.288 235.935 102.111 235.977 101.945 236.059C101.78 236.14 101.63 236.26 101.503 236.411C101.376 236.562 101.276 236.742 101.207 236.939C101.139 237.137 101.103 237.349 101.103 237.563V245.592C101.103 246.308 100.866 246.995 100.443 247.501C100.019 248.006 99.4454 248.291 98.8471 248.291C98.2488 248.291 97.6748 248.006 97.2518 247.501C96.8286 246.995 96.5909 246.308 96.5909 245.592V237.56C96.5912 237.345 96.5562 237.133 96.4877 236.936C96.4193 236.738 96.319 236.558 96.1922 236.407C96.0654 236.255 95.9149 236.136 95.7493 236.054C95.5838 235.973 95.4064 235.931 95.2273 235.932H44.2269C44.048 235.932 43.871 235.974 43.7057 236.055C43.5405 236.137 43.3902 236.257 43.264 236.408C43.1375 236.559 43.0372 236.739 42.969 236.936C42.9009 237.134 42.8659 237.346 42.8662 237.56V245.589C42.8454 246.288 42.5984 246.951 42.1772 247.437C41.756 247.923 41.1938 248.194 40.6085 248.194C40.0232 248.194 39.4611 247.923 39.0399 247.437C38.619 246.951 38.3717 246.288 38.3509 245.589V237.56C38.3512 237.346 38.3162 237.134 38.248 236.936C38.1798 236.739 38.0796 236.559 37.9531 236.408C37.8268 236.257 37.6766 236.137 37.5114 236.055C37.3461 235.974 37.169 235.932 36.9902 235.932H29.0631C28.5858 235.91 28.1343 235.667 27.8032 235.255C27.4722 234.843 27.2873 234.294 27.2873 233.723C27.2873 233.151 27.4722 232.602 27.8032 232.191C28.1343 231.779 28.5858 231.536 29.0631 231.513H105.422C106.385 231.512 107.332 231.221 108.176 230.667C109.02 230.113 109.734 229.314 110.251 228.343C110.769 227.373 111.075 226.262 111.14 225.114C111.204 223.965 111.026 222.815 110.622 221.77L104.056 204.841" stroke="black" stroke-width="3.7" stroke-miterlimit="10"/>
<path d="M131.515 56.6776L130.844 58.8128L130.662 59.3864L130.608 59.5764C130.532 59.8303 130.377 60.0394 130.174 60.1589C129.972 60.2781 129.739 60.2985 129.524 60.2156L124.431 58.3499L116.689 55.5029C116.546 55.4497 116.413 55.3613 116.3 55.2435C116.187 55.1257 116.095 54.9806 116.031 54.8178C115.968 54.6554 115.933 54.4785 115.93 54.2989C115.927 54.1196 115.955 53.9409 116.013 53.7755L118.844 45.753C118.951 45.4565 119.146 45.2181 119.392 45.0841C119.637 44.95 119.916 44.93 120.173 45.0274L132.477 49.6744C132.624 49.7276 132.76 49.8178 132.875 49.9383C132.991 50.0589 133.084 50.2078 133.148 50.3744C133.212 50.5412 133.246 50.7226 133.247 50.9061C133.249 51.0899 133.217 51.2716 133.156 51.4399" stroke="black" stroke-width="3.7" stroke-miterlimit="10"/>
<path d="M128.967 52.341L118.015 48.1017" stroke="black" stroke-width="3.7" stroke-miterlimit="10"/>
<path d="M142.279 62.46C142.279 62.46 138.067 73.4157 133.985 76.0173C133.955 76.0353 133.93 76.0619 133.911 76.0954C133.893 76.1286 133.883 76.167 133.881 76.2067C133.879 76.2464 133.886 76.2858 133.901 76.3214C133.917 76.3566 133.939 76.3867 133.967 76.4078L153.106 91.5164" stroke="black" stroke-width="3.7" stroke-miterlimit="10"/>
<path d="M134.311 71.0638C134.311 71.0638 131.948 75.1822 133.693 76.191" stroke="black" stroke-width="3.7" stroke-miterlimit="10"/>
<path d="M135.62 97.9437C135.62 97.9437 134.652 97.9955 136.593 100.918C138.535 103.841 139.193 109.404 137.873 113.381C137.873 113.381 137.815 114.417 141.27 113.125C144.726 111.833 156.844 108.81 156.844 108.81C156.844 108.81 158.737 107.618 158.15 110.637C157.564 113.657 156.417 124.765 155.218 127.968C154.019 131.17 152.852 134.346 156.977 135.548C161.103 136.75 183.607 139.279 183.607 139.279C183.607 139.279 198.918 143.339 198.756 134.929C198.595 126.52 197.471 102.311 197.471 102.311C197.471 102.311 197.563 83.6228 198.595 72.5737C198.595 72.5737 201.287 44.5019 193.282 41.9072C185.277 39.3125 182.558 42.073 180.528 43.3825C178.497 44.6919 160.594 55.8826 159.618 78.9689C159.618 78.9689 159.551 87.8897 158.04 89.2199C156.53 90.55 138.85 97.8643 135.62 97.9437Z" fill="#2E2E2E"/>
<path d="M164.318 245.191L162.296 254.724H137.674C137.133 254.719 136.616 254.464 136.229 254.012C135.971 253.702 135.787 253.314 135.696 252.891C135.605 252.466 135.611 252.021 135.713 251.6C135.815 251.18 136.01 250.8 136.276 250.5C136.543 250.199 136.872 249.99 137.229 249.894L151.985 245.191C151.985 245.191 160.528 248.781 164.318 245.191Z" fill="#2E2E2E"/>
<path d="M192.93 139.807C192.742 139.807 192.545 139.828 192.352 139.828C191.581 145.777 190.724 151.707 189.781 157.618C178.751 154.664 163.512 159.901 163.512 159.901L163.833 161.974C161.319 162.137 160.548 161.028 160.548 161.028L159.993 160.617L161.377 146.012L161.111 144.285V144.229C160.947 143.214 160.791 142.188 160.64 141.172L160.586 140.799C160.366 139.227 160.161 137.648 159.979 136.076L160.161 136.107C160.224 136.107 160.285 136.134 160.357 136.141L160.513 136.172C160.649 136.19 160.782 136.217 160.915 136.238C161.204 136.283 161.576 136.349 161.992 136.425C162.157 136.425 162.33 136.473 162.512 136.511C168.776 137.551 185.092 140.09 192.93 139.807Z" fill="#3FBDF1"/>
<path d="M176.434 187.866L176.396 188.046L164.318 245.192L162.296 254.724H137.674C137.133 254.72 136.616 254.465 136.229 254.012C135.971 253.702 135.787 253.314 135.696 252.89C135.606 252.466 135.612 252.02 135.714 251.599C135.816 251.179 136.01 250.798 136.276 250.498C136.543 250.197 136.872 249.988 137.229 249.891L151.985 245.192L159.993 160.617L161.377 146.013" stroke="black" stroke-width="3.7" stroke-miterlimit="10"/>
<path d="M138.506 109.058C137.639 109.107 137.154 109.117 137.154 109.117C136.287 109.19 135.446 108.796 134.614 108.26C132.39 106.792 130.258 104.218 128.12 106.381C126.736 107.763 125.595 111.653 123.307 110.385C121.311 109.276 121.389 106.93 121.718 104.781C122.129 102.121 123.928 99.7507 126.052 99.3257C128.975 98.7349 131.98 98.7072 134.921 98.0957C140.844 96.8001 146.642 94.7834 152.222 92.0771C158.419 89.1231 165.179 86.0792 169.755 80.0123C175.189 72.8293 178.641 63.4283 180.528 54.0791" stroke="black" stroke-width="3.7" stroke-miterlimit="10"/>
<path d="M169.102 15.4513C169.102 15.4513 169.642 4.6959 178.037 2.17721C186.432 -0.341477 191.442 11.3226 191.82 18.8096C192.199 26.2965 191.82 31.4617 196.232 33.818C196.232 33.818 208.98 33.6315 213.678 47.638C213.678 47.638 214.313 54.5031 214.053 58.922C213.793 63.3409 218.404 67.214 220.914 68.5753C223.425 69.9365 227.793 75.4853 226.605 84.5477C225.418 93.6101 215.506 97.8356 215.506 97.8356C215.506 97.8356 207.036 100.835 201.928 95.8282C196.506 90.5179 198.04 80.8059 198.04 80.8059C198.04 80.8059 200.966 49.2204 195.639 44.031C192.707 41.1737 191.375 41.4328 189.304 39.9265C187.123 38.3406 186.343 37.8535 185.612 36.7375C184.191 34.5505 181.672 31.2475 183.494 23.4565C185.317 15.6655 183.494 19.5938 181.761 18.4951C181.761 18.4951 179.635 14.5703 176.425 17.3446C173.216 20.119 173.999 13.3507 173.999 13.3507L172.589 15.6171C172.589 15.6171 170.385 16.1457 169.102 15.4513Z" fill="#3FBDF1"/>
<path d="M167.126 19.1699C167.048 14.1498 168.614 8.51124 171.875 5.16681C172.318 4.71075 172.794 4.30272 173.297 3.9472C176.821 1.45615 181.718 1.68072 185.225 4.10267C187.09 5.42766 188.646 7.29301 189.749 9.52701L189.778 9.5892C191.137 12.3888 191.842 15.5736 191.82 18.8106C191.838 23.0188 191.858 28.7299 194.117 32.2229C195.544 34.4341 197.442 33.8122 199.531 34.1888C202.359 34.697 205.042 36.0189 207.348 38.0411C210.462 40.7809 213.056 44.8681 213.773 49.484C214.463 53.9271 213.114 58.9369 215.116 63.0448C216.584 66.0472 219.374 67.4189 221.738 69.1706C226.481 72.7292 227.458 79.6254 225.955 85.6923C224.39 92.0184 220.709 95.9053 215.506 97.8435C215.506 97.8435 197.924 103.026 197.708 84.5971" stroke="black" stroke-width="3.7" stroke-miterlimit="10"/>
<path d="M173.753 13.0334C173.571 14.5122 172.82 15.8769 171.482 16.2846C169.974 16.7441 169.171 18.4992 168.75 20.2647C168.146 22.855 168.302 25.6138 169.192 28.0834C170.015 30.4052 171.485 33.0586 173.97 33.4836C178.517 34.2575 180.779 31.9668 180.779 31.9668" stroke="black" stroke-width="3.7" stroke-miterlimit="10"/>
<path d="M177.54 20.9347C177.973 20.9347 178.323 20.5156 178.323 19.9984C178.323 19.4812 177.973 19.0621 177.54 19.0621C177.108 19.0621 176.758 19.4812 176.758 19.9984C176.758 20.5156 177.108 20.9347 177.54 20.9347Z" fill="black"/>
<path d="M170.674 20.3207C171.106 20.3207 171.456 19.9013 171.456 19.3844C171.456 18.8672 171.106 18.4481 170.674 18.4481C170.241 18.4481 169.891 18.8672 169.891 19.3844C169.891 19.9013 170.241 20.3207 170.674 20.3207Z" fill="black"/>
<path d="M173.753 13.0334C173.581 13.9221 173.608 14.849 173.831 15.7214C173.865 15.8627 173.91 16.0002 173.964 16.1326C174.507 17.6562 175.77 18.8724 178.008 18.7204C182.87 18.399 184.604 18.0294 184.208 20.7001C184.044 21.645 183.808 22.5703 183.503 23.4641C182.969 25.1605 182.596 28.073 183.145 31.2447C183.778 34.9519 185.28 38.7386 190.344 40.8461" stroke="black" stroke-width="3.7" stroke-miterlimit="10"/>
<path d="M174.178 20.2268C174.178 20.2268 173.357 23.8131 173.441 24.3417C173.525 24.8703 174.574 24.4592 174.574 24.4592" stroke="black" stroke-width="3.7" stroke-miterlimit="10"/>
<path d="M174.756 27.7456C176.324 28.7579 178.144 28.1187 178.855 26.4258" stroke="black" stroke-width="3.7" stroke-miterlimit="10"/>
<path d="M181.385 23.7212C182.734 22.0116 182.641 19.2857 181.177 17.6328C179.713 15.9796 177.432 16.0255 176.082 17.7347C174.733 19.4442 174.826 22.1702 176.29 23.8231C177.755 25.4763 180.035 25.4304 181.385 23.7212Z" stroke="black" stroke-width="3.7" stroke-miterlimit="10"/>
<path d="M172.276 22.7209C173.626 21.0114 173.533 18.2857 172.068 16.6325C170.604 14.9796 168.323 15.0252 166.974 16.7348C165.625 18.4443 165.718 21.1699 167.182 22.8231C168.646 24.476 170.927 24.4304 172.276 22.7209Z" stroke="black" stroke-width="3.7" stroke-miterlimit="10"/>
<path d="M169.556 16.7444C169.634 16.7393 169.712 16.7393 169.79 16.7444C170.456 16.818 171.073 17.1995 171.509 17.8079C171.944 18.416 172.165 19.203 172.124 20.0025C172.087 20.7363 171.816 21.4249 171.366 21.9266C170.917 22.4279 170.323 22.704 169.709 22.6974C169.631 22.6974 169.553 22.6974 169.475 22.6974C168.808 22.6217 168.193 22.2396 167.757 21.6319C167.322 21.0241 167.101 20.2381 167.14 19.4393C167.177 18.7055 167.449 18.0166 167.898 17.5153C168.348 17.0136 168.941 16.7375 169.556 16.7444ZM169.556 16.1053C168.806 16.1004 168.083 16.4387 167.535 17.0499C166.987 17.6611 166.655 18.4999 166.606 19.3944C166.557 20.3601 166.823 21.3109 167.35 22.0458C167.876 22.781 168.62 23.2423 169.426 23.3331C169.521 23.3331 169.616 23.3504 169.714 23.3504C170.464 23.3538 171.187 23.0153 171.735 22.4034C172.283 21.7915 172.615 20.9526 172.664 20.0578C172.713 19.0921 172.446 18.1416 171.92 17.4068C171.394 16.6722 170.65 16.2103 169.844 16.1191C169.749 16.1191 169.654 16.1191 169.556 16.1191V16.1053Z" fill="white"/>
<path d="M175.134 20.33L173.222 20.1204" stroke="black" stroke-width="3.7" stroke-miterlimit="10"/>
<path d="M178.653 17.6528H178.892C179.579 17.7302 180.214 18.1234 180.663 18.7501C181.112 19.3765 181.34 20.1874 181.299 21.0111C181.258 21.7649 180.976 22.4715 180.513 22.9853C180.05 23.4994 179.44 23.782 178.809 23.7751C178.728 23.7751 178.65 23.7751 178.569 23.7751C177.882 23.6977 177.247 23.3041 176.798 22.6774C176.349 22.051 176.121 21.2405 176.162 20.4168C176.203 19.6626 176.484 18.9554 176.947 18.4413C177.41 17.9271 178.021 17.6449 178.653 17.6528ZM178.653 17.0136C177.883 17.0071 177.141 17.3529 176.577 17.9797C176.014 18.6064 175.672 19.4674 175.622 20.3857C175.572 21.3749 175.845 22.3488 176.384 23.102C176.923 23.8549 177.686 24.3279 178.511 24.4211C178.609 24.4211 178.705 24.4384 178.8 24.4384C179.568 24.4419 180.309 24.0947 180.871 23.4672C181.432 22.8401 181.772 21.9798 181.822 21.0629C181.876 20.072 181.605 19.0953 181.065 18.3411C180.525 17.5868 179.76 17.1156 178.933 17.0275C178.835 17.0275 178.739 17.0275 178.644 17.0275L178.653 17.0136Z" fill="white"/>
<path d="M171.9 22.2966C173.058 20.83 172.978 18.4909 171.721 17.0727C170.465 15.654 168.508 15.6931 167.35 17.1597C166.193 18.6264 166.273 20.965 167.529 22.3837C168.786 23.8023 170.743 23.7632 171.9 22.2966Z" fill="#3FBDF1"/>
<path d="M181.022 23.3066C182.185 21.833 182.105 19.4833 180.842 18.0581C179.58 16.6329 177.614 16.6723 176.451 18.1458C175.288 19.6194 175.368 21.9691 176.63 23.3943C177.893 24.8195 179.859 24.7801 181.022 23.3066Z" fill="#3FBDF1"/>
<path d="M177.54 45.1473L176.477 39.6469L175.322 33.7147" stroke="black" stroke-width="3.7" stroke-miterlimit="10"/>
<path d="M228.856 230.284L211.99 253.864C211.656 254.334 211.186 254.636 210.675 254.709C210.163 254.783 209.646 254.623 209.229 254.261L208.766 253.857C208.379 253.519 208.102 253.029 207.984 252.473C207.867 251.916 207.915 251.328 208.122 250.81L214.749 234.316C214.749 234.316 225.294 234.678 225.207 222.99C227.596 228.895 228.856 230.284 228.856 230.284Z" fill="#2E2E2E"/>
<path d="M200.354 215.278L200.236 215.136L195.801 210.095L195.587 209.86L177.064 188.785V188.764L177.038 188.736L176.411 188.045L170.78 181.643C167.697 178.132 165.622 173.544 164.852 168.535L163.833 161.998L163.509 159.925L161.377 146.047L161.111 144.319V144.264C160.947 143.248 160.791 142.222 160.64 141.206L160.586 140.833" stroke="black" stroke-width="3.7" stroke-miterlimit="10"/>
<path d="M159.97 136.086C160.152 137.658 160.357 139.237 160.577 140.809L160.632 141.183C160.782 142.198 160.938 143.224 161.103 144.24V144.295" stroke="black" stroke-width="3.7" stroke-linejoin="round"/>
<path d="M177.02 188.751L177.043 188.777L177.06 188.797" stroke="black" stroke-width="3.7" stroke-linejoin="round"/>
<path d="M195.584 209.861L195.798 210.096C197.401 211.892 198.879 213.573 200.233 215.136L200.348 215.278C218.112 235.804 214.746 234.315 214.746 234.315L208.116 250.809C207.91 251.328 207.863 251.916 207.981 252.472C208.099 253.029 208.376 253.519 208.764 253.856L209.226 254.261C209.644 254.622 210.16 254.782 210.672 254.709C211.184 254.635 211.654 254.333 211.988 253.863L228.85 230.283C228.85 230.283 227.593 228.901 225.204 222.99C219.464 208.762 207.206 182.507 190.332 168.826C189.704 168.322 189.215 167.606 188.927 166.77C188.638 165.934 188.564 165.014 188.712 164.127C189.035 162.254 189.342 160.382 189.642 158.502C189.688 158.212 189.734 157.918 189.775 157.628C190.717 151.713 191.574 145.783 192.346 139.838" stroke="black" stroke-width="3.7" stroke-linejoin="round"/>
<path d="M158.867 88.7773C159.127 84.2858 159.444 80.2193 159.788 76.6848C159.834 76.1493 159.889 75.6207 159.936 75.1024C160.64 67.4013 164.133 60.4498 168.429 54.8147C172.676 49.2453 178.081 43.8313 184.214 41.6374C186.189 40.8928 188.269 40.624 190.332 40.8462C191.749 41.05 193.102 41.6623 194.276 42.6307C195.45 43.5991 196.41 44.8948 197.072 46.4053C197.894 48.3366 198.419 50.429 198.621 52.5828C198.621 52.6104 198.621 52.6381 198.621 52.6692C198.982 56.1242 198.777 59.7485 198.808 63.1793C198.863 70.338 198.352 77.4829 197.69 84.6002" stroke="black" stroke-width="3.7" stroke-linejoin="round"/>
<path d="M158.352 106.678V106.67" stroke="black" stroke-width="3.7" stroke-linejoin="round"/>
<path d="M134.929 98.0815C137.665 101.91 139.37 107.496 138.197 112.492C137.908 113.677 136.862 115.284 135.912 113.822C135.671 113.409 135.51 112.937 135.441 112.44C135.172 111.034 134.82 109.652 134.614 108.225" stroke="black" stroke-width="3.7" stroke-miterlimit="10"/>
<path d="M137.03 114.389C159.375 107.327 191.017 104.936 197.832 67.6777C198.724 62.7166 198.991 57.624 198.624 52.569" stroke="black" stroke-width="3.7" stroke-miterlimit="10"/>
<path d="M158.289 108.364C157.847 117.278 155.513 127.021 154.224 131.858C154.123 132.233 154.092 132.63 154.132 133.021C154.172 133.412 154.282 133.788 154.456 134.123C154.629 134.458 154.861 134.744 155.136 134.962C155.41 135.179 155.722 135.322 156.047 135.382C157.102 135.579 158.436 135.814 159.97 136.073L160.152 136.104C160.216 136.104 160.276 136.132 160.349 136.139L160.505 136.17C160.64 136.187 160.773 136.215 160.906 136.235C161.253 136.301 161.614 136.356 161.984 136.422C162.148 136.422 162.322 136.47 162.504 136.508C171.459 138.028 184.8 140.015 192.349 139.818C192.545 139.818 192.742 139.818 192.927 139.797L193.504 139.77L194.065 139.732C196.128 139.552 197.532 139.131 197.933 138.388C200.533 133.686 195.709 106.661 198.02 80.7931" stroke="black" stroke-width="3.7" stroke-miterlimit="10"/>
<path d="M218.386 254.728H6.85333" stroke="black" stroke-width="3.7" stroke-linejoin="round"/>
<path d="M16.6554 175.509C16.6554 175.509 -11.988 215.687 16.6554 254.31" stroke="#CCDDE2" stroke-width="3.7" stroke-miterlimit="10"/>
</svg>
