<svg width="386" height="356" viewBox="0 0 386 356" fill="none" xmlns="http://www.w3.org/2000/svg">
<mask id="mask0_11_9" style="mask-type:luminance" maskUnits="userSpaceOnUse" x="0" y="0" width="386" height="356">
<path d="M386 0H0V355.747H386V0Z" fill="white"/>
</mask>
<g mask="url(#mask0_11_9)">
<path d="M365.632 214.441C351.99 270.587 326.343 319.777 290.719 341.395C286.085 344.202 281.354 346.584 276.549 348.528C251.132 358.828 223.327 355.245 199.897 336.476C189.954 328.503 180.886 317.969 170.906 310.111C160.926 302.253 149.53 297.11 138.668 300.989C129.315 304.328 121.424 313.899 113.479 322.425C94.7502 342.526 72.2302 358.432 50.0524 351.529C39.8474 348.356 29.7985 339.568 25.0592 324.877C14.5841 292.401 34.3397 253.788 30.3388 217.871C27.7785 194.884 16.0849 177.67 8.81531 157.383C-3.62574 122.683 -2.15504 76.5898 12.4321 44.075C27.0192 11.56 53.9483 -5.68748 78.6383 1.68863C108.746 10.6869 131.509 51.1885 160.785 65.5209C179.094 74.4762 198.973 71.8044 216.459 60.0103C244.712 40.9499 283.527 11.7175 315.322 16.479C332.229 19.0125 348.812 30.9402 359.971 51.3078C374.078 77.0192 378.307 113.523 375.954 147.426C374.339 170.377 370.87 192.9 365.632 214.441Z" fill="url(#paint0_linear_11_9)"/>
<path d="M374.709 258.851C374.081 258.849 373.457 258.73 372.848 258.493C370.921 257.74 369.249 255.847 368.171 253.2C367.094 250.553 366.692 247.352 367.049 244.25C367.403 241.149 368.493 238.38 370.089 236.51C371.686 234.64 373.673 233.809 375.642 234.188C377.611 234.567 379.415 236.126 380.684 238.547C381.957 240.969 382.596 244.07 382.479 247.217C382.359 250.365 381.489 253.321 380.045 255.483C378.601 257.646 376.693 258.85 374.709 258.851ZM374.709 239.68C373.676 239.687 372.683 240.293 371.911 241.384C371.14 242.475 370.648 243.976 370.524 245.605C370.404 247.234 370.66 248.877 371.248 250.226C371.833 251.576 372.71 252.537 373.712 252.93C374.291 253.152 374.895 253.175 375.483 253C376.068 252.825 376.623 252.454 377.113 251.912C377.602 251.371 378.016 250.67 378.322 249.857C378.628 249.044 378.827 248.137 378.896 247.196C378.968 246.254 378.911 245.299 378.733 244.394C378.556 243.489 378.259 242.654 377.863 241.944C377.467 241.234 376.984 240.666 376.437 240.275C375.894 239.885 375.306 239.682 374.709 239.68Z" fill="#E7F6FF"/>
<path d="M367.604 271.975C368.045 269.074 366.926 266.151 365.098 265.448C363.273 264.744 361.436 266.526 360.992 269.427C360.551 272.329 361.67 275.251 363.495 275.955C365.323 276.658 367.16 274.876 367.604 271.975Z" fill="#E7F6FF"/>
<path d="M16.5651 257.671C14.5035 257.6 12.5429 256.239 11.1089 253.883C9.67493 251.528 8.88326 248.368 8.9058 245.091C8.92831 241.813 9.76323 238.682 11.2293 236.377C12.6953 234.072 14.6741 232.779 16.7361 232.779C18.7982 232.779 20.777 234.072 22.243 236.377C23.7091 238.682 24.544 241.813 24.5665 245.091C24.589 248.368 23.7973 251.528 22.3634 253.883C20.9294 256.239 18.9688 257.6 16.9072 257.671H16.5651ZM16.5651 238.506H16.388C15.2745 238.545 14.2156 239.279 13.441 240.551C12.6664 241.823 12.2387 243.529 12.2507 245.3C12.2628 247.07 12.7136 248.761 13.5054 250.006C14.2971 251.251 15.3658 251.949 16.4795 251.949C17.5932 251.949 18.6619 251.251 19.4537 250.006C20.2454 248.761 20.6963 247.07 20.7083 245.3C20.7204 243.529 20.2927 241.823 19.5181 240.551C18.7435 239.279 17.6845 238.545 16.5711 238.506H16.5651Z" fill="#E7F6FF"/>
<path d="M10.982 278.56C12.8584 278.431 14.3139 275.909 14.233 272.926C14.152 269.944 12.5653 267.63 10.6889 267.759C8.81255 267.888 7.35705 270.41 7.43797 273.393C7.51892 276.375 9.10564 278.689 10.982 278.56Z" fill="#E7F6FF"/>
<path d="M212.828 56.4215C210.959 56.4239 209.151 55.3633 207.732 53.431C206.313 51.4987 205.376 48.8226 205.091 45.887C204.805 42.9515 205.19 39.9505 206.176 37.4273C207.162 34.9041 208.684 33.0254 210.466 32.1312C212.248 31.237 214.172 31.3864 215.891 32.5524C217.61 33.7184 219.009 35.8239 219.835 38.4878C220.662 41.1518 220.861 44.1981 220.397 47.0754C219.933 49.9528 218.837 52.471 217.306 54.1743C215.993 55.6343 214.43 56.4186 212.828 56.4215ZM212.804 37.2606C211.71 37.2588 210.659 37.9278 209.868 39.1282C209.077 40.3286 208.609 41.9677 208.56 43.7039C208.51 45.4402 208.885 47.1395 209.604 48.448C210.324 49.7563 211.334 50.5726 212.423 50.7267C213.512 50.8808 214.596 50.3612 215.45 49.2753C216.304 48.1899 216.861 46.6225 217.006 44.8998C217.151 43.1771 216.872 41.4321 216.227 40.0285C215.582 38.6249 214.621 37.671 213.545 37.3656C213.3 37.2962 213.052 37.2611 212.804 37.2606Z" fill="#E7F6FF"/>
<path d="M196.861 55.7421C198.399 54.0278 198.772 50.6571 197.693 48.2123C196.615 45.7682 194.494 45.1762 192.956 46.8903C191.419 48.6045 191.046 51.9753 192.125 54.42C193.203 56.8642 195.324 57.4563 196.861 55.7421Z" fill="#E7F6FF"/>
<path d="M385.988 120.545C385.988 115.299 384.676 110.268 382.344 106.558C380.009 102.848 376.846 100.764 373.544 100.764C373.268 100.764 372.995 100.764 372.725 100.807C372.743 100.378 372.752 99.9434 372.752 99.5044C372.752 96.6933 372.373 93.9142 371.644 91.353C370.915 88.7914 369.852 86.5066 368.523 84.6506C367.193 82.7947 365.632 81.4101 363.939 80.5895C362.249 79.7684 360.467 79.5303 358.714 79.8905C356.958 80.2512 355.274 81.2016 353.767 82.6787C352.264 84.1563 350.973 86.1268 349.985 88.4584C348.998 90.7905 348.335 93.4304 348.038 96.2019C347.743 98.9739 347.821 101.814 348.272 104.533C346.768 102.8 345.039 101.623 343.211 101.09C341.383 100.557 339.504 100.682 337.712 101.454C335.918 102.226 334.258 103.627 332.847 105.554C331.439 107.48 330.323 109.883 329.573 112.587C328.825 115.291 328.468 118.226 328.528 121.178C328.588 124.129 329.062 127.022 329.918 129.645C330.77 132.267 331.983 134.552 333.465 136.332C334.948 138.112 336.662 139.341 338.484 139.93C339.228 143.064 340.459 145.846 342.065 148.016C343.667 150.186 345.594 151.673 347.656 152.338C349.721 153.003 351.861 152.823 353.869 151.817C355.877 150.809 357.693 149.008 359.146 146.581C360.632 148.363 362.348 149.593 364.173 150.18C365.998 150.767 367.88 150.697 369.684 149.974C371.491 149.25 373.169 147.892 374.6 146.001C376.032 144.109 377.176 141.731 377.953 139.042C380.315 137.619 382.347 135.088 383.785 131.784C385.22 128.48 385.988 124.56 385.988 120.545Z" fill="white"/>
<path d="M57.463 72.9967C57.4645 70.3979 57.1439 67.8239 56.5196 65.4221C55.895 63.0204 54.979 60.8376 53.8234 58.9988C52.6682 57.16 51.2962 55.701 49.7859 54.7058C48.2758 53.7101 46.6568 53.1972 45.0219 53.1967C44.7458 53.1967 44.4727 53.1967 44.2025 53.2396C44.2205 52.8102 44.2295 52.3761 44.2295 51.9371C44.2293 49.126 43.852 46.3468 43.1226 43.7854C42.3936 41.2241 41.3292 38.9393 40.0008 37.0833C38.6723 35.2273 37.1101 33.8427 35.4185 33.0219C33.7268 32.2011 31.9446 31.963 30.1905 32.3233C28.4366 32.6836 26.751 33.6341 25.2462 35.1115C23.7414 36.5889 22.4521 38.5592 21.4641 40.8911C20.4761 43.2229 19.8122 45.8628 19.5165 48.6346C19.2209 51.4066 19.3003 54.2468 19.7496 56.9659C18.2457 55.2321 16.5165 54.0555 14.6892 53.523C12.8618 52.9901 10.9826 53.1146 9.18944 53.8866C7.39627 54.659 5.73463 56.0598 4.3265 57.9864C2.91836 59.913 1.79944 62.3162 1.05186 65.0195C0.304285 67.7232 -0.0529861 70.6584 0.00627106 73.6103C0.0655281 76.5617 0.53981 79.4549 1.39431 82.0771C2.24881 84.6997 3.46184 86.9846 4.94438 88.7642C6.42692 90.5438 8.14136 91.7738 9.96186 92.3626C10.7059 95.4934 11.9374 98.273 13.5413 100.441C15.1451 102.609 17.0688 104.095 19.1323 104.76C21.1957 105.424 23.3315 105.245 25.3398 104.241C27.348 103.236 29.163 101.437 30.6149 99.0135C32.1003 100.796 33.8184 102.026 35.6424 102.613C37.4664 103.2 39.3501 103.13 41.1546 102.406C42.959 101.682 44.6387 100.325 46.0694 98.4333C47.5002 96.5416 48.6459 94.1641 49.4221 91.4752C51.783 90.0548 53.8165 87.5266 55.2527 84.2264C56.6889 80.9263 57.4597 77.0097 57.463 72.9967Z" fill="white"/>
<path d="M286.394 354.459H107.356V348.256H286.394C286.911 348.256 287.407 348.583 287.773 349.164C288.139 349.746 288.344 350.535 288.344 351.357C288.344 352.18 288.139 352.969 287.773 353.55C287.407 354.132 286.911 354.459 286.394 354.459Z" fill="#426572"/>
<path d="M99.3485 354.459H88.4021C87.8847 354.459 87.3885 354.132 87.0226 353.55C86.6568 352.969 86.4512 352.18 86.4512 351.357C86.4512 350.535 86.6568 349.746 87.0226 349.164C87.3885 348.583 87.8847 348.256 88.4021 348.256H99.3485C99.8659 348.256 100.362 348.583 100.728 349.164C101.094 349.746 101.299 350.535 101.299 351.357C101.299 352.18 101.094 352.969 100.728 353.55C100.362 354.132 99.8659 354.459 99.3485 354.459Z" fill="#426572"/>
<path d="M81.2976 354.459H77.8099C77.2924 354.459 76.7963 354.132 76.4304 353.55C76.0645 352.969 75.8589 352.18 75.8589 351.357C75.8589 350.535 76.0645 349.746 76.4304 349.164C76.7963 348.583 77.2924 348.256 77.8099 348.256H81.2976C81.815 348.256 82.3112 348.583 82.6771 349.164C83.0429 349.746 83.2485 350.535 83.2485 351.357C83.2485 352.18 83.0429 352.969 82.6771 353.55C82.3112 354.132 81.815 354.459 81.2976 354.459Z" fill="#426572"/>
<path d="M349.172 354.459H294.143V348.256H349.172C349.688 348.256 350.187 348.583 350.553 349.164C350.919 349.746 351.123 350.535 351.123 351.357C351.123 352.18 350.919 352.969 350.553 353.55C350.187 354.132 349.688 354.459 349.172 354.459Z" fill="#426572"/>
<path d="M67.8331 354.459H12.8013V348.256H67.8331C68.3506 348.256 68.8467 348.583 69.2126 349.164C69.5785 349.746 69.7841 350.535 69.7841 351.357C69.7841 352.18 69.5785 352.969 69.2126 353.55C68.8467 354.132 68.3506 354.459 67.8331 354.459Z" fill="#426572"/>
<path d="M85.2715 112.387H285.715C289.333 112.387 292.802 114.671 295.361 118.736C297.92 122.802 299.358 128.316 299.36 134.067V340.302H71.6269V134.067C71.6284 128.316 73.0667 122.802 75.6254 118.736C78.1842 114.671 81.6539 112.387 85.2715 112.387Z" fill="#EBF0F9"/>
<path d="M291.445 128.203H80.4452V319.81H291.445V128.203Z" fill="#637F91"/>
<path d="M78.8634 319.453H292.342C292.342 320.974 291.964 322.433 291.289 323.511C290.614 324.589 289.697 325.199 288.741 325.207H82.4802C81.52 325.207 80.5995 324.6 79.9205 323.521C79.2419 322.442 78.8604 320.978 78.8604 319.453H78.8634Z" fill="white"/>
<g opacity="0.5">
<path opacity="0.5" d="M143.497 127.487L111.949 320.888H96.0619L127.61 127.487H143.497Z" fill="#A7BCD5"/>
<path opacity="0.5" d="M183.99 127.487L152.444 320.888H119.128L150.676 127.487H183.99Z" fill="#A7BCD5"/>
</g>
<path d="M301.161 343.165H69.826V124.821C69.8293 120.765 70.8441 116.878 72.648 114.01C74.4518 111.143 76.8977 109.529 79.4487 109.525H291.538C294.089 109.529 296.535 111.143 298.339 114.01C300.143 116.878 301.158 120.765 301.161 124.821V343.165ZM73.4277 337.44H297.559V124.821C297.557 122.283 296.923 119.85 295.794 118.056C294.665 116.261 293.134 115.252 291.538 115.25H79.4487C77.8525 115.252 76.3218 116.261 75.1929 118.056C74.0644 119.85 73.4292 122.283 73.4277 124.821V337.44Z" fill="#426572"/>
<path d="M42.9059 333.475H334.189V334.997C334.189 339.932 332.955 344.665 330.761 348.154C328.564 351.644 325.587 353.604 322.483 353.604H54.6116C51.5072 353.604 48.5298 351.644 46.3345 348.154C44.1392 344.665 42.9059 339.932 42.9059 334.997V333.475Z" fill="#EBF0F9"/>
<path opacity="0.5" d="M332.697 343.179C332.058 345.826 330.926 348.102 329.455 349.707C327.985 351.312 326.241 352.17 324.458 352.168H50.8208C49.0379 352.168 47.2968 351.309 45.8269 349.704C44.3571 348.1 43.228 345.825 42.5878 343.179H332.697Z" fill="#A7BCD5"/>
<path d="M321.123 355.746H53.255C49.6739 355.739 46.2409 353.475 43.7088 349.45C41.1765 345.425 39.7523 339.968 39.7484 334.276V329.891H334.633V334.276C334.63 339.969 333.204 345.427 330.671 349.452C328.138 353.477 324.704 355.741 321.123 355.746ZM43.3832 335.617C43.5945 339.546 44.7257 343.206 46.553 345.873C48.3806 348.541 50.771 350.02 53.252 350.021H321.123C323.606 350.02 325.995 348.541 327.823 345.873C329.651 343.206 330.782 339.546 330.992 335.617H43.3832Z" fill="#426572"/>
<path d="M292.793 321.594H78.1881V125.34H292.793V321.594ZM81.7899 315.869H289.191V131.065H81.7899V315.869Z" fill="#426572"/>
<path d="M259.191 66.6946V318.732H115.358V66.6946C115.364 65.5586 115.65 64.4712 116.155 63.6678C116.661 62.8643 117.345 62.4092 118.06 62.4006H256.478C256.641 62.4006 256.804 62.4249 256.964 62.4721C257.586 62.6549 258.149 63.1764 258.555 63.9469C258.962 64.7174 259.186 65.6893 259.191 66.6946Z" fill="white"/>
<path d="M117.621 83.2317H259.644V68.0691L256.928 62.382H132.548H120.335L115.811 68.0691V83.2317H117.621Z" fill="#E2F2FF"/>
<path d="M261.445 321.595H114.01V66.6946C114.015 64.799 114.491 62.9832 115.334 61.6425C116.178 60.3018 117.32 59.5456 118.513 59.538H256.925C258.118 59.5456 259.26 60.3018 260.103 61.6425C260.947 62.9832 261.422 64.799 261.427 66.6946L261.445 321.595ZM117.612 315.87H257.844V66.6946C257.838 66.3182 257.741 65.9594 257.573 65.6931C257.406 65.4269 257.18 65.2728 256.943 65.2633H118.525C118.288 65.2728 118.062 65.4269 117.895 65.6931C117.727 65.9594 117.63 66.3182 117.624 66.6946L117.612 315.87Z" fill="#426572"/>
<path d="M250.796 71.2181H124.273C123.273 71.2181 122.463 72.5058 122.463 74.095C122.463 75.6838 123.273 76.972 124.273 76.972H250.796C251.796 76.972 252.606 75.6838 252.606 74.095C252.606 72.5058 251.796 71.2181 250.796 71.2181Z" fill="#CADCE8"/>
<path d="M162.712 110.231H133.139V163.796H162.712V110.231Z" fill="#E8837E"/>
<path d="M235.627 110.231H165.504V163.796H235.627V110.231Z" fill="#E8837E"/>
<path d="M235.627 169.726H202.518V223.291H235.627V169.726Z" fill="#DDE4ED"/>
<path d="M199.726 169.726H133.511V223.291H199.726V169.726Z" fill="#DDE4ED"/>
<path d="M235.813 229.221H133.511V282.786H235.813V229.221Z" fill="#DDE4ED"/>
<path d="M236.716 289.985H210.484V295.711H236.716V289.985Z" fill="#DDE4ED"/>
<path d="M93.4115 305.082H50.4726C49.7654 305.09 49.0688 304.814 48.4466 304.281C47.5461 303.498 46.9698 302.215 46.9698 300.769L46.9939 206.941C46.9945 206.327 47.098 205.724 47.294 205.195C47.8403 203.687 49.0739 202.628 50.4966 202.628H93.4355C94.9362 202.628 96.1998 203.782 96.7041 205.395C96.8568 205.873 96.937 206.4 96.9382 206.936L96.9172 300.769C96.9172 302.935 95.5995 304.743 93.8977 305.039C93.7362 305.068 93.5738 305.083 93.4115 305.082Z" fill="white"/>
<path d="M94.579 304.362L51.6251 304.348C50.9182 304.356 50.2213 304.08 49.5991 303.546C48.6987 302.764 48.1224 301.48 48.1224 300.035L48.1464 206.207C48.147 205.592 48.2505 204.99 48.4465 204.46C48.9928 202.953 50.2264 201.893 51.6491 201.893H52.2344L52.2254 294.281C52.2254 295.712 52.8077 297.01 53.7021 297.792C54.3243 298.326 55.0212 298.602 55.7281 298.594H98.0847V300.025C98.0847 302.191 96.7671 304 95.0652 304.295C94.9041 304.332 94.7417 304.355 94.579 304.362Z" fill="#D6DEE9"/>
<path d="M93.9938 307.224H51.0519C50.0395 307.233 49.0418 306.834 48.1525 306.065C46.6517 304.743 45.7513 302.491 45.7513 300.049L45.7753 206.22C45.7789 205.102 45.9683 204.004 46.3246 203.038C47.225 200.581 49.0259 199.049 51.0819 199.049H94.0208C96.1218 199.049 97.9977 200.695 98.8501 203.253L99.0903 203.84V204.107C99.2457 204.788 99.325 205.506 99.3244 206.23L99.3004 300.058C99.3004 303.656 97.3104 306.738 94.6751 307.172C94.4488 307.21 94.2213 307.227 93.9938 307.224ZM51.0729 204.751C50.2655 204.751 49.6352 205.319 49.4341 205.882C49.3948 205.977 49.3728 206.088 49.371 206.201L49.347 300.03C49.347 300.344 49.5661 300.745 49.8933 301.036C50.2502 301.336 50.6482 301.49 51.0519 301.485H93.9908C94.085 301.486 94.1793 301.478 94.2729 301.461C95.1734 301.308 95.6956 300.507 95.6956 300.03L95.7196 206.201C95.7196 206.144 95.7136 206.088 95.7016 206.034L95.5335 205.624C95.1184 205.029 94.5734 204.716 94.0148 204.751H51.0759H51.0729Z" fill="#426572"/>
<path d="M89.0414 243.229H59.9212V248.954H89.0414V243.229Z" fill="#426572"/>
<path d="M89.0414 231.282H59.9212V237.008H89.0414V231.282Z" fill="#426572"/>
<path d="M89.0414 256.765H59.9212V262.49H89.0414V256.765Z" fill="#426572"/>
<path opacity="0.2" d="M321.757 135.499C323.855 129.24 325.142 122.376 325.545 115.313C325.947 108.249 325.455 101.13 324.098 94.3736C322.741 87.6177 320.544 81.3624 317.642 75.9763C314.739 70.5907 311.189 66.1836 307.197 63.0151C303.205 59.8466 298.855 57.9812 294.402 57.5289C289.95 57.0766 285.485 58.0465 281.272 60.381C277.06 62.716 273.183 66.3687 269.873 71.1231C266.563 75.878 263.885 81.6381 261.998 88.0648C259.391 95.8441 258.044 104.532 258.077 113.345C258.11 122.159 259.521 130.82 262.185 138.55C264.849 146.28 268.681 152.834 273.336 157.623C277.99 162.412 283.322 165.284 288.849 165.981C287.884 166.344 286.905 166.638 285.91 166.864C291.142 168.063 296.479 167.272 301.482 164.554C306.482 161.837 311.008 157.272 314.685 151.234C317.627 146.719 320.025 141.386 321.757 135.499Z" fill="#606060"/>
<path d="M287.768 153.58C306.218 153.58 321.174 129.805 321.174 100.478C321.174 71.1503 306.218 47.3754 287.768 47.3754C269.318 47.3754 254.362 71.1503 254.362 100.478C254.362 129.805 269.318 153.58 287.768 153.58Z" fill="#A8EF9E"/>
<path d="M319.581 104.272C319.581 111.886 318.548 119.41 316.558 126.335C314.568 133.259 311.663 139.423 308.043 144.407C304.423 149.391 300.17 153.08 295.574 155.223C290.978 157.365 286.146 157.912 281.405 156.826C289.354 154.999 296.623 148.681 301.881 139.029C307.14 129.377 310.033 117.037 310.033 104.27C310.033 91.5024 307.14 79.1624 301.881 69.5105C296.623 59.8586 289.354 53.5407 281.405 51.7138C286.146 50.627 290.979 51.1733 295.576 53.316C300.173 55.4587 304.426 59.1472 308.046 64.132C311.666 69.1169 314.571 75.2811 316.561 82.2068C318.554 89.1326 319.584 96.658 319.584 104.272H319.581Z" fill="#A7E59C"/>
<path d="M286.973 158.968C280.009 158.968 273.203 155.685 267.413 149.536C261.623 143.387 257.11 134.646 254.446 124.42C251.781 114.194 251.084 102.941 252.442 92.0849C253.801 81.2288 257.154 71.2567 262.077 63.4297C267.001 55.6032 273.275 50.273 280.104 48.1136C286.934 45.954 294.013 47.0624 300.446 51.2983C306.878 55.5341 312.377 62.7074 316.246 71.9108C320.115 81.1138 322.18 91.9341 322.18 103.003C322.171 117.841 318.458 132.066 311.858 142.558C305.258 153.05 296.307 158.951 286.973 158.968ZM286.973 52.7683C280.722 52.7683 274.611 55.7149 269.414 61.235C264.216 66.7557 260.166 74.6017 257.773 83.7818C255.381 92.9618 254.755 103.064 255.975 112.809C257.194 122.555 260.204 131.507 264.625 138.532C269.044 145.559 274.676 150.344 280.807 152.282C286.938 154.221 293.293 153.225 299.068 149.423C304.843 145.62 309.778 139.181 313.251 130.919C316.723 122.658 318.578 112.944 318.578 103.008C318.569 89.6879 315.238 76.9171 309.313 67.4985C303.385 58.0794 295.352 52.7821 286.973 52.7683Z" fill="#426572"/>
<path d="M303.847 81.2899C303.127 80.6496 302.277 80.4778 301.479 80.8104C300.68 81.1429 299.994 81.9545 299.564 83.0738L293.78 98.1027L284.539 122.092L284.28 122.764L273.61 109.195L271.665 106.725C270.39 105.102 268.466 104.592 267.238 106.725C266.194 108.533 265.873 112.025 267.238 113.761L280.958 131.205L282.903 133.676C283.71 134.706 284.479 135.269 285.532 135.045C286.003 134.954 286.454 134.69 286.851 134.277C287.247 133.863 287.579 133.31 287.819 132.66L293.603 117.631L302.848 93.6465L304.982 88.103C305.825 85.8796 305.321 82.5399 303.847 81.2899Z" fill="white"/>
</g>
<defs>
<linearGradient id="paint0_linear_11_9" x1="0.396205" y1="177.098" x2="376.563" y2="177.098" gradientUnits="userSpaceOnUse">
<stop stop-color="#C5E9FA"/>
<stop offset="1" stop-color="#C4F4EA"/>
</linearGradient>
</defs>
</svg>
